<?xml version="1.0" encoding="UTF-8" standalone="no"?>
<!DOCTYPE svg PUBLIC "-//W3C//DTD SVG 1.1//EN"
 "http://www.w3.org/Graphics/SVG/1.1/DTD/svg11.dtd">
<!-- Generated by graphviz version 10.0.1 (20240210.2158)
 -->
<!-- Pages: 1 -->
<svg width="280pt" height="260pt"
 viewBox="0.00 0.00 279.85 260.00" xmlns="http://www.w3.org/2000/svg" xmlns:xlink="http://www.w3.org/1999/xlink">
<g id="page0,1_graph0" class="graph" transform="scale(1 1) rotate(0) translate(4 256)">
<polygon fill="white" stroke="none" points="-4,4 -4,-256 275.85,-256 275.85,4 -4,4"/>
<!-- 73_0 -->
<!-- 73_0_7208 -->
<g id="node2" class="node">
<title>73_0_7208</title>
<ellipse fill="none" stroke="black" cx="35.42" cy="-90" rx="30.69" ry="18"/>
<text text-anchor="middle" x="35.42" y="-85.33" font-family="Times,serif" font-size="14.00">Add</text>
</g>
<!-- 73_0_7207 -->
<g id="node3" class="node">
<title>73_0_7207</title>
<ellipse fill="none" stroke="black" cx="35.42" cy="-162" rx="35.42" ry="18"/>
<text text-anchor="middle" x="35.42" y="-157.32" font-family="Times,serif" font-size="14.00">Load</text>
</g>
<!-- 73_0_7208&#45;&gt;73_0_7207 -->
<g id="edge1" class="edge">
<title>73_0_7208&#45;&gt;73_0_7207</title>
<path fill="none" stroke="black" d="M35.42,-108.3C35.42,-115.59 35.42,-124.27 35.42,-132.46"/>
<polygon fill="black" stroke="black" points="31.92,-132.38 35.42,-142.38 38.92,-132.38 31.92,-132.38"/>
</g>
<!-- 73_0_7206 -->
<g id="node4" class="node">
<title>73_0_7206</title>
<ellipse fill="none" stroke="black" cx="171.42" cy="-90" rx="86.98" ry="18"/>
<text text-anchor="middle" x="171.42" y="-85.33" font-family="Times,serif" font-size="14.00">GetElementPtr</text>
</g>
<!-- 73_0_7186 -->
<g id="node5" class="node">
<title>73_0_7186</title>
<ellipse fill="none" stroke="black" cx="147.42" cy="-162" rx="35.42" ry="18"/>
<text text-anchor="middle" x="147.42" y="-157.32" font-family="Times,serif" font-size="14.00">Load</text>
</g>
<!-- 73_0_7206&#45;&gt;73_0_7186 -->
<g id="edge2" class="edge">
<title>73_0_7206&#45;&gt;73_0_7186</title>
<path fill="none" stroke="black" d="M165.49,-108.3C162.93,-115.76 159.88,-124.68 157.01,-133.03"/>
<polygon fill="black" stroke="black" points="153.71,-131.87 153.78,-142.46 160.33,-134.14 153.71,-131.87"/>
</g>
<!-- 73_0_7205 -->
<g id="node6" class="node">
<title>73_0_7205</title>
<ellipse fill="none" stroke="black" cx="236.42" cy="-162" rx="35.42" ry="18"/>
<text text-anchor="middle" x="236.42" y="-157.32" font-family="Times,serif" font-size="14.00">SExt</text>
</g>
<!-- 73_0_7206&#45;&gt;73_0_7205 -->
<g id="edge5" class="edge">
<title>73_0_7206&#45;&gt;73_0_7205</title>
<path fill="none" stroke="black" d="M187.16,-107.95C195.21,-116.62 205.16,-127.33 214,-136.85"/>
<polygon fill="black" stroke="black" points="211.33,-139.12 220.7,-144.06 216.46,-134.35 211.33,-139.12"/>
</g>
<!-- 73_0_7204 -->
<g id="node7" class="node">
<title>73_0_7204</title>
<ellipse fill="none" stroke="black" cx="236.42" cy="-234" rx="35.42" ry="18"/>
<text text-anchor="middle" x="236.42" y="-229.32" font-family="Times,serif" font-size="14.00">Load</text>
</g>
<!-- 73_0_7205&#45;&gt;73_0_7204 -->
<g id="edge3" class="edge">
<title>73_0_7205&#45;&gt;73_0_7204</title>
<path fill="none" stroke="black" d="M236.42,-180.3C236.42,-187.59 236.42,-196.27 236.42,-204.46"/>
<polygon fill="black" stroke="black" points="232.92,-204.38 236.42,-214.38 239.92,-204.38 232.92,-204.38"/>
</g>
<!-- 73_0_7209 -->
<g id="node8" class="node">
<title>73_0_7209</title>
<ellipse fill="none" stroke="black" cx="103.42" cy="-18" rx="38.58" ry="18"/>
<text text-anchor="middle" x="103.42" y="-13.32" font-family="Times,serif" font-size="14.00">Store</text>
</g>
<!-- 73_0_7209&#45;&gt;73_0_7208 -->
<g id="edge6" class="edge">
<title>73_0_7209&#45;&gt;73_0_7208</title>
<path fill="none" stroke="black" d="M87.99,-34.88C79.06,-44.09 67.65,-55.83 57.74,-66.03"/>
<polygon fill="black" stroke="black" points="55.38,-63.44 50.92,-73.05 60.4,-68.32 55.38,-63.44"/>
</g>
<!-- 73_0_7209&#45;&gt;73_0_7206 -->
<g id="edge4" class="edge">
<title>73_0_7209&#45;&gt;73_0_7206</title>
<path fill="none" stroke="black" d="M118.85,-34.88C127.22,-43.49 137.75,-54.33 147.18,-64.04"/>
<polygon fill="black" stroke="black" points="144.57,-66.38 154.05,-71.12 149.6,-61.51 144.57,-66.38"/>
</g>
</g>
</svg>
