<?xml version="1.0" encoding="UTF-8" standalone="no"?>
<!DOCTYPE svg PUBLIC "-//W3C//DTD SVG 1.1//EN"
 "http://www.w3.org/Graphics/SVG/1.1/DTD/svg11.dtd">
<!-- Generated by graphviz version 10.0.1 (20240210.2158)
 -->
<!-- Pages: 1 -->
<svg width="182pt" height="188pt"
 viewBox="0.00 0.00 181.97 188.00" xmlns="http://www.w3.org/2000/svg" xmlns:xlink="http://www.w3.org/1999/xlink">
<g id="graph0" class="graph" transform="scale(1 1) rotate(0) translate(4 184)">
<polygon fill="white" stroke="none" points="-4,4 -4,-184 177.97,-184 177.97,4 -4,4"/>
<!-- 253_14 -->
<!-- 253_14_621 -->
<g id="node2" class="node">
<title>253_14_621</title>
<ellipse fill="none" stroke="black" cx="86.98" cy="-18" rx="35.42" ry="18"/>
<text text-anchor="middle" x="86.98" y="-13.32" font-family="Times,serif" font-size="14.00">Load</text>
</g>
<!-- 253_14_620 -->
<g id="node3" class="node">
<title>253_14_620</title>
<ellipse fill="none" stroke="black" cx="86.98" cy="-90" rx="86.98" ry="18"/>
<text text-anchor="middle" x="86.98" y="-85.33" font-family="Times,serif" font-size="14.00">GetElementPtr</text>
</g>
<!-- 253_14_621&#45;&gt;253_14_620 -->
<g id="edge1" class="edge">
<title>253_14_621&#45;&gt;253_14_620</title>
<path fill="none" stroke="black" d="M86.98,-36.3C86.98,-43.59 86.98,-52.27 86.98,-60.46"/>
<polygon fill="black" stroke="black" points="83.48,-60.38 86.98,-70.38 90.48,-60.38 83.48,-60.38"/>
</g>
<!-- 253_14_619 -->
<g id="node4" class="node">
<title>253_14_619</title>
<ellipse fill="none" stroke="black" cx="86.98" cy="-162" rx="35.42" ry="18"/>
<text text-anchor="middle" x="86.98" y="-157.32" font-family="Times,serif" font-size="14.00">Load</text>
</g>
<!-- 253_14_620&#45;&gt;253_14_619 -->
<g id="edge2" class="edge">
<title>253_14_620&#45;&gt;253_14_619</title>
<path fill="none" stroke="black" d="M86.98,-108.3C86.98,-115.59 86.98,-124.27 86.98,-132.46"/>
<polygon fill="black" stroke="black" points="83.48,-132.38 86.98,-142.38 90.48,-132.38 83.48,-132.38"/>
</g>
</g>
</svg>
