<?xml version="1.0" encoding="UTF-8" standalone="no"?>
<!DOCTYPE svg PUBLIC "-//W3C//DTD SVG 1.1//EN"
 "http://www.w3.org/Graphics/SVG/1.1/DTD/svg11.dtd">
<!-- Generated by graphviz version 10.0.1 (20240210.2158)
 -->
<!-- Pages: 1 -->
<svg width="196pt" height="188pt"
 viewBox="0.00 0.00 195.78 188.00" xmlns="http://www.w3.org/2000/svg" xmlns:xlink="http://www.w3.org/1999/xlink">
<g id="page0,1_graph0" class="graph" transform="scale(1 1) rotate(0) translate(4 184)">
<polygon fill="white" stroke="none" points="-4,4 -4,-184 191.78,-184 191.78,4 -4,4"/>
<!-- 193_16 -->
<!-- 193_16_3961 -->
<g id="node2" class="node">
<title>193_16_3961</title>
<ellipse fill="none" stroke="black" cx="100.8" cy="-18" rx="38.58" ry="18"/>
<text text-anchor="middle" x="100.8" y="-13.32" font-family="Times,serif" font-size="14.00">Store</text>
</g>
<!-- 193_16_3960 -->
<g id="node3" class="node">
<title>193_16_3960</title>
<ellipse fill="none" stroke="black" cx="100.8" cy="-90" rx="86.98" ry="18"/>
<text text-anchor="middle" x="100.8" y="-85.33" font-family="Times,serif" font-size="14.00">GetElementPtr</text>
</g>
<!-- 193_16_3961&#45;&gt;193_16_3960 -->
<g id="edge1" class="edge">
<title>193_16_3961&#45;&gt;193_16_3960</title>
<path fill="none" stroke="black" d="M100.8,-36.3C100.8,-43.59 100.8,-52.27 100.8,-60.46"/>
<polygon fill="black" stroke="black" points="97.3,-60.38 100.8,-70.38 104.3,-60.38 97.3,-60.38"/>
</g>
<!-- 193_16_3959 -->
<g id="node4" class="node">
<title>193_16_3959</title>
<ellipse fill="none" stroke="black" cx="56.8" cy="-162" rx="35.42" ry="18"/>
<text text-anchor="middle" x="56.8" y="-157.32" font-family="Times,serif" font-size="14.00">Load</text>
</g>
<!-- 193_16_3960&#45;&gt;193_16_3959 -->
<g id="edge2" class="edge">
<title>193_16_3960&#45;&gt;193_16_3959</title>
<path fill="none" stroke="black" d="M89.92,-108.3C84.89,-116.3 78.81,-125.98 73.24,-134.85"/>
<polygon fill="black" stroke="black" points="70.41,-132.77 68.05,-143.1 76.34,-136.49 70.41,-132.77"/>
</g>
<!-- 193_16_3956 -->
<g id="node5" class="node">
<title>193_16_3956</title>
<ellipse fill="none" stroke="black" cx="145.8" cy="-162" rx="35.42" ry="18"/>
<text text-anchor="middle" x="145.8" y="-157.32" font-family="Times,serif" font-size="14.00">Load</text>
</g>
<!-- 193_16_3960&#45;&gt;193_16_3956 -->
<g id="edge3" class="edge">
<title>193_16_3960&#45;&gt;193_16_3956</title>
<path fill="none" stroke="black" d="M111.92,-108.3C117.07,-116.3 123.29,-125.98 128.99,-134.85"/>
<polygon fill="black" stroke="black" points="125.94,-136.59 134.3,-143.1 131.83,-132.8 125.94,-136.59"/>
</g>
</g>
</svg>
