<?xml version="1.0" encoding="UTF-8" standalone="no"?>
<!DOCTYPE svg PUBLIC "-//W3C//DTD SVG 1.1//EN"
 "http://www.w3.org/Graphics/SVG/1.1/DTD/svg11.dtd">
<!-- Generated by graphviz version 10.0.1 (20240210.2158)
 -->
<!-- Pages: 1 -->
<svg width="354pt" height="476pt"
 viewBox="0.00 0.00 353.78 476.00" xmlns="http://www.w3.org/2000/svg" xmlns:xlink="http://www.w3.org/1999/xlink">
<g id="page0,1_graph0" class="graph" transform="scale(1 1) rotate(0) translate(4 472)">
<polygon fill="white" stroke="none" points="-4,4 -4,-472 349.78,-472 349.78,4 -4,4"/>
<!-- 144_0 -->
<!-- 144_0_643 -->
<g id="node2" class="node">
<title>144_0_643</title>
<ellipse fill="none" stroke="black" cx="188.8" cy="-18" rx="38.58" ry="18"/>
<text text-anchor="middle" x="188.8" y="-13.32" font-family="Times,serif" font-size="14.00">Store</text>
</g>
<!-- 144_0_641 -->
<g id="node3" class="node">
<title>144_0_641</title>
<ellipse fill="none" stroke="black" cx="118.8" cy="-90" rx="34.9" ry="18"/>
<text text-anchor="middle" x="118.8" y="-85.33" font-family="Times,serif" font-size="14.00">FDiv</text>
</g>
<!-- 144_0_643&#45;&gt;144_0_641 -->
<g id="edge1" class="edge">
<title>144_0_643&#45;&gt;144_0_641</title>
<path fill="none" stroke="black" d="M172.92,-34.88C163.84,-43.96 152.29,-55.51 142.19,-65.61"/>
<polygon fill="black" stroke="black" points="139.81,-63.04 135.21,-72.59 144.76,-67.99 139.81,-63.04"/>
</g>
<!-- 144_0_642 -->
<g id="node9" class="node">
<title>144_0_642</title>
<ellipse fill="none" stroke="black" cx="258.8" cy="-90" rx="86.98" ry="18"/>
<text text-anchor="middle" x="258.8" y="-85.33" font-family="Times,serif" font-size="14.00">GetElementPtr</text>
</g>
<!-- 144_0_643&#45;&gt;144_0_642 -->
<g id="edge8" class="edge">
<title>144_0_643&#45;&gt;144_0_642</title>
<path fill="none" stroke="black" d="M204.68,-34.88C213.38,-43.58 224.35,-54.55 234.14,-64.34"/>
<polygon fill="black" stroke="black" points="231.39,-66.54 240.93,-71.13 236.34,-61.59 231.39,-66.54"/>
</g>
<!-- 144_0_640 -->
<g id="node6" class="node">
<title>144_0_640</title>
<ellipse fill="none" stroke="black" cx="118.8" cy="-162" rx="47.53" ry="18"/>
<text text-anchor="middle" x="118.8" y="-157.32" font-family="Times,serif" font-size="14.00">SIToFP</text>
</g>
<!-- 144_0_641&#45;&gt;144_0_640 -->
<g id="edge5" class="edge">
<title>144_0_641&#45;&gt;144_0_640</title>
<path fill="none" stroke="black" d="M118.8,-108.3C118.8,-115.59 118.8,-124.27 118.8,-132.46"/>
<polygon fill="black" stroke="black" points="115.3,-132.38 118.8,-142.38 122.3,-132.38 115.3,-132.38"/>
</g>
<!-- 144_0_638 -->
<g id="node4" class="node">
<title>144_0_638</title>
<ellipse fill="none" stroke="black" cx="118.8" cy="-306" rx="30.69" ry="18"/>
<text text-anchor="middle" x="118.8" y="-301.32" font-family="Times,serif" font-size="14.00">Sub</text>
</g>
<!-- 144_0_636 -->
<g id="node5" class="node">
<title>144_0_636</title>
<ellipse fill="none" stroke="black" cx="56.8" cy="-378" rx="53.31" ry="18"/>
<text text-anchor="middle" x="56.8" y="-373.32" font-family="Times,serif" font-size="14.00">PtrToInt</text>
</g>
<!-- 144_0_638&#45;&gt;144_0_636 -->
<g id="edge2" class="edge">
<title>144_0_638&#45;&gt;144_0_636</title>
<path fill="none" stroke="black" d="M105.04,-322.54C97.39,-331.17 87.69,-342.12 79,-351.94"/>
<polygon fill="black" stroke="black" points="76.4,-349.59 72.39,-359.4 81.64,-354.23 76.4,-349.59"/>
</g>
<!-- 144_0_637 -->
<g id="node8" class="node">
<title>144_0_637</title>
<ellipse fill="none" stroke="black" cx="181.8" cy="-378" rx="53.31" ry="18"/>
<text text-anchor="middle" x="181.8" y="-373.32" font-family="Times,serif" font-size="14.00">PtrToInt</text>
</g>
<!-- 144_0_638&#45;&gt;144_0_637 -->
<g id="edge4" class="edge">
<title>144_0_638&#45;&gt;144_0_637</title>
<path fill="none" stroke="black" d="M132.78,-322.54C140.63,-331.26 150.61,-342.35 159.51,-352.24"/>
<polygon fill="black" stroke="black" points="156.68,-354.32 165.97,-359.41 161.88,-349.63 156.68,-354.32"/>
</g>
<!-- 144_0_633 -->
<g id="node11" class="node">
<title>144_0_633</title>
<ellipse fill="none" stroke="black" cx="56.8" cy="-450" rx="35.42" ry="18"/>
<text text-anchor="middle" x="56.8" y="-445.32" font-family="Times,serif" font-size="14.00">Load</text>
</g>
<!-- 144_0_636&#45;&gt;144_0_633 -->
<g id="edge7" class="edge">
<title>144_0_636&#45;&gt;144_0_633</title>
<path fill="none" stroke="black" d="M56.8,-396.3C56.8,-403.59 56.8,-412.27 56.8,-420.46"/>
<polygon fill="black" stroke="black" points="53.3,-420.38 56.8,-430.38 60.3,-420.38 53.3,-420.38"/>
</g>
<!-- 144_0_639 -->
<g id="node7" class="node">
<title>144_0_639</title>
<ellipse fill="none" stroke="black" cx="118.8" cy="-234" rx="35.95" ry="18"/>
<text text-anchor="middle" x="118.8" y="-229.32" font-family="Times,serif" font-size="14.00">AShr</text>
</g>
<!-- 144_0_640&#45;&gt;144_0_639 -->
<g id="edge3" class="edge">
<title>144_0_640&#45;&gt;144_0_639</title>
<path fill="none" stroke="black" d="M118.8,-180.3C118.8,-187.59 118.8,-196.27 118.8,-204.46"/>
<polygon fill="black" stroke="black" points="115.3,-204.38 118.8,-214.38 122.3,-204.38 115.3,-204.38"/>
</g>
<!-- 144_0_639&#45;&gt;144_0_638 -->
<g id="edge9" class="edge">
<title>144_0_639&#45;&gt;144_0_638</title>
<path fill="none" stroke="black" d="M118.8,-252.3C118.8,-259.59 118.8,-268.27 118.8,-276.46"/>
<polygon fill="black" stroke="black" points="115.3,-276.38 118.8,-286.38 122.3,-276.38 115.3,-276.38"/>
</g>
<!-- 144_0_635 -->
<g id="node12" class="node">
<title>144_0_635</title>
<ellipse fill="none" stroke="black" cx="181.8" cy="-450" rx="35.42" ry="18"/>
<text text-anchor="middle" x="181.8" y="-445.32" font-family="Times,serif" font-size="14.00">Load</text>
</g>
<!-- 144_0_637&#45;&gt;144_0_635 -->
<g id="edge10" class="edge">
<title>144_0_637&#45;&gt;144_0_635</title>
<path fill="none" stroke="black" d="M181.8,-396.3C181.8,-403.59 181.8,-412.27 181.8,-420.46"/>
<polygon fill="black" stroke="black" points="178.3,-420.38 181.8,-430.38 185.3,-420.38 178.3,-420.38"/>
</g>
<!-- 144_0_606 -->
<g id="node10" class="node">
<title>144_0_606</title>
<ellipse fill="none" stroke="black" cx="258.8" cy="-162" rx="35.42" ry="18"/>
<text text-anchor="middle" x="258.8" y="-157.32" font-family="Times,serif" font-size="14.00">Load</text>
</g>
<!-- 144_0_642&#45;&gt;144_0_606 -->
<g id="edge6" class="edge">
<title>144_0_642&#45;&gt;144_0_606</title>
<path fill="none" stroke="black" d="M258.8,-108.3C258.8,-115.59 258.8,-124.27 258.8,-132.46"/>
<polygon fill="black" stroke="black" points="255.3,-132.38 258.8,-142.38 262.3,-132.38 255.3,-132.38"/>
</g>
</g>
</svg>
