<?xml version="1.0" encoding="UTF-8" standalone="no"?>
<!DOCTYPE svg PUBLIC "-//W3C//DTD SVG 1.1//EN"
 "http://www.w3.org/Graphics/SVG/1.1/DTD/svg11.dtd">
<!-- Generated by graphviz version 10.0.1 (20240210.2158)
 -->
<!-- Pages: 1 -->
<svg width="468pt" height="548pt"
 viewBox="0.00 0.00 467.74 548.00" xmlns="http://www.w3.org/2000/svg" xmlns:xlink="http://www.w3.org/1999/xlink">
<g id="page0,1_graph0" class="graph" transform="scale(1 1) rotate(0) translate(4 544)">
<polygon fill="white" stroke="none" points="-4,4 -4,-544 463.74,-544 463.74,4 -4,4"/>
<!-- 39_0 -->
<!-- 39_0_484 -->
<g id="node2" class="node">
<title>39_0_484</title>
<ellipse fill="none" stroke="black" cx="127.31" cy="-234" rx="35.95" ry="18"/>
<text text-anchor="middle" x="127.31" y="-229.32" font-family="Times,serif" font-size="14.00">AShr</text>
</g>
<!-- 39_0_483 -->
<g id="node3" class="node">
<title>39_0_483</title>
<ellipse fill="none" stroke="black" cx="127.31" cy="-306" rx="30.69" ry="18"/>
<text text-anchor="middle" x="127.31" y="-301.32" font-family="Times,serif" font-size="14.00">Sub</text>
</g>
<!-- 39_0_484&#45;&gt;39_0_483 -->
<g id="edge1" class="edge">
<title>39_0_484&#45;&gt;39_0_483</title>
<path fill="none" stroke="black" d="M127.31,-252.3C127.31,-259.59 127.31,-268.27 127.31,-276.46"/>
<polygon fill="black" stroke="black" points="123.81,-276.38 127.31,-286.38 130.81,-276.38 123.81,-276.38"/>
</g>
<!-- 39_0_481 -->
<g id="node6" class="node">
<title>39_0_481</title>
<ellipse fill="none" stroke="black" cx="53.31" cy="-450" rx="53.31" ry="18"/>
<text text-anchor="middle" x="53.31" y="-445.32" font-family="Times,serif" font-size="14.00">PtrToInt</text>
</g>
<!-- 39_0_483&#45;&gt;39_0_481 -->
<g id="edge10" class="edge">
<title>39_0_483&#45;&gt;39_0_481</title>
<path fill="none" stroke="black" d="M118.68,-323.57C106.05,-347.81 82.39,-393.2 67.27,-422.22"/>
<polygon fill="black" stroke="black" points="64.34,-420.27 62.82,-430.76 70.55,-423.51 64.34,-420.27"/>
</g>
<!-- 39_0_482 -->
<g id="node10" class="node">
<title>39_0_482</title>
<ellipse fill="none" stroke="black" cx="185.31" cy="-378" rx="53.31" ry="18"/>
<text text-anchor="middle" x="185.31" y="-373.32" font-family="Times,serif" font-size="14.00">PtrToInt</text>
</g>
<!-- 39_0_483&#45;&gt;39_0_482 -->
<g id="edge6" class="edge">
<title>39_0_483&#45;&gt;39_0_482</title>
<path fill="none" stroke="black" d="M140.18,-322.54C147.34,-331.17 156.41,-342.12 164.55,-351.94"/>
<polygon fill="black" stroke="black" points="161.63,-353.9 170.7,-359.37 167.02,-349.43 161.63,-353.9"/>
</g>
<!-- 39_0_474 -->
<g id="node4" class="node">
<title>39_0_474</title>
<ellipse fill="none" stroke="black" cx="340.31" cy="-162" rx="30.69" ry="18"/>
<text text-anchor="middle" x="340.31" y="-157.32" font-family="Times,serif" font-size="14.00">Add</text>
</g>
<!-- 39_0_451 -->
<g id="node5" class="node">
<title>39_0_451</title>
<ellipse fill="none" stroke="black" cx="340.31" cy="-234" rx="35.42" ry="18"/>
<text text-anchor="middle" x="340.31" y="-229.32" font-family="Times,serif" font-size="14.00">SExt</text>
</g>
<!-- 39_0_474&#45;&gt;39_0_451 -->
<g id="edge2" class="edge">
<title>39_0_474&#45;&gt;39_0_451</title>
<path fill="none" stroke="black" d="M340.31,-180.3C340.31,-187.59 340.31,-196.27 340.31,-204.46"/>
<polygon fill="black" stroke="black" points="336.81,-204.38 340.31,-214.38 343.81,-204.38 336.81,-204.38"/>
</g>
<!-- 39_0_444 -->
<g id="node14" class="node">
<title>39_0_444</title>
<ellipse fill="none" stroke="black" cx="340.31" cy="-306" rx="35.42" ry="18"/>
<text text-anchor="middle" x="340.31" y="-301.32" font-family="Times,serif" font-size="14.00">Load</text>
</g>
<!-- 39_0_451&#45;&gt;39_0_444 -->
<g id="edge11" class="edge">
<title>39_0_451&#45;&gt;39_0_444</title>
<path fill="none" stroke="black" d="M340.31,-252.3C340.31,-259.59 340.31,-268.27 340.31,-276.46"/>
<polygon fill="black" stroke="black" points="336.81,-276.38 340.31,-286.38 343.81,-276.38 336.81,-276.38"/>
</g>
<!-- 39_0_479 -->
<g id="node7" class="node">
<title>39_0_479</title>
<ellipse fill="none" stroke="black" cx="128.31" cy="-522" rx="35.42" ry="18"/>
<text text-anchor="middle" x="128.31" y="-517.33" font-family="Times,serif" font-size="14.00">Load</text>
</g>
<!-- 39_0_481&#45;&gt;39_0_479 -->
<g id="edge3" class="edge">
<title>39_0_481&#45;&gt;39_0_479</title>
<path fill="none" stroke="black" d="M70.71,-467.24C80.54,-476.41 92.99,-488.04 103.8,-498.12"/>
<polygon fill="black" stroke="black" points="101.23,-500.51 110.93,-504.78 106.01,-495.4 101.23,-500.51"/>
</g>
<!-- 39_0_486 -->
<g id="node8" class="node">
<title>39_0_486</title>
<ellipse fill="none" stroke="black" cx="214.31" cy="-90" rx="34.9" ry="18"/>
<text text-anchor="middle" x="214.31" y="-85.33" font-family="Times,serif" font-size="14.00">FDiv</text>
</g>
<!-- 39_0_485 -->
<g id="node9" class="node">
<title>39_0_485</title>
<ellipse fill="none" stroke="black" cx="127.31" cy="-162" rx="47.53" ry="18"/>
<text text-anchor="middle" x="127.31" y="-157.32" font-family="Times,serif" font-size="14.00">SIToFP</text>
</g>
<!-- 39_0_486&#45;&gt;39_0_485 -->
<g id="edge4" class="edge">
<title>39_0_486&#45;&gt;39_0_485</title>
<path fill="none" stroke="black" d="M196.29,-105.5C184.56,-114.94 169.02,-127.44 155.66,-138.19"/>
<polygon fill="black" stroke="black" points="153.6,-135.35 148.01,-144.35 157.99,-140.81 153.6,-135.35"/>
</g>
<!-- 39_0_476 -->
<g id="node15" class="node">
<title>39_0_476</title>
<ellipse fill="none" stroke="black" cx="228.31" cy="-162" rx="35.42" ry="18"/>
<text text-anchor="middle" x="228.31" y="-157.32" font-family="Times,serif" font-size="14.00">Load</text>
</g>
<!-- 39_0_486&#45;&gt;39_0_476 -->
<g id="edge12" class="edge">
<title>39_0_486&#45;&gt;39_0_476</title>
<path fill="none" stroke="black" d="M217.77,-108.3C219.25,-115.68 221.01,-124.48 222.66,-132.75"/>
<polygon fill="black" stroke="black" points="219.2,-133.29 224.59,-142.41 226.07,-131.92 219.2,-133.29"/>
</g>
<!-- 39_0_485&#45;&gt;39_0_484 -->
<g id="edge14" class="edge">
<title>39_0_485&#45;&gt;39_0_484</title>
<path fill="none" stroke="black" d="M127.31,-180.3C127.31,-187.59 127.31,-196.27 127.31,-204.46"/>
<polygon fill="black" stroke="black" points="123.81,-204.38 127.31,-214.38 130.81,-204.38 123.81,-204.38"/>
</g>
<!-- 39_0_480 -->
<g id="node11" class="node">
<title>39_0_480</title>
<ellipse fill="none" stroke="black" cx="203.31" cy="-450" rx="79.09" ry="18"/>
<text text-anchor="middle" x="203.31" y="-445.32" font-family="Times,serif" font-size="14.00">ShuffleVector</text>
</g>
<!-- 39_0_482&#45;&gt;39_0_480 -->
<g id="edge5" class="edge">
<title>39_0_482&#45;&gt;39_0_480</title>
<path fill="none" stroke="black" d="M189.76,-396.3C191.66,-403.68 193.92,-412.48 196.05,-420.75"/>
<polygon fill="black" stroke="black" points="192.66,-421.62 198.54,-430.43 199.44,-419.87 192.66,-421.62"/>
</g>
<!-- 39_0_480&#45;&gt;39_0_479 -->
<g id="edge7" class="edge">
<title>39_0_480&#45;&gt;39_0_479</title>
<path fill="none" stroke="black" d="M185.16,-467.95C175.54,-476.92 163.58,-488.08 153.12,-497.85"/>
<polygon fill="black" stroke="black" points="150.79,-495.23 145.87,-504.61 155.57,-500.35 150.79,-495.23"/>
</g>
<!-- 39_0_487 -->
<g id="node12" class="node">
<title>39_0_487</title>
<ellipse fill="none" stroke="black" cx="354.31" cy="-90" rx="86.98" ry="18"/>
<text text-anchor="middle" x="354.31" y="-85.33" font-family="Times,serif" font-size="14.00">GetElementPtr</text>
</g>
<!-- 39_0_487&#45;&gt;39_0_474 -->
<g id="edge8" class="edge">
<title>39_0_487&#45;&gt;39_0_474</title>
<path fill="none" stroke="black" d="M350.85,-108.3C349.38,-115.68 347.62,-124.48 345.96,-132.75"/>
<polygon fill="black" stroke="black" points="342.56,-131.92 344.03,-142.41 349.42,-133.29 342.56,-131.92"/>
</g>
<!-- 39_0_450 -->
<g id="node13" class="node">
<title>39_0_450</title>
<ellipse fill="none" stroke="black" cx="424.31" cy="-162" rx="35.42" ry="18"/>
<text text-anchor="middle" x="424.31" y="-157.32" font-family="Times,serif" font-size="14.00">Load</text>
</g>
<!-- 39_0_487&#45;&gt;39_0_450 -->
<g id="edge9" class="edge">
<title>39_0_487&#45;&gt;39_0_450</title>
<path fill="none" stroke="black" d="M371.26,-107.95C380.15,-116.83 391.17,-127.86 400.87,-137.55"/>
<polygon fill="black" stroke="black" points="398.34,-139.98 407.89,-144.57 403.29,-135.03 398.34,-139.98"/>
</g>
<!-- 39_0_488 -->
<g id="node16" class="node">
<title>39_0_488</title>
<ellipse fill="none" stroke="black" cx="284.31" cy="-18" rx="38.58" ry="18"/>
<text text-anchor="middle" x="284.31" y="-13.32" font-family="Times,serif" font-size="14.00">Store</text>
</g>
<!-- 39_0_488&#45;&gt;39_0_486 -->
<g id="edge13" class="edge">
<title>39_0_488&#45;&gt;39_0_486</title>
<path fill="none" stroke="black" d="M268.43,-34.88C259.35,-43.96 247.8,-55.51 237.71,-65.61"/>
<polygon fill="black" stroke="black" points="235.32,-63.04 230.72,-72.59 240.27,-67.99 235.32,-63.04"/>
</g>
<!-- 39_0_488&#45;&gt;39_0_487 -->
<g id="edge15" class="edge">
<title>39_0_488&#45;&gt;39_0_487</title>
<path fill="none" stroke="black" d="M300.2,-34.88C308.89,-43.58 319.86,-54.55 329.65,-64.34"/>
<polygon fill="black" stroke="black" points="326.9,-66.54 336.44,-71.13 331.85,-61.59 326.9,-66.54"/>
</g>
</g>
</svg>
