<?xml version="1.0" encoding="UTF-8" standalone="no"?>
<!DOCTYPE svg PUBLIC "-//W3C//DTD SVG 1.1//EN"
 "http://www.w3.org/Graphics/SVG/1.1/DTD/svg11.dtd">
<!-- Generated by graphviz version 10.0.1 (20240210.2158)
 -->
<!-- Pages: 1 -->
<svg width="196pt" height="476pt"
 viewBox="0.00 0.00 195.78 476.00" xmlns="http://www.w3.org/2000/svg" xmlns:xlink="http://www.w3.org/1999/xlink">
<g id="page0,1_graph0" class="graph" transform="scale(1 1) rotate(0) translate(4 472)">
<polygon fill="white" stroke="none" points="-4,4 -4,-472 191.78,-472 191.78,4 -4,4"/>
<!-- 42_1 -->
<!-- 42_1_1408 -->
<g id="node2" class="node">
<title>42_1_1408</title>
<ellipse fill="none" stroke="black" cx="100.8" cy="-18" rx="35.42" ry="18"/>
<text text-anchor="middle" x="100.8" y="-13.32" font-family="Times,serif" font-size="14.00">Load</text>
</g>
<!-- 42_1_1407 -->
<g id="node3" class="node">
<title>42_1_1407</title>
<ellipse fill="none" stroke="black" cx="100.8" cy="-90" rx="86.98" ry="18"/>
<text text-anchor="middle" x="100.8" y="-85.33" font-family="Times,serif" font-size="14.00">GetElementPtr</text>
</g>
<!-- 42_1_1408&#45;&gt;42_1_1407 -->
<g id="edge1" class="edge">
<title>42_1_1408&#45;&gt;42_1_1407</title>
<path fill="none" stroke="black" d="M100.8,-36.3C100.8,-43.59 100.8,-52.27 100.8,-60.46"/>
<polygon fill="black" stroke="black" points="97.3,-60.38 100.8,-70.38 104.3,-60.38 97.3,-60.38"/>
</g>
<!-- 42_1_1406 -->
<g id="node4" class="node">
<title>42_1_1406</title>
<ellipse fill="none" stroke="black" cx="56.8" cy="-162" rx="35.42" ry="18"/>
<text text-anchor="middle" x="56.8" y="-157.32" font-family="Times,serif" font-size="14.00">LShr</text>
</g>
<!-- 42_1_1407&#45;&gt;42_1_1406 -->
<g id="edge6" class="edge">
<title>42_1_1407&#45;&gt;42_1_1406</title>
<path fill="none" stroke="black" d="M89.92,-108.3C84.89,-116.3 78.81,-125.98 73.24,-134.85"/>
<polygon fill="black" stroke="black" points="70.41,-132.77 68.05,-143.1 76.34,-136.49 70.41,-132.77"/>
</g>
<!-- 42_1_1371 -->
<g id="node6" class="node">
<title>42_1_1371</title>
<ellipse fill="none" stroke="black" cx="145.8" cy="-162" rx="35.42" ry="18"/>
<text text-anchor="middle" x="145.8" y="-157.32" font-family="Times,serif" font-size="14.00">Load</text>
</g>
<!-- 42_1_1407&#45;&gt;42_1_1371 -->
<g id="edge3" class="edge">
<title>42_1_1407&#45;&gt;42_1_1371</title>
<path fill="none" stroke="black" d="M111.92,-108.3C117.07,-116.3 123.29,-125.98 128.99,-134.85"/>
<polygon fill="black" stroke="black" points="125.94,-136.59 134.3,-143.1 131.83,-132.8 125.94,-136.59"/>
</g>
<!-- 42_1_1405 -->
<g id="node5" class="node">
<title>42_1_1405</title>
<ellipse fill="none" stroke="black" cx="56.8" cy="-234" rx="35.95" ry="18"/>
<text text-anchor="middle" x="56.8" y="-229.32" font-family="Times,serif" font-size="14.00">AShr</text>
</g>
<!-- 42_1_1406&#45;&gt;42_1_1405 -->
<g id="edge2" class="edge">
<title>42_1_1406&#45;&gt;42_1_1405</title>
<path fill="none" stroke="black" d="M56.8,-180.3C56.8,-187.59 56.8,-196.27 56.8,-204.46"/>
<polygon fill="black" stroke="black" points="53.3,-204.38 56.8,-214.38 60.3,-204.38 53.3,-204.38"/>
</g>
<!-- 42_1_1404 -->
<g id="node9" class="node">
<title>42_1_1404</title>
<ellipse fill="none" stroke="black" cx="56.8" cy="-306" rx="30.69" ry="18"/>
<text text-anchor="middle" x="56.8" y="-301.32" font-family="Times,serif" font-size="14.00">Sub</text>
</g>
<!-- 42_1_1405&#45;&gt;42_1_1404 -->
<g id="edge7" class="edge">
<title>42_1_1405&#45;&gt;42_1_1404</title>
<path fill="none" stroke="black" d="M56.8,-252.3C56.8,-259.59 56.8,-268.27 56.8,-276.46"/>
<polygon fill="black" stroke="black" points="53.3,-276.38 56.8,-286.38 60.3,-276.38 53.3,-276.38"/>
</g>
<!-- 42_1_1370 -->
<g id="node7" class="node">
<title>42_1_1370</title>
<ellipse fill="none" stroke="black" cx="56.8" cy="-378" rx="53.31" ry="18"/>
<text text-anchor="middle" x="56.8" y="-373.32" font-family="Times,serif" font-size="14.00">PtrToInt</text>
</g>
<!-- 42_1_1369 -->
<g id="node8" class="node">
<title>42_1_1369</title>
<ellipse fill="none" stroke="black" cx="56.8" cy="-450" rx="35.42" ry="18"/>
<text text-anchor="middle" x="56.8" y="-445.32" font-family="Times,serif" font-size="14.00">Load</text>
</g>
<!-- 42_1_1370&#45;&gt;42_1_1369 -->
<g id="edge4" class="edge">
<title>42_1_1370&#45;&gt;42_1_1369</title>
<path fill="none" stroke="black" d="M56.8,-396.3C56.8,-403.59 56.8,-412.27 56.8,-420.46"/>
<polygon fill="black" stroke="black" points="53.3,-420.38 56.8,-430.38 60.3,-420.38 53.3,-420.38"/>
</g>
<!-- 42_1_1404&#45;&gt;42_1_1370 -->
<g id="edge5" class="edge">
<title>42_1_1404&#45;&gt;42_1_1370</title>
<path fill="none" stroke="black" d="M56.8,-324.3C56.8,-331.59 56.8,-340.27 56.8,-348.46"/>
<polygon fill="black" stroke="black" points="53.3,-348.38 56.8,-358.38 60.3,-348.38 53.3,-348.38"/>
</g>
</g>
</svg>
