<?xml version="1.0" encoding="UTF-8" standalone="no"?>
<!DOCTYPE svg PUBLIC "-//W3C//DTD SVG 1.1//EN"
 "http://www.w3.org/Graphics/SVG/1.1/DTD/svg11.dtd">
<!-- Generated by graphviz version 10.0.1 (20240210.2158)
 -->
<!-- Pages: 1 -->
<svg width="270pt" height="404pt"
 viewBox="0.00 0.00 270.41 404.00" xmlns="http://www.w3.org/2000/svg" xmlns:xlink="http://www.w3.org/1999/xlink">
<g id="page0,1_graph0" class="graph" transform="scale(1 1) rotate(0) translate(4 400)">
<polygon fill="white" stroke="none" points="-4,4 -4,-400 266.41,-400 266.41,4 -4,4"/>
<!-- 145_0 -->
<!-- 145_0_5193 -->
<g id="node2" class="node">
<title>145_0_5193</title>
<ellipse fill="none" stroke="black" cx="86.98" cy="-162" rx="35.95" ry="18"/>
<text text-anchor="middle" x="86.98" y="-157.32" font-family="Times,serif" font-size="14.00">AShr</text>
</g>
<!-- 145_0_5192 -->
<g id="node3" class="node">
<title>145_0_5192</title>
<ellipse fill="none" stroke="black" cx="86.98" cy="-234" rx="30.69" ry="18"/>
<text text-anchor="middle" x="86.98" y="-229.32" font-family="Times,serif" font-size="14.00">Sub</text>
</g>
<!-- 145_0_5193&#45;&gt;145_0_5192 -->
<g id="edge1" class="edge">
<title>145_0_5193&#45;&gt;145_0_5192</title>
<path fill="none" stroke="black" d="M86.98,-180.3C86.98,-187.59 86.98,-196.27 86.98,-204.46"/>
<polygon fill="black" stroke="black" points="83.48,-204.38 86.98,-214.38 90.48,-204.38 83.48,-204.38"/>
</g>
<!-- 145_0_5178 -->
<g id="node6" class="node">
<title>145_0_5178</title>
<ellipse fill="none" stroke="black" cx="86.98" cy="-306" rx="53.31" ry="18"/>
<text text-anchor="middle" x="86.98" y="-301.32" font-family="Times,serif" font-size="14.00">PtrToInt</text>
</g>
<!-- 145_0_5192&#45;&gt;145_0_5178 -->
<g id="edge4" class="edge">
<title>145_0_5192&#45;&gt;145_0_5178</title>
<path fill="none" stroke="black" d="M86.98,-252.3C86.98,-259.59 86.98,-268.27 86.98,-276.46"/>
<polygon fill="black" stroke="black" points="83.48,-276.38 86.98,-286.38 90.48,-276.38 83.48,-276.38"/>
</g>
<!-- 145_0_5214 -->
<g id="node4" class="node">
<title>145_0_5214</title>
<ellipse fill="none" stroke="black" cx="156.98" cy="-18" rx="38.58" ry="18"/>
<text text-anchor="middle" x="156.98" y="-13.32" font-family="Times,serif" font-size="14.00">Store</text>
</g>
<!-- 145_0_5200 -->
<g id="node5" class="node">
<title>145_0_5200</title>
<ellipse fill="none" stroke="black" cx="86.98" cy="-90" rx="86.98" ry="18"/>
<text text-anchor="middle" x="86.98" y="-85.33" font-family="Times,serif" font-size="14.00">GetElementPtr</text>
</g>
<!-- 145_0_5214&#45;&gt;145_0_5200 -->
<g id="edge2" class="edge">
<title>145_0_5214&#45;&gt;145_0_5200</title>
<path fill="none" stroke="black" d="M141.1,-34.88C132.4,-43.58 121.43,-54.55 111.65,-64.34"/>
<polygon fill="black" stroke="black" points="109.45,-61.59 104.85,-71.13 114.4,-66.54 109.45,-61.59"/>
</g>
<!-- 145_0_5203 -->
<g id="node8" class="node">
<title>145_0_5203</title>
<ellipse fill="none" stroke="black" cx="226.98" cy="-90" rx="35.42" ry="18"/>
<text text-anchor="middle" x="226.98" y="-85.33" font-family="Times,serif" font-size="14.00">Load</text>
</g>
<!-- 145_0_5214&#45;&gt;145_0_5203 -->
<g id="edge6" class="edge">
<title>145_0_5214&#45;&gt;145_0_5203</title>
<path fill="none" stroke="black" d="M172.87,-34.88C181.94,-43.96 193.49,-55.51 203.59,-65.61"/>
<polygon fill="black" stroke="black" points="201.03,-67.99 210.57,-72.59 205.98,-63.04 201.03,-67.99"/>
</g>
<!-- 145_0_5200&#45;&gt;145_0_5193 -->
<g id="edge5" class="edge">
<title>145_0_5200&#45;&gt;145_0_5193</title>
<path fill="none" stroke="black" d="M86.98,-108.3C86.98,-115.59 86.98,-124.27 86.98,-132.46"/>
<polygon fill="black" stroke="black" points="83.48,-132.38 86.98,-142.38 90.48,-132.38 83.48,-132.38"/>
</g>
<!-- 145_0_5176 -->
<g id="node7" class="node">
<title>145_0_5176</title>
<ellipse fill="none" stroke="black" cx="86.98" cy="-378" rx="35.42" ry="18"/>
<text text-anchor="middle" x="86.98" y="-373.32" font-family="Times,serif" font-size="14.00">Load</text>
</g>
<!-- 145_0_5178&#45;&gt;145_0_5176 -->
<g id="edge3" class="edge">
<title>145_0_5178&#45;&gt;145_0_5176</title>
<path fill="none" stroke="black" d="M86.98,-324.3C86.98,-331.59 86.98,-340.27 86.98,-348.46"/>
<polygon fill="black" stroke="black" points="83.48,-348.38 86.98,-358.38 90.48,-348.38 83.48,-348.38"/>
</g>
</g>
</svg>
