<?xml version="1.0" encoding="UTF-8" standalone="no"?>
<!DOCTYPE svg PUBLIC "-//W3C//DTD SVG 1.1//EN"
 "http://www.w3.org/Graphics/SVG/1.1/DTD/svg11.dtd">
<!-- Generated by graphviz version 10.0.1 (20240210.2158)
 -->
<!-- Pages: 1 -->
<svg width="291pt" height="548pt"
 viewBox="0.00 0.00 291.30 548.00" xmlns="http://www.w3.org/2000/svg" xmlns:xlink="http://www.w3.org/1999/xlink">
<g id="page0,1_graph0" class="graph" transform="scale(1 1) rotate(0) translate(4 544)">
<polygon fill="white" stroke="none" points="-4,4 -4,-544 287.3,-544 287.3,4 -4,4"/>
<!-- 147_0 -->
<!-- 147_0_837 -->
<g id="node2" class="node">
<title>147_0_837</title>
<ellipse fill="none" stroke="black" cx="53.31" cy="-450" rx="53.31" ry="18"/>
<text text-anchor="middle" x="53.31" y="-445.32" font-family="Times,serif" font-size="14.00">PtrToInt</text>
</g>
<!-- 147_0_836 -->
<g id="node3" class="node">
<title>147_0_836</title>
<ellipse fill="none" stroke="black" cx="94.31" cy="-522" rx="35.42" ry="18"/>
<text text-anchor="middle" x="94.31" y="-517.33" font-family="Times,serif" font-size="14.00">Load</text>
</g>
<!-- 147_0_837&#45;&gt;147_0_836 -->
<g id="edge1" class="edge">
<title>147_0_837&#45;&gt;147_0_836</title>
<path fill="none" stroke="black" d="M63.24,-467.95C67.87,-475.86 73.5,-485.46 78.68,-494.31"/>
<polygon fill="black" stroke="black" points="75.64,-496.05 83.71,-502.9 81.68,-492.51 75.64,-496.05"/>
</g>
<!-- 147_0_843 -->
<g id="node4" class="node">
<title>147_0_843</title>
<ellipse fill="none" stroke="black" cx="43.31" cy="-162" rx="30.69" ry="18"/>
<text text-anchor="middle" x="43.31" y="-157.32" font-family="Times,serif" font-size="14.00">Sub</text>
</g>
<!-- 147_0_842 -->
<g id="node5" class="node">
<title>147_0_842</title>
<ellipse fill="none" stroke="black" cx="40.31" cy="-234" rx="40.16" ry="18"/>
<text text-anchor="middle" x="40.31" y="-229.32" font-family="Times,serif" font-size="14.00">Trunc</text>
</g>
<!-- 147_0_843&#45;&gt;147_0_842 -->
<g id="edge2" class="edge">
<title>147_0_843&#45;&gt;147_0_842</title>
<path fill="none" stroke="black" d="M42.57,-180.3C42.26,-187.59 41.89,-196.27 41.54,-204.46"/>
<polygon fill="black" stroke="black" points="38.04,-204.24 41.11,-214.38 45.04,-204.54 38.04,-204.24"/>
</g>
<!-- 147_0_840 -->
<g id="node8" class="node">
<title>147_0_840</title>
<ellipse fill="none" stroke="black" cx="47.31" cy="-306" rx="35.42" ry="18"/>
<text text-anchor="middle" x="47.31" y="-301.32" font-family="Times,serif" font-size="14.00">LShr</text>
</g>
<!-- 147_0_842&#45;&gt;147_0_840 -->
<g id="edge5" class="edge">
<title>147_0_842&#45;&gt;147_0_840</title>
<path fill="none" stroke="black" d="M42.04,-252.3C42.77,-259.59 43.64,-268.27 44.46,-276.46"/>
<polygon fill="black" stroke="black" points="40.97,-276.79 45.45,-286.39 47.94,-276.09 40.97,-276.79"/>
</g>
<!-- 147_0_844 -->
<g id="node6" class="node">
<title>147_0_844</title>
<ellipse fill="none" stroke="black" cx="49.31" cy="-90" rx="42.26" ry="18"/>
<text text-anchor="middle" x="49.31" y="-85.33" font-family="Times,serif" font-size="14.00">Select</text>
</g>
<!-- 147_0_844&#45;&gt;147_0_843 -->
<g id="edge6" class="edge">
<title>147_0_844&#45;&gt;147_0_843</title>
<path fill="none" stroke="black" d="M47.83,-108.3C47.2,-115.59 46.46,-124.27 45.76,-132.46"/>
<polygon fill="black" stroke="black" points="42.27,-132.13 44.91,-142.39 49.25,-132.72 42.27,-132.13"/>
</g>
<!-- 147_0_841 -->
<g id="node7" class="node">
<title>147_0_841</title>
<ellipse fill="none" stroke="black" cx="136.31" cy="-234" rx="38.06" ry="18"/>
<text text-anchor="middle" x="136.31" y="-229.32" font-family="Times,serif" font-size="14.00">ICmp</text>
</g>
<!-- 147_0_844&#45;&gt;147_0_841 -->
<g id="edge3" class="edge">
<title>147_0_844&#45;&gt;147_0_841</title>
<path fill="none" stroke="black" d="M60.17,-107.62C66.92,-118.02 75.72,-131.73 83.31,-144 96.2,-164.84 110.38,-188.71 120.83,-206.48"/>
<polygon fill="black" stroke="black" points="117.67,-208.01 125.75,-214.86 123.71,-204.47 117.67,-208.01"/>
</g>
<!-- 147_0_841&#45;&gt;147_0_836 -->
<g id="edge9" class="edge">
<title>147_0_841&#45;&gt;147_0_836</title>
<path fill="none" stroke="black" d="M136.44,-252.23C136.36,-291.21 134.11,-388.97 115.31,-468 113.27,-476.61 110.09,-485.66 106.82,-493.81"/>
<polygon fill="black" stroke="black" points="103.68,-492.25 102.99,-502.82 110.12,-494.99 103.68,-492.25"/>
</g>
<!-- 147_0_839 -->
<g id="node9" class="node">
<title>147_0_839</title>
<ellipse fill="none" stroke="black" cx="51.31" cy="-378" rx="30.69" ry="18"/>
<text text-anchor="middle" x="51.31" y="-373.32" font-family="Times,serif" font-size="14.00">Sub</text>
</g>
<!-- 147_0_840&#45;&gt;147_0_839 -->
<g id="edge4" class="edge">
<title>147_0_840&#45;&gt;147_0_839</title>
<path fill="none" stroke="black" d="M48.3,-324.3C48.72,-331.59 49.21,-340.27 49.68,-348.46"/>
<polygon fill="black" stroke="black" points="46.18,-348.6 50.25,-358.38 53.17,-348.2 46.18,-348.6"/>
</g>
<!-- 147_0_839&#45;&gt;147_0_837 -->
<g id="edge11" class="edge">
<title>147_0_839&#45;&gt;147_0_837</title>
<path fill="none" stroke="black" d="M51.81,-396.3C52.02,-403.59 52.26,-412.27 52.5,-420.46"/>
<polygon fill="black" stroke="black" points="49,-420.49 52.78,-430.38 55.99,-420.29 49,-420.49"/>
</g>
<!-- 147_0_845 -->
<g id="node10" class="node">
<title>147_0_845</title>
<ellipse fill="none" stroke="black" cx="196.31" cy="-90" rx="86.98" ry="18"/>
<text text-anchor="middle" x="196.31" y="-85.33" font-family="Times,serif" font-size="14.00">GetElementPtr</text>
</g>
<!-- 147_0_827 -->
<g id="node11" class="node">
<title>147_0_827</title>
<ellipse fill="none" stroke="black" cx="196.31" cy="-162" rx="35.42" ry="18"/>
<text text-anchor="middle" x="196.31" y="-157.32" font-family="Times,serif" font-size="14.00">Load</text>
</g>
<!-- 147_0_845&#45;&gt;147_0_827 -->
<g id="edge7" class="edge">
<title>147_0_845&#45;&gt;147_0_827</title>
<path fill="none" stroke="black" d="M196.31,-108.3C196.31,-115.59 196.31,-124.27 196.31,-132.46"/>
<polygon fill="black" stroke="black" points="192.81,-132.38 196.31,-142.38 199.81,-132.38 192.81,-132.38"/>
</g>
<!-- 147_0_846 -->
<g id="node12" class="node">
<title>147_0_846</title>
<ellipse fill="none" stroke="black" cx="122.31" cy="-18" rx="38.58" ry="18"/>
<text text-anchor="middle" x="122.31" y="-13.32" font-family="Times,serif" font-size="14.00">Store</text>
</g>
<!-- 147_0_846&#45;&gt;147_0_844 -->
<g id="edge10" class="edge">
<title>147_0_846&#45;&gt;147_0_844</title>
<path fill="none" stroke="black" d="M106.11,-34.54C96.7,-43.56 84.64,-55.12 74.06,-65.27"/>
<polygon fill="black" stroke="black" points="71.86,-62.53 67.07,-71.98 76.71,-67.58 71.86,-62.53"/>
</g>
<!-- 147_0_846&#45;&gt;147_0_845 -->
<g id="edge8" class="edge">
<title>147_0_846&#45;&gt;147_0_845</title>
<path fill="none" stroke="black" d="M138.74,-34.54C148.01,-43.31 159.81,-54.47 170.31,-64.4"/>
<polygon fill="black" stroke="black" points="167.61,-66.67 177.28,-71 172.42,-61.58 167.61,-66.67"/>
</g>
</g>
</svg>
