<?xml version="1.0" encoding="UTF-8" standalone="no"?>
<!DOCTYPE svg PUBLIC "-//W3C//DTD SVG 1.1//EN"
 "http://www.w3.org/Graphics/SVG/1.1/DTD/svg11.dtd">
<!-- Generated by graphviz version 10.0.1 (20240210.2158)
 -->
<!-- Pages: 1 -->
<svg width="284pt" height="188pt"
 viewBox="0.00 0.00 284.22 188.00" xmlns="http://www.w3.org/2000/svg" xmlns:xlink="http://www.w3.org/1999/xlink">
<g id="page0,1_graph0" class="graph" transform="scale(1 1) rotate(0) translate(4 184)">
<polygon fill="white" stroke="none" points="-4,4 -4,-184 280.22,-184 280.22,4 -4,4"/>
<!-- 49_0 -->
<!-- 49_0_7210 -->
<g id="node2" class="node">
<title>49_0_7210</title>
<ellipse fill="none" stroke="black" cx="100.8" cy="-90" rx="86.98" ry="18"/>
<text text-anchor="middle" x="100.8" y="-85.33" font-family="Times,serif" font-size="14.00">GetElementPtr</text>
</g>
<!-- 49_0_7184 -->
<g id="node3" class="node">
<title>49_0_7184</title>
<ellipse fill="none" stroke="black" cx="56.8" cy="-162" rx="35.42" ry="18"/>
<text text-anchor="middle" x="56.8" y="-157.32" font-family="Times,serif" font-size="14.00">Load</text>
</g>
<!-- 49_0_7210&#45;&gt;49_0_7184 -->
<g id="edge1" class="edge">
<title>49_0_7210&#45;&gt;49_0_7184</title>
<path fill="none" stroke="black" d="M89.92,-108.3C84.89,-116.3 78.81,-125.98 73.24,-134.85"/>
<polygon fill="black" stroke="black" points="70.41,-132.77 68.05,-143.1 76.34,-136.49 70.41,-132.77"/>
</g>
<!-- 49_0_7207 -->
<g id="node5" class="node">
<title>49_0_7207</title>
<ellipse fill="none" stroke="black" cx="145.8" cy="-162" rx="35.42" ry="18"/>
<text text-anchor="middle" x="145.8" y="-157.32" font-family="Times,serif" font-size="14.00">Load</text>
</g>
<!-- 49_0_7210&#45;&gt;49_0_7207 -->
<g id="edge3" class="edge">
<title>49_0_7210&#45;&gt;49_0_7207</title>
<path fill="none" stroke="black" d="M111.92,-108.3C117.07,-116.3 123.29,-125.98 128.99,-134.85"/>
<polygon fill="black" stroke="black" points="125.94,-136.59 134.3,-143.1 131.83,-132.8 125.94,-136.59"/>
</g>
<!-- 49_0_7211 -->
<g id="node4" class="node">
<title>49_0_7211</title>
<ellipse fill="none" stroke="black" cx="170.8" cy="-18" rx="38.58" ry="18"/>
<text text-anchor="middle" x="170.8" y="-13.32" font-family="Times,serif" font-size="14.00">Store</text>
</g>
<!-- 49_0_7211&#45;&gt;49_0_7210 -->
<g id="edge2" class="edge">
<title>49_0_7211&#45;&gt;49_0_7210</title>
<path fill="none" stroke="black" d="M154.92,-34.88C146.22,-43.58 135.25,-54.55 125.46,-64.34"/>
<polygon fill="black" stroke="black" points="123.26,-61.59 118.67,-71.13 128.21,-66.54 123.26,-61.59"/>
</g>
<!-- 49_0_7203 -->
<g id="node6" class="node">
<title>49_0_7203</title>
<ellipse fill="none" stroke="black" cx="240.8" cy="-90" rx="35.42" ry="18"/>
<text text-anchor="middle" x="240.8" y="-85.33" font-family="Times,serif" font-size="14.00">Load</text>
</g>
<!-- 49_0_7211&#45;&gt;49_0_7203 -->
<g id="edge4" class="edge">
<title>49_0_7211&#45;&gt;49_0_7203</title>
<path fill="none" stroke="black" d="M186.68,-34.88C195.76,-43.96 207.31,-55.51 217.41,-65.61"/>
<polygon fill="black" stroke="black" points="214.84,-67.99 224.39,-72.59 219.79,-63.04 214.84,-67.99"/>
</g>
</g>
</svg>
