<?xml version="1.0" encoding="UTF-8" standalone="no"?>
<!DOCTYPE svg PUBLIC "-//W3C//DTD SVG 1.1//EN"
 "http://www.w3.org/Graphics/SVG/1.1/DTD/svg11.dtd">
<!-- Generated by graphviz version 10.0.1 (20240210.2158)
 -->
<!-- Pages: 1 -->
<svg width="403pt" height="220pt"
 viewBox="0.00 0.00 403.00 220.00" xmlns="http://www.w3.org/2000/svg" xmlns:xlink="http://www.w3.org/1999/xlink">
<g id="graph0" class="graph" transform="scale(1 1) rotate(0) translate(4 216)">
<polygon fill="white" stroke="none" points="-4,4 -4,-216 399,-216 399,4 -4,4"/>
<g id="clust1" class="cluster">
<title>cluster_pre_split</title>
<polygon fill="none" stroke="black" points="8,-8 8,-204 183,-204 183,-8 8,-8"/>
</g>
<g id="clust2" class="cluster">
<title>cluster_split_a</title>
<polygon fill="none" stroke="black" points="191,-80 191,-204 285,-204 285,-80 191,-80"/>
</g>
<g id="clust3" class="cluster">
<title>cluster_split_b</title>
<polygon fill="none" stroke="black" points="293,-80 293,-204 387,-204 387,-80 293,-80"/>
</g>
<!-- L1 -->
<g id="node1" class="node">
<title>L1</title>
<ellipse fill="none" stroke="black" cx="51" cy="-178" rx="35.42" ry="18"/>
<text text-anchor="middle" x="51" y="-173.32" font-family="Times,serif" font-size="14.00">Load</text>
</g>
<!-- L2 -->
<g id="node2" class="node">
<title>L2</title>
<ellipse fill="none" stroke="black" cx="140" cy="-178" rx="35.42" ry="18"/>
<text text-anchor="middle" x="140" y="-173.32" font-family="Times,serif" font-size="14.00">Load</text>
</g>
<!-- B -->
<g id="node3" class="node">
<title>B</title>
<ellipse fill="none" stroke="black" cx="95" cy="-106" rx="47" ry="18"/>
<text text-anchor="middle" x="95" y="-101.33" font-family="Times,serif" font-size="14.00">Branch</text>
</g>
<!-- B&#45;&gt;L1 -->
<g id="edge2" class="edge">
<title>B&#45;&gt;L1</title>
<path fill="none" stroke="black" d="M84.35,-123.95C79.25,-132.06 73.03,-141.96 67.35,-150.99"/>
<polygon fill="black" stroke="black" points="64.41,-149.08 62.06,-159.41 70.34,-152.81 64.41,-149.08"/>
</g>
<!-- B&#45;&gt;L2 -->
<g id="edge3" class="edge">
<title>B&#45;&gt;L2</title>
<path fill="none" stroke="black" d="M105.89,-123.95C111.17,-132.15 117.61,-142.17 123.47,-151.29"/>
<polygon fill="black" stroke="black" points="120.35,-152.9 128.7,-159.42 126.23,-149.12 120.35,-152.9"/>
</g>
<!-- S -->
<g id="node4" class="node">
<title>S</title>
<ellipse fill="none" stroke="black" cx="95" cy="-34" rx="38.58" ry="18"/>
<text text-anchor="middle" x="95" y="-29.32" font-family="Times,serif" font-size="14.00">Store</text>
</g>
<!-- S&#45;&gt;B -->
<g id="edge1" class="edge">
<title>S&#45;&gt;B</title>
<path fill="none" stroke="black" d="M95,-52.3C95,-59.59 95,-68.27 95,-76.46"/>
<polygon fill="black" stroke="black" points="91.5,-76.38 95,-86.38 98.5,-76.38 91.5,-76.38"/>
</g>
<!-- L1a -->
<g id="node5" class="node">
<title>L1a</title>
<ellipse fill="none" stroke="black" cx="238" cy="-178" rx="35.42" ry="18"/>
<text text-anchor="middle" x="238" y="-173.32" font-family="Times,serif" font-size="14.00">Load</text>
</g>
<!-- S1 -->
<g id="node6" class="node">
<title>S1</title>
<ellipse fill="none" stroke="black" cx="238" cy="-106" rx="38.58" ry="18"/>
<text text-anchor="middle" x="238" y="-101.33" font-family="Times,serif" font-size="14.00">Store</text>
</g>
<!-- S1&#45;&gt;L1a -->
<g id="edge4" class="edge">
<title>S1&#45;&gt;L1a</title>
<path fill="none" stroke="black" d="M238,-124.3C238,-131.59 238,-140.27 238,-148.46"/>
<polygon fill="black" stroke="black" points="234.5,-148.38 238,-158.38 241.5,-148.38 234.5,-148.38"/>
</g>
<!-- L2b -->
<g id="node7" class="node">
<title>L2b</title>
<ellipse fill="none" stroke="black" cx="340" cy="-178" rx="35.42" ry="18"/>
<text text-anchor="middle" x="340" y="-173.32" font-family="Times,serif" font-size="14.00">Load</text>
</g>
<!-- S2 -->
<g id="node8" class="node">
<title>S2</title>
<ellipse fill="none" stroke="black" cx="340" cy="-106" rx="38.58" ry="18"/>
<text text-anchor="middle" x="340" y="-101.33" font-family="Times,serif" font-size="14.00">Store</text>
</g>
<!-- S2&#45;&gt;L2b -->
<g id="edge5" class="edge">
<title>S2&#45;&gt;L2b</title>
<path fill="none" stroke="black" d="M340,-124.3C340,-131.59 340,-140.27 340,-148.46"/>
<polygon fill="black" stroke="black" points="336.5,-148.38 340,-158.38 343.5,-148.38 336.5,-148.38"/>
</g>
<!-- Bs -->
<g id="node9" class="node">
<title>Bs</title>
<ellipse fill="none" stroke="black" cx="289" cy="-34" rx="47" ry="18"/>
<text text-anchor="middle" x="289" y="-29.32" font-family="Times,serif" font-size="14.00">Branch</text>
</g>
<!-- Bs&#45;&gt;S1 -->
<g id="edge6" class="edge">
<title>Bs&#45;&gt;S1</title>
<path fill="none" stroke="black" d="M276.91,-51.59C270.88,-59.87 263.45,-70.08 256.7,-79.34"/>
<polygon fill="black" stroke="black" points="253.95,-77.16 250.89,-87.31 259.61,-81.29 253.95,-77.16"/>
</g>
<!-- Bs&#45;&gt;S2 -->
<g id="edge7" class="edge">
<title>Bs&#45;&gt;S2</title>
<path fill="none" stroke="black" d="M301.09,-51.59C307.12,-59.87 314.55,-70.08 321.3,-79.34"/>
<polygon fill="black" stroke="black" points="318.39,-81.29 327.11,-87.31 324.05,-77.16 318.39,-81.29"/>
</g>
</g>
</svg>
