<?xml version="1.0" encoding="utf-8" standalone="no"?>
<!DOCTYPE svg PUBLIC "-//W3C//DTD SVG 1.1//EN"
  "http://www.w3.org/Graphics/SVG/1.1/DTD/svg11.dtd">
<svg xmlns:xlink="http://www.w3.org/1999/xlink" width="460.8pt" height="345.6pt" viewBox="0 0 460.8 345.6" xmlns="http://www.w3.org/2000/svg" version="1.1">
 <metadata>
  <rdf:RDF xmlns:dc="http://purl.org/dc/elements/1.1/" xmlns:cc="http://creativecommons.org/ns#" xmlns:rdf="http://www.w3.org/1999/02/22-rdf-syntax-ns#">
   <cc:Work>
    <dc:type rdf:resource="http://purl.org/dc/dcmitype/StillImage"/>
    <dc:date>2024-07-28T16:46:23.875433</dc:date>
    <dc:format>image/svg+xml</dc:format>
    <dc:creator>
     <cc:Agent>
      <dc:title>Matplotlib v3.5.1, https://matplotlib.org/</dc:title>
     </cc:Agent>
    </dc:creator>
   </cc:Work>
  </rdf:RDF>
 </metadata>
 <defs>
  <style type="text/css">*{stroke-linejoin: round; stroke-linecap: butt}</style>
 </defs>
 <g id="figure_1">
  <g id="patch_1">
   <path d="M 0 345.6 
L 460.8 345.6 
L 460.8 0 
L 0 0 
z
" style="fill: #ffffff"/>
  </g>
  <g id="axes_1">
   <g id="patch_2">
    <path d="M 57.6 307.584 
L 414.72 307.584 
L 414.72 41.472 
L 57.6 41.472 
z
" style="fill: #ffffff"/>
   </g>
   <g id="matplotlib.axis_1">
    <g id="xtick_1">
     <g id="line2d_1">
      <path d="M 73.832727 307.584 
L 73.832727 41.472 
" clip-path="url(#p5a74df6622)" style="fill: none; stroke: #b0b0b0; stroke-width: 0.8; stroke-linecap: square"/>
     </g>
     <g id="line2d_2">
      <defs>
       <path id="m3585d9231c" d="M 0 0 
L 0 3.5 
" style="stroke: #000000; stroke-width: 0.8"/>
      </defs>
      <g>
       <use xlink:href="#m3585d9231c" x="73.832727" y="307.584" style="stroke: #000000; stroke-width: 0.8"/>
      </g>
     </g>
     <g id="text_1">
      <!-- $\mathdefault{10^{0}}$ -->
      <g transform="translate(65.032727 322.182437)scale(0.1 -0.1)">
       <defs>
        <path id="DejaVuSans-31" d="M 794 531 
L 1825 531 
L 1825 4091 
L 703 3866 
L 703 4441 
L 1819 4666 
L 2450 4666 
L 2450 531 
L 3481 531 
L 3481 0 
L 794 0 
L 794 531 
z
" transform="scale(0.015625)"/>
        <path id="DejaVuSans-30" d="M 2034 4250 
Q 1547 4250 1301 3770 
Q 1056 3291 1056 2328 
Q 1056 1369 1301 889 
Q 1547 409 2034 409 
Q 2525 409 2770 889 
Q 3016 1369 3016 2328 
Q 3016 3291 2770 3770 
Q 2525 4250 2034 4250 
z
M 2034 4750 
Q 2819 4750 3233 4129 
Q 3647 3509 3647 2328 
Q 3647 1150 3233 529 
Q 2819 -91 2034 -91 
Q 1250 -91 836 529 
Q 422 1150 422 2328 
Q 422 3509 836 4129 
Q 1250 4750 2034 4750 
z
" transform="scale(0.015625)"/>
       </defs>
       <use xlink:href="#DejaVuSans-31" transform="translate(0 0.765625)"/>
       <use xlink:href="#DejaVuSans-30" transform="translate(63.623047 0.765625)"/>
       <use xlink:href="#DejaVuSans-30" transform="translate(128.203125 39.046875)scale(0.7)"/>
      </g>
     </g>
    </g>
    <g id="xtick_2">
     <g id="line2d_3">
      <path d="M 205.677598 307.584 
L 205.677598 41.472 
" clip-path="url(#p5a74df6622)" style="fill: none; stroke: #b0b0b0; stroke-width: 0.8; stroke-linecap: square"/>
     </g>
     <g id="line2d_4">
      <g>
       <use xlink:href="#m3585d9231c" x="205.677598" y="307.584" style="stroke: #000000; stroke-width: 0.8"/>
      </g>
     </g>
     <g id="text_2">
      <!-- $\mathdefault{10^{1}}$ -->
      <g transform="translate(196.877598 322.182437)scale(0.1 -0.1)">
       <use xlink:href="#DejaVuSans-31" transform="translate(0 0.684375)"/>
       <use xlink:href="#DejaVuSans-30" transform="translate(63.623047 0.684375)"/>
       <use xlink:href="#DejaVuSans-31" transform="translate(128.203125 38.965625)scale(0.7)"/>
      </g>
     </g>
    </g>
    <g id="xtick_3">
     <g id="line2d_5">
      <path d="M 337.522469 307.584 
L 337.522469 41.472 
" clip-path="url(#p5a74df6622)" style="fill: none; stroke: #b0b0b0; stroke-width: 0.8; stroke-linecap: square"/>
     </g>
     <g id="line2d_6">
      <g>
       <use xlink:href="#m3585d9231c" x="337.522469" y="307.584" style="stroke: #000000; stroke-width: 0.8"/>
      </g>
     </g>
     <g id="text_3">
      <!-- $\mathdefault{10^{2}}$ -->
      <g transform="translate(328.722469 322.182437)scale(0.1 -0.1)">
       <defs>
        <path id="DejaVuSans-32" d="M 1228 531 
L 3431 531 
L 3431 0 
L 469 0 
L 469 531 
Q 828 903 1448 1529 
Q 2069 2156 2228 2338 
Q 2531 2678 2651 2914 
Q 2772 3150 2772 3378 
Q 2772 3750 2511 3984 
Q 2250 4219 1831 4219 
Q 1534 4219 1204 4116 
Q 875 4013 500 3803 
L 500 4441 
Q 881 4594 1212 4672 
Q 1544 4750 1819 4750 
Q 2544 4750 2975 4387 
Q 3406 4025 3406 3419 
Q 3406 3131 3298 2873 
Q 3191 2616 2906 2266 
Q 2828 2175 2409 1742 
Q 1991 1309 1228 531 
z
" transform="scale(0.015625)"/>
       </defs>
       <use xlink:href="#DejaVuSans-31" transform="translate(0 0.765625)"/>
       <use xlink:href="#DejaVuSans-30" transform="translate(63.623047 0.765625)"/>
       <use xlink:href="#DejaVuSans-32" transform="translate(128.203125 39.046875)scale(0.7)"/>
      </g>
     </g>
    </g>
    <g id="xtick_4">
     <g id="line2d_7">
      <defs>
       <path id="m4f6c0e7e0b" d="M 0 0 
L 0 2 
" style="stroke: #000000; stroke-width: 0.6"/>
      </defs>
      <g>
       <use xlink:href="#m4f6c0e7e0b" x="61.055639" y="307.584" style="stroke: #000000; stroke-width: 0.6"/>
      </g>
     </g>
    </g>
    <g id="xtick_5">
     <g id="line2d_8">
      <g>
       <use xlink:href="#m4f6c0e7e0b" x="67.799837" y="307.584" style="stroke: #000000; stroke-width: 0.6"/>
      </g>
     </g>
    </g>
    <g id="xtick_6">
     <g id="line2d_9">
      <g>
       <use xlink:href="#m4f6c0e7e0b" x="113.521988" y="307.584" style="stroke: #000000; stroke-width: 0.6"/>
      </g>
     </g>
    </g>
    <g id="xtick_7">
     <g id="line2d_10">
      <g>
       <use xlink:href="#m4f6c0e7e0b" x="136.738717" y="307.584" style="stroke: #000000; stroke-width: 0.6"/>
      </g>
     </g>
    </g>
    <g id="xtick_8">
     <g id="line2d_11">
      <g>
       <use xlink:href="#m4f6c0e7e0b" x="153.211249" y="307.584" style="stroke: #000000; stroke-width: 0.6"/>
      </g>
     </g>
    </g>
    <g id="xtick_9">
     <g id="line2d_12">
      <g>
       <use xlink:href="#m4f6c0e7e0b" x="165.988337" y="307.584" style="stroke: #000000; stroke-width: 0.6"/>
      </g>
     </g>
    </g>
    <g id="xtick_10">
     <g id="line2d_13">
      <g>
       <use xlink:href="#m4f6c0e7e0b" x="176.427978" y="307.584" style="stroke: #000000; stroke-width: 0.6"/>
      </g>
     </g>
    </g>
    <g id="xtick_11">
     <g id="line2d_14">
      <g>
       <use xlink:href="#m4f6c0e7e0b" x="185.254569" y="307.584" style="stroke: #000000; stroke-width: 0.6"/>
      </g>
     </g>
    </g>
    <g id="xtick_12">
     <g id="line2d_15">
      <g>
       <use xlink:href="#m4f6c0e7e0b" x="192.90051" y="307.584" style="stroke: #000000; stroke-width: 0.6"/>
      </g>
     </g>
    </g>
    <g id="xtick_13">
     <g id="line2d_16">
      <g>
       <use xlink:href="#m4f6c0e7e0b" x="199.644707" y="307.584" style="stroke: #000000; stroke-width: 0.6"/>
      </g>
     </g>
    </g>
    <g id="xtick_14">
     <g id="line2d_17">
      <g>
       <use xlink:href="#m4f6c0e7e0b" x="245.366859" y="307.584" style="stroke: #000000; stroke-width: 0.6"/>
      </g>
     </g>
    </g>
    <g id="xtick_15">
     <g id="line2d_18">
      <g>
       <use xlink:href="#m4f6c0e7e0b" x="268.583588" y="307.584" style="stroke: #000000; stroke-width: 0.6"/>
      </g>
     </g>
    </g>
    <g id="xtick_16">
     <g id="line2d_19">
      <g>
       <use xlink:href="#m4f6c0e7e0b" x="285.05612" y="307.584" style="stroke: #000000; stroke-width: 0.6"/>
      </g>
     </g>
    </g>
    <g id="xtick_17">
     <g id="line2d_20">
      <g>
       <use xlink:href="#m4f6c0e7e0b" x="297.833208" y="307.584" style="stroke: #000000; stroke-width: 0.6"/>
      </g>
     </g>
    </g>
    <g id="xtick_18">
     <g id="line2d_21">
      <g>
       <use xlink:href="#m4f6c0e7e0b" x="308.272849" y="307.584" style="stroke: #000000; stroke-width: 0.6"/>
      </g>
     </g>
    </g>
    <g id="xtick_19">
     <g id="line2d_22">
      <g>
       <use xlink:href="#m4f6c0e7e0b" x="317.09944" y="307.584" style="stroke: #000000; stroke-width: 0.6"/>
      </g>
     </g>
    </g>
    <g id="xtick_20">
     <g id="line2d_23">
      <g>
       <use xlink:href="#m4f6c0e7e0b" x="324.74538" y="307.584" style="stroke: #000000; stroke-width: 0.6"/>
      </g>
     </g>
    </g>
    <g id="xtick_21">
     <g id="line2d_24">
      <g>
       <use xlink:href="#m4f6c0e7e0b" x="331.489578" y="307.584" style="stroke: #000000; stroke-width: 0.6"/>
      </g>
     </g>
    </g>
    <g id="xtick_22">
     <g id="line2d_25">
      <g>
       <use xlink:href="#m4f6c0e7e0b" x="377.211729" y="307.584" style="stroke: #000000; stroke-width: 0.6"/>
      </g>
     </g>
    </g>
    <g id="xtick_23">
     <g id="line2d_26">
      <g>
       <use xlink:href="#m4f6c0e7e0b" x="400.428459" y="307.584" style="stroke: #000000; stroke-width: 0.6"/>
      </g>
     </g>
    </g>
    <g id="text_4">
     <!-- Number of idiom instances -->
     <g transform="translate(168.819375 335.860562)scale(0.1 -0.1)">
      <defs>
       <path id="DejaVuSans-4e" d="M 628 4666 
L 1478 4666 
L 3547 763 
L 3547 4666 
L 4159 4666 
L 4159 0 
L 3309 0 
L 1241 3903 
L 1241 0 
L 628 0 
L 628 4666 
z
" transform="scale(0.015625)"/>
       <path id="DejaVuSans-75" d="M 544 1381 
L 544 3500 
L 1119 3500 
L 1119 1403 
Q 1119 906 1312 657 
Q 1506 409 1894 409 
Q 2359 409 2629 706 
Q 2900 1003 2900 1516 
L 2900 3500 
L 3475 3500 
L 3475 0 
L 2900 0 
L 2900 538 
Q 2691 219 2414 64 
Q 2138 -91 1772 -91 
Q 1169 -91 856 284 
Q 544 659 544 1381 
z
M 1991 3584 
L 1991 3584 
z
" transform="scale(0.015625)"/>
       <path id="DejaVuSans-6d" d="M 3328 2828 
Q 3544 3216 3844 3400 
Q 4144 3584 4550 3584 
Q 5097 3584 5394 3201 
Q 5691 2819 5691 2113 
L 5691 0 
L 5113 0 
L 5113 2094 
Q 5113 2597 4934 2840 
Q 4756 3084 4391 3084 
Q 3944 3084 3684 2787 
Q 3425 2491 3425 1978 
L 3425 0 
L 2847 0 
L 2847 2094 
Q 2847 2600 2669 2842 
Q 2491 3084 2119 3084 
Q 1678 3084 1418 2786 
Q 1159 2488 1159 1978 
L 1159 0 
L 581 0 
L 581 3500 
L 1159 3500 
L 1159 2956 
Q 1356 3278 1631 3431 
Q 1906 3584 2284 3584 
Q 2666 3584 2933 3390 
Q 3200 3197 3328 2828 
z
" transform="scale(0.015625)"/>
       <path id="DejaVuSans-62" d="M 3116 1747 
Q 3116 2381 2855 2742 
Q 2594 3103 2138 3103 
Q 1681 3103 1420 2742 
Q 1159 2381 1159 1747 
Q 1159 1113 1420 752 
Q 1681 391 2138 391 
Q 2594 391 2855 752 
Q 3116 1113 3116 1747 
z
M 1159 2969 
Q 1341 3281 1617 3432 
Q 1894 3584 2278 3584 
Q 2916 3584 3314 3078 
Q 3713 2572 3713 1747 
Q 3713 922 3314 415 
Q 2916 -91 2278 -91 
Q 1894 -91 1617 61 
Q 1341 213 1159 525 
L 1159 0 
L 581 0 
L 581 4863 
L 1159 4863 
L 1159 2969 
z
" transform="scale(0.015625)"/>
       <path id="DejaVuSans-65" d="M 3597 1894 
L 3597 1613 
L 953 1613 
Q 991 1019 1311 708 
Q 1631 397 2203 397 
Q 2534 397 2845 478 
Q 3156 559 3463 722 
L 3463 178 
Q 3153 47 2828 -22 
Q 2503 -91 2169 -91 
Q 1331 -91 842 396 
Q 353 884 353 1716 
Q 353 2575 817 3079 
Q 1281 3584 2069 3584 
Q 2775 3584 3186 3129 
Q 3597 2675 3597 1894 
z
M 3022 2063 
Q 3016 2534 2758 2815 
Q 2500 3097 2075 3097 
Q 1594 3097 1305 2825 
Q 1016 2553 972 2059 
L 3022 2063 
z
" transform="scale(0.015625)"/>
       <path id="DejaVuSans-72" d="M 2631 2963 
Q 2534 3019 2420 3045 
Q 2306 3072 2169 3072 
Q 1681 3072 1420 2755 
Q 1159 2438 1159 1844 
L 1159 0 
L 581 0 
L 581 3500 
L 1159 3500 
L 1159 2956 
Q 1341 3275 1631 3429 
Q 1922 3584 2338 3584 
Q 2397 3584 2469 3576 
Q 2541 3569 2628 3553 
L 2631 2963 
z
" transform="scale(0.015625)"/>
       <path id="DejaVuSans-20" transform="scale(0.015625)"/>
       <path id="DejaVuSans-6f" d="M 1959 3097 
Q 1497 3097 1228 2736 
Q 959 2375 959 1747 
Q 959 1119 1226 758 
Q 1494 397 1959 397 
Q 2419 397 2687 759 
Q 2956 1122 2956 1747 
Q 2956 2369 2687 2733 
Q 2419 3097 1959 3097 
z
M 1959 3584 
Q 2709 3584 3137 3096 
Q 3566 2609 3566 1747 
Q 3566 888 3137 398 
Q 2709 -91 1959 -91 
Q 1206 -91 779 398 
Q 353 888 353 1747 
Q 353 2609 779 3096 
Q 1206 3584 1959 3584 
z
" transform="scale(0.015625)"/>
       <path id="DejaVuSans-66" d="M 2375 4863 
L 2375 4384 
L 1825 4384 
Q 1516 4384 1395 4259 
Q 1275 4134 1275 3809 
L 1275 3500 
L 2222 3500 
L 2222 3053 
L 1275 3053 
L 1275 0 
L 697 0 
L 697 3053 
L 147 3053 
L 147 3500 
L 697 3500 
L 697 3744 
Q 697 4328 969 4595 
Q 1241 4863 1831 4863 
L 2375 4863 
z
" transform="scale(0.015625)"/>
       <path id="DejaVuSans-69" d="M 603 3500 
L 1178 3500 
L 1178 0 
L 603 0 
L 603 3500 
z
M 603 4863 
L 1178 4863 
L 1178 4134 
L 603 4134 
L 603 4863 
z
" transform="scale(0.015625)"/>
       <path id="DejaVuSans-64" d="M 2906 2969 
L 2906 4863 
L 3481 4863 
L 3481 0 
L 2906 0 
L 2906 525 
Q 2725 213 2448 61 
Q 2172 -91 1784 -91 
Q 1150 -91 751 415 
Q 353 922 353 1747 
Q 353 2572 751 3078 
Q 1150 3584 1784 3584 
Q 2172 3584 2448 3432 
Q 2725 3281 2906 2969 
z
M 947 1747 
Q 947 1113 1208 752 
Q 1469 391 1925 391 
Q 2381 391 2643 752 
Q 2906 1113 2906 1747 
Q 2906 2381 2643 2742 
Q 2381 3103 1925 3103 
Q 1469 3103 1208 2742 
Q 947 2381 947 1747 
z
" transform="scale(0.015625)"/>
       <path id="DejaVuSans-6e" d="M 3513 2113 
L 3513 0 
L 2938 0 
L 2938 2094 
Q 2938 2591 2744 2837 
Q 2550 3084 2163 3084 
Q 1697 3084 1428 2787 
Q 1159 2491 1159 1978 
L 1159 0 
L 581 0 
L 581 3500 
L 1159 3500 
L 1159 2956 
Q 1366 3272 1645 3428 
Q 1925 3584 2291 3584 
Q 2894 3584 3203 3211 
Q 3513 2838 3513 2113 
z
" transform="scale(0.015625)"/>
       <path id="DejaVuSans-73" d="M 2834 3397 
L 2834 2853 
Q 2591 2978 2328 3040 
Q 2066 3103 1784 3103 
Q 1356 3103 1142 2972 
Q 928 2841 928 2578 
Q 928 2378 1081 2264 
Q 1234 2150 1697 2047 
L 1894 2003 
Q 2506 1872 2764 1633 
Q 3022 1394 3022 966 
Q 3022 478 2636 193 
Q 2250 -91 1575 -91 
Q 1294 -91 989 -36 
Q 684 19 347 128 
L 347 722 
Q 666 556 975 473 
Q 1284 391 1588 391 
Q 1994 391 2212 530 
Q 2431 669 2431 922 
Q 2431 1156 2273 1281 
Q 2116 1406 1581 1522 
L 1381 1569 
Q 847 1681 609 1914 
Q 372 2147 372 2553 
Q 372 3047 722 3315 
Q 1072 3584 1716 3584 
Q 2034 3584 2315 3537 
Q 2597 3491 2834 3397 
z
" transform="scale(0.015625)"/>
       <path id="DejaVuSans-74" d="M 1172 4494 
L 1172 3500 
L 2356 3500 
L 2356 3053 
L 1172 3053 
L 1172 1153 
Q 1172 725 1289 603 
Q 1406 481 1766 481 
L 2356 481 
L 2356 0 
L 1766 0 
Q 1100 0 847 248 
Q 594 497 594 1153 
L 594 3053 
L 172 3053 
L 172 3500 
L 594 3500 
L 594 4494 
L 1172 4494 
z
" transform="scale(0.015625)"/>
       <path id="DejaVuSans-61" d="M 2194 1759 
Q 1497 1759 1228 1600 
Q 959 1441 959 1056 
Q 959 750 1161 570 
Q 1363 391 1709 391 
Q 2188 391 2477 730 
Q 2766 1069 2766 1631 
L 2766 1759 
L 2194 1759 
z
M 3341 1997 
L 3341 0 
L 2766 0 
L 2766 531 
Q 2569 213 2275 61 
Q 1981 -91 1556 -91 
Q 1019 -91 701 211 
Q 384 513 384 1019 
Q 384 1609 779 1909 
Q 1175 2209 1959 2209 
L 2766 2209 
L 2766 2266 
Q 2766 2663 2505 2880 
Q 2244 3097 1772 3097 
Q 1472 3097 1187 3025 
Q 903 2953 641 2809 
L 641 3341 
Q 956 3463 1253 3523 
Q 1550 3584 1831 3584 
Q 2591 3584 2966 3190 
Q 3341 2797 3341 1997 
z
" transform="scale(0.015625)"/>
       <path id="DejaVuSans-63" d="M 3122 3366 
L 3122 2828 
Q 2878 2963 2633 3030 
Q 2388 3097 2138 3097 
Q 1578 3097 1268 2742 
Q 959 2388 959 1747 
Q 959 1106 1268 751 
Q 1578 397 2138 397 
Q 2388 397 2633 464 
Q 2878 531 3122 666 
L 3122 134 
Q 2881 22 2623 -34 
Q 2366 -91 2075 -91 
Q 1284 -91 818 406 
Q 353 903 353 1747 
Q 353 2603 823 3093 
Q 1294 3584 2113 3584 
Q 2378 3584 2631 3529 
Q 2884 3475 3122 3366 
z
" transform="scale(0.015625)"/>
      </defs>
      <use xlink:href="#DejaVuSans-4e"/>
      <use xlink:href="#DejaVuSans-75" x="74.804688"/>
      <use xlink:href="#DejaVuSans-6d" x="138.183594"/>
      <use xlink:href="#DejaVuSans-62" x="235.595703"/>
      <use xlink:href="#DejaVuSans-65" x="299.072266"/>
      <use xlink:href="#DejaVuSans-72" x="360.595703"/>
      <use xlink:href="#DejaVuSans-20" x="401.708984"/>
      <use xlink:href="#DejaVuSans-6f" x="433.496094"/>
      <use xlink:href="#DejaVuSans-66" x="494.677734"/>
      <use xlink:href="#DejaVuSans-20" x="529.882812"/>
      <use xlink:href="#DejaVuSans-69" x="561.669922"/>
      <use xlink:href="#DejaVuSans-64" x="589.453125"/>
      <use xlink:href="#DejaVuSans-69" x="652.929688"/>
      <use xlink:href="#DejaVuSans-6f" x="680.712891"/>
      <use xlink:href="#DejaVuSans-6d" x="741.894531"/>
      <use xlink:href="#DejaVuSans-20" x="839.306641"/>
      <use xlink:href="#DejaVuSans-69" x="871.09375"/>
      <use xlink:href="#DejaVuSans-6e" x="898.876953"/>
      <use xlink:href="#DejaVuSans-73" x="962.255859"/>
      <use xlink:href="#DejaVuSans-74" x="1014.355469"/>
      <use xlink:href="#DejaVuSans-61" x="1053.564453"/>
      <use xlink:href="#DejaVuSans-6e" x="1114.84375"/>
      <use xlink:href="#DejaVuSans-63" x="1178.222656"/>
      <use xlink:href="#DejaVuSans-65" x="1233.203125"/>
      <use xlink:href="#DejaVuSans-73" x="1294.726562"/>
     </g>
    </g>
   </g>
   <g id="matplotlib.axis_2">
    <g id="ytick_1">
     <g id="line2d_27">
      <path d="M 57.6 288.011945 
L 414.72 288.011945 
" clip-path="url(#p5a74df6622)" style="fill: none; stroke: #b0b0b0; stroke-width: 0.8; stroke-linecap: square"/>
     </g>
     <g id="line2d_28">
      <defs>
       <path id="mc502762cfb" d="M 0 0 
L -3.5 0 
" style="stroke: #000000; stroke-width: 0.8"/>
      </defs>
      <g>
       <use xlink:href="#mc502762cfb" x="57.6" y="288.011945" style="stroke: #000000; stroke-width: 0.8"/>
      </g>
     </g>
     <g id="text_5">
      <!-- 0.2 -->
      <g transform="translate(34.696875 291.811164)scale(0.1 -0.1)">
       <defs>
        <path id="DejaVuSans-2e" d="M 684 794 
L 1344 794 
L 1344 0 
L 684 0 
L 684 794 
z
" transform="scale(0.015625)"/>
       </defs>
       <use xlink:href="#DejaVuSans-30"/>
       <use xlink:href="#DejaVuSans-2e" x="63.623047"/>
       <use xlink:href="#DejaVuSans-32" x="95.410156"/>
      </g>
     </g>
    </g>
    <g id="ytick_2">
     <g id="line2d_29">
      <path d="M 57.6 229.400959 
L 414.72 229.400959 
" clip-path="url(#p5a74df6622)" style="fill: none; stroke: #b0b0b0; stroke-width: 0.8; stroke-linecap: square"/>
     </g>
     <g id="line2d_30">
      <g>
       <use xlink:href="#mc502762cfb" x="57.6" y="229.400959" style="stroke: #000000; stroke-width: 0.8"/>
      </g>
     </g>
     <g id="text_6">
      <!-- 0.4 -->
      <g transform="translate(34.696875 233.200178)scale(0.1 -0.1)">
       <defs>
        <path id="DejaVuSans-34" d="M 2419 4116 
L 825 1625 
L 2419 1625 
L 2419 4116 
z
M 2253 4666 
L 3047 4666 
L 3047 1625 
L 3713 1625 
L 3713 1100 
L 3047 1100 
L 3047 0 
L 2419 0 
L 2419 1100 
L 313 1100 
L 313 1709 
L 2253 4666 
z
" transform="scale(0.015625)"/>
       </defs>
       <use xlink:href="#DejaVuSans-30"/>
       <use xlink:href="#DejaVuSans-2e" x="63.623047"/>
       <use xlink:href="#DejaVuSans-34" x="95.410156"/>
      </g>
     </g>
    </g>
    <g id="ytick_3">
     <g id="line2d_31">
      <path d="M 57.6 170.789973 
L 414.72 170.789973 
" clip-path="url(#p5a74df6622)" style="fill: none; stroke: #b0b0b0; stroke-width: 0.8; stroke-linecap: square"/>
     </g>
     <g id="line2d_32">
      <g>
       <use xlink:href="#mc502762cfb" x="57.6" y="170.789973" style="stroke: #000000; stroke-width: 0.8"/>
      </g>
     </g>
     <g id="text_7">
      <!-- 0.6 -->
      <g transform="translate(34.696875 174.589191)scale(0.1 -0.1)">
       <defs>
        <path id="DejaVuSans-36" d="M 2113 2584 
Q 1688 2584 1439 2293 
Q 1191 2003 1191 1497 
Q 1191 994 1439 701 
Q 1688 409 2113 409 
Q 2538 409 2786 701 
Q 3034 994 3034 1497 
Q 3034 2003 2786 2293 
Q 2538 2584 2113 2584 
z
M 3366 4563 
L 3366 3988 
Q 3128 4100 2886 4159 
Q 2644 4219 2406 4219 
Q 1781 4219 1451 3797 
Q 1122 3375 1075 2522 
Q 1259 2794 1537 2939 
Q 1816 3084 2150 3084 
Q 2853 3084 3261 2657 
Q 3669 2231 3669 1497 
Q 3669 778 3244 343 
Q 2819 -91 2113 -91 
Q 1303 -91 875 529 
Q 447 1150 447 2328 
Q 447 3434 972 4092 
Q 1497 4750 2381 4750 
Q 2619 4750 2861 4703 
Q 3103 4656 3366 4563 
z
" transform="scale(0.015625)"/>
       </defs>
       <use xlink:href="#DejaVuSans-30"/>
       <use xlink:href="#DejaVuSans-2e" x="63.623047"/>
       <use xlink:href="#DejaVuSans-36" x="95.410156"/>
      </g>
     </g>
    </g>
    <g id="ytick_4">
     <g id="line2d_33">
      <path d="M 57.6 112.178986 
L 414.72 112.178986 
" clip-path="url(#p5a74df6622)" style="fill: none; stroke: #b0b0b0; stroke-width: 0.8; stroke-linecap: square"/>
     </g>
     <g id="line2d_34">
      <g>
       <use xlink:href="#mc502762cfb" x="57.6" y="112.178986" style="stroke: #000000; stroke-width: 0.8"/>
      </g>
     </g>
     <g id="text_8">
      <!-- 0.8 -->
      <g transform="translate(34.696875 115.978205)scale(0.1 -0.1)">
       <defs>
        <path id="DejaVuSans-38" d="M 2034 2216 
Q 1584 2216 1326 1975 
Q 1069 1734 1069 1313 
Q 1069 891 1326 650 
Q 1584 409 2034 409 
Q 2484 409 2743 651 
Q 3003 894 3003 1313 
Q 3003 1734 2745 1975 
Q 2488 2216 2034 2216 
z
M 1403 2484 
Q 997 2584 770 2862 
Q 544 3141 544 3541 
Q 544 4100 942 4425 
Q 1341 4750 2034 4750 
Q 2731 4750 3128 4425 
Q 3525 4100 3525 3541 
Q 3525 3141 3298 2862 
Q 3072 2584 2669 2484 
Q 3125 2378 3379 2068 
Q 3634 1759 3634 1313 
Q 3634 634 3220 271 
Q 2806 -91 2034 -91 
Q 1263 -91 848 271 
Q 434 634 434 1313 
Q 434 1759 690 2068 
Q 947 2378 1403 2484 
z
M 1172 3481 
Q 1172 3119 1398 2916 
Q 1625 2713 2034 2713 
Q 2441 2713 2670 2916 
Q 2900 3119 2900 3481 
Q 2900 3844 2670 4047 
Q 2441 4250 2034 4250 
Q 1625 4250 1398 4047 
Q 1172 3844 1172 3481 
z
" transform="scale(0.015625)"/>
       </defs>
       <use xlink:href="#DejaVuSans-30"/>
       <use xlink:href="#DejaVuSans-2e" x="63.623047"/>
       <use xlink:href="#DejaVuSans-38" x="95.410156"/>
      </g>
     </g>
    </g>
    <g id="ytick_5">
     <g id="line2d_35">
      <path d="M 57.6 53.568 
L 414.72 53.568 
" clip-path="url(#p5a74df6622)" style="fill: none; stroke: #b0b0b0; stroke-width: 0.8; stroke-linecap: square"/>
     </g>
     <g id="line2d_36">
      <g>
       <use xlink:href="#mc502762cfb" x="57.6" y="53.568" style="stroke: #000000; stroke-width: 0.8"/>
      </g>
     </g>
     <g id="text_9">
      <!-- 1.0 -->
      <g transform="translate(34.696875 57.367219)scale(0.1 -0.1)">
       <use xlink:href="#DejaVuSans-31"/>
       <use xlink:href="#DejaVuSans-2e" x="63.623047"/>
       <use xlink:href="#DejaVuSans-30" x="95.410156"/>
      </g>
     </g>
    </g>
    <g id="text_10">
     <!-- Captured memory operations -->
     <g transform="translate(28.617187 248.261594)rotate(-90)scale(0.1 -0.1)">
      <defs>
       <path id="DejaVuSans-43" d="M 4122 4306 
L 4122 3641 
Q 3803 3938 3442 4084 
Q 3081 4231 2675 4231 
Q 1875 4231 1450 3742 
Q 1025 3253 1025 2328 
Q 1025 1406 1450 917 
Q 1875 428 2675 428 
Q 3081 428 3442 575 
Q 3803 722 4122 1019 
L 4122 359 
Q 3791 134 3420 21 
Q 3050 -91 2638 -91 
Q 1578 -91 968 557 
Q 359 1206 359 2328 
Q 359 3453 968 4101 
Q 1578 4750 2638 4750 
Q 3056 4750 3426 4639 
Q 3797 4528 4122 4306 
z
" transform="scale(0.015625)"/>
       <path id="DejaVuSans-70" d="M 1159 525 
L 1159 -1331 
L 581 -1331 
L 581 3500 
L 1159 3500 
L 1159 2969 
Q 1341 3281 1617 3432 
Q 1894 3584 2278 3584 
Q 2916 3584 3314 3078 
Q 3713 2572 3713 1747 
Q 3713 922 3314 415 
Q 2916 -91 2278 -91 
Q 1894 -91 1617 61 
Q 1341 213 1159 525 
z
M 3116 1747 
Q 3116 2381 2855 2742 
Q 2594 3103 2138 3103 
Q 1681 3103 1420 2742 
Q 1159 2381 1159 1747 
Q 1159 1113 1420 752 
Q 1681 391 2138 391 
Q 2594 391 2855 752 
Q 3116 1113 3116 1747 
z
" transform="scale(0.015625)"/>
       <path id="DejaVuSans-79" d="M 2059 -325 
Q 1816 -950 1584 -1140 
Q 1353 -1331 966 -1331 
L 506 -1331 
L 506 -850 
L 844 -850 
Q 1081 -850 1212 -737 
Q 1344 -625 1503 -206 
L 1606 56 
L 191 3500 
L 800 3500 
L 1894 763 
L 2988 3500 
L 3597 3500 
L 2059 -325 
z
" transform="scale(0.015625)"/>
      </defs>
      <use xlink:href="#DejaVuSans-43"/>
      <use xlink:href="#DejaVuSans-61" x="69.824219"/>
      <use xlink:href="#DejaVuSans-70" x="131.103516"/>
      <use xlink:href="#DejaVuSans-74" x="194.580078"/>
      <use xlink:href="#DejaVuSans-75" x="233.789062"/>
      <use xlink:href="#DejaVuSans-72" x="297.167969"/>
      <use xlink:href="#DejaVuSans-65" x="336.03125"/>
      <use xlink:href="#DejaVuSans-64" x="397.554688"/>
      <use xlink:href="#DejaVuSans-20" x="461.03125"/>
      <use xlink:href="#DejaVuSans-6d" x="492.818359"/>
      <use xlink:href="#DejaVuSans-65" x="590.230469"/>
      <use xlink:href="#DejaVuSans-6d" x="651.753906"/>
      <use xlink:href="#DejaVuSans-6f" x="749.166016"/>
      <use xlink:href="#DejaVuSans-72" x="810.347656"/>
      <use xlink:href="#DejaVuSans-79" x="851.460938"/>
      <use xlink:href="#DejaVuSans-20" x="910.640625"/>
      <use xlink:href="#DejaVuSans-6f" x="942.427734"/>
      <use xlink:href="#DejaVuSans-70" x="1003.609375"/>
      <use xlink:href="#DejaVuSans-65" x="1067.085938"/>
      <use xlink:href="#DejaVuSans-72" x="1128.609375"/>
      <use xlink:href="#DejaVuSans-61" x="1169.722656"/>
      <use xlink:href="#DejaVuSans-74" x="1231.001953"/>
      <use xlink:href="#DejaVuSans-69" x="1270.210938"/>
      <use xlink:href="#DejaVuSans-6f" x="1297.994141"/>
      <use xlink:href="#DejaVuSans-6e" x="1359.175781"/>
      <use xlink:href="#DejaVuSans-73" x="1422.554688"/>
     </g>
    </g>
   </g>
   <g id="line2d_37">
    <path d="M -1 147.073065 
L 73.832727 147.042603 
L 113.521988 100.156188 
L 136.738717 87.562453 
L 153.211249 79.291047 
L 165.988337 73.279904 
L 176.427978 68.056365 
L 185.254569 65.185623 
L 192.90051 63.482169 
L 199.644707 62.591095 
L 205.677598 61.707048 
L 211.135011 60.831948 
L 216.117239 59.968822 
L 220.700444 59.105721 
L 224.94383 58.248752 
L 228.894327 57.672387 
L 232.589771 57.140961 
L 236.061106 56.63832 
L 239.333968 56.206732 
L 242.42983 55.775194 
L 245.366859 55.3444 
L 248.160559 54.913704 
L 250.824272 54.485127 
L 253.369558 54.269309 
L 255.8065 54.05354 
L 258.143947 53.907451 
L 260.389705 53.787454 
L 262.550698 53.682941 
L 264.633091 53.594205 
L 266.642402 53.575728 
L 268.583588 53.569055 
L 270.461117 53.568457 
L 272.279031 53.56825 
L 274.041001 53.568166 
L 275.750367 53.568089 
L 277.410179 53.56804 
L 279.023229 53.568022 
L 280.592081 53.568013 
L 282.119091 53.56801 
L 283.606435 53.568008 
L 285.05612 53.568005 
L 286.470006 53.568004 
L 287.84982 53.568003 
L 289.197164 53.568002 
L 290.513533 53.568002 
L 291.800317 53.568001 
L 293.058818 53.568001 
L 294.290253 53.568 
L 295.495761 53.568 
L 296.676411 53.568 
" clip-path="url(#p5a74df6622)" style="fill: none; stroke: #1f77b4; stroke-width: 1.5; stroke-linecap: square"/>
   </g>
   <g id="line2d_38">
    <path d="M -1 238.919818 
L 73.832727 238.891666 
L 113.521988 200.347236 
L 136.738717 174.789515 
L 153.211249 149.231866 
L 165.988337 124.788937 
L 176.427978 100.544459 
L 185.254569 88.184034 
L 192.90051 80.508181 
L 199.644707 74.43781 
L 205.677598 69.936648 
L 211.135011 65.465242 
L 216.117239 61.018761 
L 220.700444 59.089561 
L 224.94383 57.523794 
L 228.894327 56.5665 
L 232.589771 55.67633 
L 236.061106 54.946032 
L 239.333968 54.234616 
L 242.42983 53.593358 
L 245.366859 53.574946 
L 248.160559 53.572191 
L 250.824272 53.570529 
L 253.369558 53.569056 
L 255.8065 53.568376 
L 258.143947 53.568122 
L 260.389705 53.568076 
L 262.550698 53.568057 
L 264.633091 53.568046 
L 266.642402 53.568035 
L 268.583588 53.568028 
L 270.461117 53.56802 
L 272.279031 53.568014 
L 274.041001 53.568008 
L 275.750367 53.568005 
L 277.410179 53.568002 
L 279.023229 53.568 
" clip-path="url(#p5a74df6622)" style="fill: none; stroke: #ff7f0e; stroke-width: 1.5; stroke-linecap: square"/>
   </g>
   <g id="line2d_39">
    <path d="M -1 254.387108 
L 73.832727 254.363767 
L 113.521988 213.241644 
L 136.738717 185.826895 
L 153.211249 161.798832 
L 165.988337 141.229687 
L 176.427978 121.703886 
L 185.254569 107.996315 
L 192.90051 96.531538 
L 199.644707 85.660664 
L 205.677598 76.19491 
L 211.135011 69.989475 
L 216.117239 64.99962 
L 220.700444 60.098084 
L 224.94383 57.169852 
L 228.894327 56.043391 
L 232.589771 55.188715 
L 236.061106 54.358776 
L 239.333968 53.702193 
L 242.42983 53.685316 
L 245.366859 53.669211 
L 248.160559 53.655825 
L 250.824272 53.642439 
L 253.369558 53.631811 
L 255.8065 53.622059 
L 258.143947 53.615523 
L 260.389705 53.609039 
L 262.550698 53.602555 
L 264.633091 53.5973 
L 266.642402 53.592398 
L 268.583588 53.587509 
L 270.461117 53.582633 
L 272.279031 53.579548 
L 274.041001 53.577286 
L 275.750367 53.575025 
L 277.410179 53.572789 
L 279.023229 53.571221 
L 280.592081 53.569652 
L 282.119091 53.568109 
L 283.606435 53.568083 
L 285.05612 53.568059 
L 286.470006 53.568043 
L 287.84982 53.568031 
L 289.197164 53.568021 
L 290.513533 53.568016 
L 291.800317 53.56801 
L 293.058818 53.568006 
L 294.290253 53.568002 
L 295.495761 53.568001 
L 296.676411 53.568 
" clip-path="url(#p5a74df6622)" style="fill: none; stroke: #2ca02c; stroke-width: 1.5; stroke-linecap: square"/>
   </g>
   <g id="line2d_40">
    <path d="M -1 69.95769 
L 73.832727 69.885389 
L 113.521988 61.180212 
L 136.738717 56.827655 
L 153.211249 55.38245 
L 165.988337 54.591426 
L 176.427978 53.873026 
L 185.254569 53.760033 
L 192.90051 53.672188 
L 199.644707 53.618047 
L 205.677598 53.568131 
L 211.135011 53.568007 
L 216.117239 53.568004 
L 220.700444 53.568003 
L 224.94383 53.568002 
L 228.894327 53.568002 
L 232.589771 53.568001 
L 236.061106 53.568001 
L 239.333968 53.568001 
L 242.42983 53.568 
L 245.366859 53.568 
L 248.160559 53.568 
L 250.824272 53.568 
" clip-path="url(#p5a74df6622)" style="fill: none; stroke: #d62728; stroke-width: 1.5; stroke-linecap: square"/>
   </g>
   <g id="line2d_41">
    <path d="M -1 75.218436 
L 73.832727 75.215187 
L 113.521988 69.490057 
L 136.738717 65.489333 
L 153.211249 61.547695 
L 165.988337 57.655288 
L 176.427978 53.946656 
L 185.254569 53.721865 
L 192.90051 53.686073 
L 199.644707 53.650569 
L 205.677598 53.625534 
L 211.135011 53.602241 
L 216.117239 53.584908 
L 220.700444 53.568846 
L 224.94383 53.568173 
L 228.894327 53.568009 
L 232.589771 53.568001 
L 236.061106 53.568001 
L 239.333968 53.568001 
L 242.42983 53.568001 
L 245.366859 53.568 
L 248.160559 53.568 
L 250.824272 53.568 
L 253.369558 53.568 
L 255.8065 53.568 
L 258.143947 53.568 
L 260.389705 53.568 
L 262.550698 53.568 
" clip-path="url(#p5a74df6622)" style="fill: none; stroke: #9467bd; stroke-width: 1.5; stroke-linecap: square"/>
   </g>
   <g id="line2d_42">
    <path d="M -1 70.345729 
L 73.832727 70.341416 
L 113.521988 64.01711 
L 136.738717 57.693383 
L 153.211249 53.730282 
L 165.988337 53.690901 
L 176.427978 53.651683 
L 185.254569 53.6249 
L 192.90051 53.603638 
L 199.644707 53.584492 
L 205.677598 53.56918 
L 211.135011 53.568444 
L 216.117239 53.568264 
L 220.700444 53.568092 
L 224.94383 53.568002 
L 228.894327 53.568001 
L 232.589771 53.568001 
L 236.061106 53.568001 
L 239.333968 53.568 
L 242.42983 53.568 
L 245.366859 53.568 
L 248.160559 53.568 
L 250.824272 53.568 
L 253.369558 53.568 
L 255.8065 53.568 
L 258.143947 53.568 
" clip-path="url(#p5a74df6622)" style="fill: none; stroke: #8c564b; stroke-width: 1.5; stroke-linecap: square"/>
   </g>
   <g id="line2d_43">
    <path d="M -1 76.048224 
L 73.832727 76.043669 
L 113.521988 69.389497 
L 136.738717 65.725268 
L 153.211249 62.627363 
L 165.988337 59.756692 
L 176.427978 57.710064 
L 185.254569 55.957335 
L 192.90051 55.574498 
L 199.644707 55.193267 
L 205.677598 54.933129 
L 211.135011 54.703952 
L 216.117239 54.496445 
L 220.700444 54.308108 
L 224.94383 54.151162 
L 228.894327 54.035659 
L 232.589771 53.921423 
L 236.061106 53.807419 
L 239.333968 53.775205 
L 242.42983 53.743863 
L 245.366859 53.718876 
L 248.160559 53.700104 
L 250.824272 53.68136 
L 253.369558 53.662633 
L 255.8065 53.644008 
L 258.143947 53.626448 
L 260.389705 53.609429 
L 262.550698 53.593738 
L 264.633091 53.580932 
L 266.642402 53.568293 
L 268.583588 53.568177 
L 270.461117 53.568061 
L 272.279031 53.568014 
L 274.041001 53.568009 
L 275.750367 53.568006 
L 277.410179 53.568005 
L 279.023229 53.568003 
L 280.592081 53.568002 
L 282.119091 53.568001 
L 283.606435 53.568001 
L 285.05612 53.568 
L 286.470006 53.568 
" clip-path="url(#p5a74df6622)" style="fill: none; stroke: #e377c2; stroke-width: 1.5; stroke-linecap: square"/>
   </g>
   <g id="line2d_44">
    <path d="M -1 198.31114 
L 73.832727 198.277099 
L 113.521988 156.582497 
L 153.211249 125.318397 
L 165.988337 112.673376 
L 176.427978 101.771331 
L 185.254569 97.488628 
L 192.90051 94.440562 
L 199.644707 91.486961 
L 216.117239 85.163019 
L 220.700444 83.565909 
L 224.94383 82.234269 
L 236.061106 79.039786 
L 242.42983 76.987396 
L 248.160559 74.935017 
L 255.8065 71.878009 
L 262.550698 68.975708 
L 270.461117 66.074747 
L 279.023229 62.851308 
L 293.058818 58.034215 
L 297.833208 56.820289 
L 301.169656 56.118807 
L 307.310482 55.304598 
L 316.275548 54.201097 
L 321.808352 53.966968 
L 333.367107 53.713184 
L 353.851672 53.59412 
L 398.487273 53.568 
L 398.487273 53.568 
" clip-path="url(#p5a74df6622)" style="fill: none; stroke: #7f7f7f; stroke-width: 1.5; stroke-linecap: square"/>
   </g>
   <g id="patch_3">
    <path d="M 57.6 307.584 
L 57.6 41.472 
" style="fill: none; stroke: #000000; stroke-width: 0.8; stroke-linejoin: miter; stroke-linecap: square"/>
   </g>
   <g id="patch_4">
    <path d="M 414.72 307.584 
L 414.72 41.472 
" style="fill: none; stroke: #000000; stroke-width: 0.8; stroke-linejoin: miter; stroke-linecap: square"/>
   </g>
   <g id="patch_5">
    <path d="M 57.6 307.584 
L 414.72 307.584 
" style="fill: none; stroke: #000000; stroke-width: 0.8; stroke-linejoin: miter; stroke-linecap: square"/>
   </g>
   <g id="patch_6">
    <path d="M 57.6 41.472 
L 414.72 41.472 
" style="fill: none; stroke: #000000; stroke-width: 0.8; stroke-linejoin: miter; stroke-linecap: square"/>
   </g>
   <g id="text_11">
    <!-- Normalized CDF of captured memory operations -->
    <g transform="translate(90.779063 35.472)scale(0.12 -0.12)">
     <defs>
      <path id="DejaVuSans-6c" d="M 603 4863 
L 1178 4863 
L 1178 0 
L 603 0 
L 603 4863 
z
" transform="scale(0.015625)"/>
      <path id="DejaVuSans-7a" d="M 353 3500 
L 3084 3500 
L 3084 2975 
L 922 459 
L 3084 459 
L 3084 0 
L 275 0 
L 275 525 
L 2438 3041 
L 353 3041 
L 353 3500 
z
" transform="scale(0.015625)"/>
      <path id="DejaVuSans-44" d="M 1259 4147 
L 1259 519 
L 2022 519 
Q 2988 519 3436 956 
Q 3884 1394 3884 2338 
Q 3884 3275 3436 3711 
Q 2988 4147 2022 4147 
L 1259 4147 
z
M 628 4666 
L 1925 4666 
Q 3281 4666 3915 4102 
Q 4550 3538 4550 2338 
Q 4550 1131 3912 565 
Q 3275 0 1925 0 
L 628 0 
L 628 4666 
z
" transform="scale(0.015625)"/>
      <path id="DejaVuSans-46" d="M 628 4666 
L 3309 4666 
L 3309 4134 
L 1259 4134 
L 1259 2759 
L 3109 2759 
L 3109 2228 
L 1259 2228 
L 1259 0 
L 628 0 
L 628 4666 
z
" transform="scale(0.015625)"/>
     </defs>
     <use xlink:href="#DejaVuSans-4e"/>
     <use xlink:href="#DejaVuSans-6f" x="74.804688"/>
     <use xlink:href="#DejaVuSans-72" x="135.986328"/>
     <use xlink:href="#DejaVuSans-6d" x="175.349609"/>
     <use xlink:href="#DejaVuSans-61" x="272.761719"/>
     <use xlink:href="#DejaVuSans-6c" x="334.041016"/>
     <use xlink:href="#DejaVuSans-69" x="361.824219"/>
     <use xlink:href="#DejaVuSans-7a" x="389.607422"/>
     <use xlink:href="#DejaVuSans-65" x="442.097656"/>
     <use xlink:href="#DejaVuSans-64" x="503.621094"/>
     <use xlink:href="#DejaVuSans-20" x="567.097656"/>
     <use xlink:href="#DejaVuSans-43" x="598.884766"/>
     <use xlink:href="#DejaVuSans-44" x="668.708984"/>
     <use xlink:href="#DejaVuSans-46" x="745.710938"/>
     <use xlink:href="#DejaVuSans-20" x="803.230469"/>
     <use xlink:href="#DejaVuSans-6f" x="835.017578"/>
     <use xlink:href="#DejaVuSans-66" x="896.199219"/>
     <use xlink:href="#DejaVuSans-20" x="931.404297"/>
     <use xlink:href="#DejaVuSans-63" x="963.191406"/>
     <use xlink:href="#DejaVuSans-61" x="1018.171875"/>
     <use xlink:href="#DejaVuSans-70" x="1079.451172"/>
     <use xlink:href="#DejaVuSans-74" x="1142.927734"/>
     <use xlink:href="#DejaVuSans-75" x="1182.136719"/>
     <use xlink:href="#DejaVuSans-72" x="1245.515625"/>
     <use xlink:href="#DejaVuSans-65" x="1284.378906"/>
     <use xlink:href="#DejaVuSans-64" x="1345.902344"/>
     <use xlink:href="#DejaVuSans-20" x="1409.378906"/>
     <use xlink:href="#DejaVuSans-6d" x="1441.166016"/>
     <use xlink:href="#DejaVuSans-65" x="1538.578125"/>
     <use xlink:href="#DejaVuSans-6d" x="1600.101562"/>
     <use xlink:href="#DejaVuSans-6f" x="1697.513672"/>
     <use xlink:href="#DejaVuSans-72" x="1758.695312"/>
     <use xlink:href="#DejaVuSans-79" x="1799.808594"/>
     <use xlink:href="#DejaVuSans-20" x="1858.988281"/>
     <use xlink:href="#DejaVuSans-6f" x="1890.775391"/>
     <use xlink:href="#DejaVuSans-70" x="1951.957031"/>
     <use xlink:href="#DejaVuSans-65" x="2015.433594"/>
     <use xlink:href="#DejaVuSans-72" x="2076.957031"/>
     <use xlink:href="#DejaVuSans-61" x="2118.070312"/>
     <use xlink:href="#DejaVuSans-74" x="2179.349609"/>
     <use xlink:href="#DejaVuSans-69" x="2218.558594"/>
     <use xlink:href="#DejaVuSans-6f" x="2246.341797"/>
     <use xlink:href="#DejaVuSans-6e" x="2307.523438"/>
     <use xlink:href="#DejaVuSans-73" x="2370.902344"/>
    </g>
   </g>
   <g id="legend_1">
    <g id="patch_7">
     <path d="M 333.043438 302.584 
L 407.72 302.584 
Q 409.72 302.584 409.72 300.584 
L 409.72 183.60275 
Q 409.72 181.60275 407.72 181.60275 
L 333.043438 181.60275 
Q 331.043438 181.60275 331.043438 183.60275 
L 331.043438 300.584 
Q 331.043438 302.584 333.043438 302.584 
z
" style="fill: #ffffff; opacity: 0.8; stroke: #cccccc; stroke-linejoin: miter"/>
    </g>
    <g id="line2d_45">
     <path d="M 335.043438 189.701187 
L 345.043438 189.701187 
L 355.043438 189.701187 
" style="fill: none; stroke: #1f77b4; stroke-width: 1.5; stroke-linecap: square"/>
    </g>
    <g id="text_12">
     <!-- bc -->
     <g transform="translate(363.043438 193.201187)scale(0.1 -0.1)">
      <use xlink:href="#DejaVuSans-62"/>
      <use xlink:href="#DejaVuSans-63" x="63.476562"/>
     </g>
    </g>
    <g id="line2d_46">
     <path d="M 335.043438 204.379312 
L 345.043438 204.379312 
L 355.043438 204.379312 
" style="fill: none; stroke: #ff7f0e; stroke-width: 1.5; stroke-linecap: square"/>
    </g>
    <g id="text_13">
     <!-- bfs -->
     <g transform="translate(363.043438 207.879312)scale(0.1 -0.1)">
      <use xlink:href="#DejaVuSans-62"/>
      <use xlink:href="#DejaVuSans-66" x="63.476562"/>
      <use xlink:href="#DejaVuSans-73" x="98.681641"/>
     </g>
    </g>
    <g id="line2d_47">
     <path d="M 335.043438 219.057437 
L 345.043438 219.057437 
L 355.043438 219.057437 
" style="fill: none; stroke: #2ca02c; stroke-width: 1.5; stroke-linecap: square"/>
    </g>
    <g id="text_14">
     <!-- cc -->
     <g transform="translate(363.043438 222.557437)scale(0.1 -0.1)">
      <use xlink:href="#DejaVuSans-63"/>
      <use xlink:href="#DejaVuSans-63" x="54.980469"/>
     </g>
    </g>
    <g id="line2d_48">
     <path d="M 335.043438 233.735562 
L 345.043438 233.735562 
L 355.043438 233.735562 
" style="fill: none; stroke: #d62728; stroke-width: 1.5; stroke-linecap: square"/>
    </g>
    <g id="text_15">
     <!-- cc_sv -->
     <g transform="translate(363.043438 237.235562)scale(0.1 -0.1)">
      <defs>
       <path id="DejaVuSans-5f" d="M 3263 -1063 
L 3263 -1509 
L -63 -1509 
L -63 -1063 
L 3263 -1063 
z
" transform="scale(0.015625)"/>
       <path id="DejaVuSans-76" d="M 191 3500 
L 800 3500 
L 1894 563 
L 2988 3500 
L 3597 3500 
L 2284 0 
L 1503 0 
L 191 3500 
z
" transform="scale(0.015625)"/>
      </defs>
      <use xlink:href="#DejaVuSans-63"/>
      <use xlink:href="#DejaVuSans-63" x="54.980469"/>
      <use xlink:href="#DejaVuSans-5f" x="109.960938"/>
      <use xlink:href="#DejaVuSans-73" x="159.960938"/>
      <use xlink:href="#DejaVuSans-76" x="212.060547"/>
     </g>
    </g>
    <g id="line2d_49">
     <path d="M 335.043438 248.691812 
L 345.043438 248.691812 
L 355.043438 248.691812 
" style="fill: none; stroke: #9467bd; stroke-width: 1.5; stroke-linecap: square"/>
    </g>
    <g id="text_16">
     <!-- pr -->
     <g transform="translate(363.043438 252.191812)scale(0.1 -0.1)">
      <use xlink:href="#DejaVuSans-70"/>
      <use xlink:href="#DejaVuSans-72" x="63.476562"/>
     </g>
    </g>
    <g id="line2d_50">
     <path d="M 335.043438 263.369937 
L 345.043438 263.369937 
L 355.043438 263.369937 
" style="fill: none; stroke: #8c564b; stroke-width: 1.5; stroke-linecap: square"/>
    </g>
    <g id="text_17">
     <!-- pr_spmv -->
     <g transform="translate(363.043438 266.869937)scale(0.1 -0.1)">
      <use xlink:href="#DejaVuSans-70"/>
      <use xlink:href="#DejaVuSans-72" x="63.476562"/>
      <use xlink:href="#DejaVuSans-5f" x="104.589844"/>
      <use xlink:href="#DejaVuSans-73" x="154.589844"/>
      <use xlink:href="#DejaVuSans-70" x="206.689453"/>
      <use xlink:href="#DejaVuSans-6d" x="270.166016"/>
      <use xlink:href="#DejaVuSans-76" x="367.578125"/>
     </g>
    </g>
    <g id="line2d_51">
     <path d="M 335.043438 278.326187 
L 345.043438 278.326187 
L 355.043438 278.326187 
" style="fill: none; stroke: #e377c2; stroke-width: 1.5; stroke-linecap: square"/>
    </g>
    <g id="text_18">
     <!-- sssp -->
     <g transform="translate(363.043438 281.826187)scale(0.1 -0.1)">
      <use xlink:href="#DejaVuSans-73"/>
      <use xlink:href="#DejaVuSans-73" x="52.099609"/>
      <use xlink:href="#DejaVuSans-73" x="104.199219"/>
      <use xlink:href="#DejaVuSans-70" x="156.298828"/>
     </g>
    </g>
    <g id="line2d_52">
     <path d="M 335.043438 293.004312 
L 345.043438 293.004312 
L 355.043438 293.004312 
" style="fill: none; stroke: #7f7f7f; stroke-width: 1.5; stroke-linecap: square"/>
    </g>
    <g id="text_19">
     <!-- tc -->
     <g transform="translate(363.043438 296.504312)scale(0.1 -0.1)">
      <use xlink:href="#DejaVuSans-74"/>
      <use xlink:href="#DejaVuSans-63" x="39.208984"/>
     </g>
    </g>
   </g>
  </g>
 </g>
 <defs>
  <clipPath id="p5a74df6622">
   <rect x="57.6" y="41.472" width="357.12" height="266.112"/>
  </clipPath>
 </defs>
</svg>
