<?xml version="1.0" encoding="utf-8" standalone="no"?>
<!DOCTYPE svg PUBLIC "-//W3C//DTD SVG 1.1//EN"
  "http://www.w3.org/Graphics/SVG/1.1/DTD/svg11.dtd">
<svg xmlns:xlink="http://www.w3.org/1999/xlink" width="460.8pt" height="345.6pt" viewBox="0 0 460.8 345.6" xmlns="http://www.w3.org/2000/svg" version="1.1">
 <metadata>
  <rdf:RDF xmlns:dc="http://purl.org/dc/elements/1.1/" xmlns:cc="http://creativecommons.org/ns#" xmlns:rdf="http://www.w3.org/1999/02/22-rdf-syntax-ns#">
   <cc:Work>
    <dc:type rdf:resource="http://purl.org/dc/dcmitype/StillImage"/>
    <dc:date>2024-07-28T16:46:23.513696</dc:date>
    <dc:format>image/svg+xml</dc:format>
    <dc:creator>
     <cc:Agent>
      <dc:title>Matplotlib v3.5.1, https://matplotlib.org/</dc:title>
     </cc:Agent>
    </dc:creator>
   </cc:Work>
  </rdf:RDF>
 </metadata>
 <defs>
  <style type="text/css">*{stroke-linejoin: round; stroke-linecap: butt}</style>
 </defs>
 <g id="figure_1">
  <g id="patch_1">
   <path d="M 0 345.6 
L 460.8 345.6 
L 460.8 0 
L 0 0 
z
" style="fill: #ffffff"/>
  </g>
  <g id="axes_1">
   <g id="patch_2">
    <path d="M 57.6 307.584 
L 414.72 307.584 
L 414.72 41.472 
L 57.6 41.472 
z
" style="fill: #ffffff"/>
   </g>
   <g id="matplotlib.axis_1">
    <g id="xtick_1">
     <g id="line2d_1">
      <path d="M 73.832727 307.584 
L 73.832727 41.472 
" clip-path="url(#pa8c09d8dbb)" style="fill: none; stroke: #b0b0b0; stroke-width: 0.8; stroke-linecap: square"/>
     </g>
     <g id="line2d_2">
      <defs>
       <path id="mee17b1b355" d="M 0 0 
L 0 3.5 
" style="stroke: #000000; stroke-width: 0.8"/>
      </defs>
      <g>
       <use xlink:href="#mee17b1b355" x="73.832727" y="307.584" style="stroke: #000000; stroke-width: 0.8"/>
      </g>
     </g>
     <g id="text_1">
      <!-- $\mathdefault{10^{0}}$ -->
      <g transform="translate(65.032727 322.182437)scale(0.1 -0.1)">
       <defs>
        <path id="DejaVuSans-31" d="M 794 531 
L 1825 531 
L 1825 4091 
L 703 3866 
L 703 4441 
L 1819 4666 
L 2450 4666 
L 2450 531 
L 3481 531 
L 3481 0 
L 794 0 
L 794 531 
z
" transform="scale(0.015625)"/>
        <path id="DejaVuSans-30" d="M 2034 4250 
Q 1547 4250 1301 3770 
Q 1056 3291 1056 2328 
Q 1056 1369 1301 889 
Q 1547 409 2034 409 
Q 2525 409 2770 889 
Q 3016 1369 3016 2328 
Q 3016 3291 2770 3770 
Q 2525 4250 2034 4250 
z
M 2034 4750 
Q 2819 4750 3233 4129 
Q 3647 3509 3647 2328 
Q 3647 1150 3233 529 
Q 2819 -91 2034 -91 
Q 1250 -91 836 529 
Q 422 1150 422 2328 
Q 422 3509 836 4129 
Q 1250 4750 2034 4750 
z
" transform="scale(0.015625)"/>
       </defs>
       <use xlink:href="#DejaVuSans-31" transform="translate(0 0.765625)"/>
       <use xlink:href="#DejaVuSans-30" transform="translate(63.623047 0.765625)"/>
       <use xlink:href="#DejaVuSans-30" transform="translate(128.203125 39.046875)scale(0.7)"/>
      </g>
     </g>
    </g>
    <g id="xtick_2">
     <g id="line2d_3">
      <path d="M 205.677598 307.584 
L 205.677598 41.472 
" clip-path="url(#pa8c09d8dbb)" style="fill: none; stroke: #b0b0b0; stroke-width: 0.8; stroke-linecap: square"/>
     </g>
     <g id="line2d_4">
      <g>
       <use xlink:href="#mee17b1b355" x="205.677598" y="307.584" style="stroke: #000000; stroke-width: 0.8"/>
      </g>
     </g>
     <g id="text_2">
      <!-- $\mathdefault{10^{1}}$ -->
      <g transform="translate(196.877598 322.182437)scale(0.1 -0.1)">
       <use xlink:href="#DejaVuSans-31" transform="translate(0 0.684375)"/>
       <use xlink:href="#DejaVuSans-30" transform="translate(63.623047 0.684375)"/>
       <use xlink:href="#DejaVuSans-31" transform="translate(128.203125 38.965625)scale(0.7)"/>
      </g>
     </g>
    </g>
    <g id="xtick_3">
     <g id="line2d_5">
      <path d="M 337.522469 307.584 
L 337.522469 41.472 
" clip-path="url(#pa8c09d8dbb)" style="fill: none; stroke: #b0b0b0; stroke-width: 0.8; stroke-linecap: square"/>
     </g>
     <g id="line2d_6">
      <g>
       <use xlink:href="#mee17b1b355" x="337.522469" y="307.584" style="stroke: #000000; stroke-width: 0.8"/>
      </g>
     </g>
     <g id="text_3">
      <!-- $\mathdefault{10^{2}}$ -->
      <g transform="translate(328.722469 322.182437)scale(0.1 -0.1)">
       <defs>
        <path id="DejaVuSans-32" d="M 1228 531 
L 3431 531 
L 3431 0 
L 469 0 
L 469 531 
Q 828 903 1448 1529 
Q 2069 2156 2228 2338 
Q 2531 2678 2651 2914 
Q 2772 3150 2772 3378 
Q 2772 3750 2511 3984 
Q 2250 4219 1831 4219 
Q 1534 4219 1204 4116 
Q 875 4013 500 3803 
L 500 4441 
Q 881 4594 1212 4672 
Q 1544 4750 1819 4750 
Q 2544 4750 2975 4387 
Q 3406 4025 3406 3419 
Q 3406 3131 3298 2873 
Q 3191 2616 2906 2266 
Q 2828 2175 2409 1742 
Q 1991 1309 1228 531 
z
" transform="scale(0.015625)"/>
       </defs>
       <use xlink:href="#DejaVuSans-31" transform="translate(0 0.765625)"/>
       <use xlink:href="#DejaVuSans-30" transform="translate(63.623047 0.765625)"/>
       <use xlink:href="#DejaVuSans-32" transform="translate(128.203125 39.046875)scale(0.7)"/>
      </g>
     </g>
    </g>
    <g id="xtick_4">
     <g id="line2d_7">
      <defs>
       <path id="m376eb2ed35" d="M 0 0 
L 0 2 
" style="stroke: #000000; stroke-width: 0.6"/>
      </defs>
      <g>
       <use xlink:href="#m376eb2ed35" x="61.055639" y="307.584" style="stroke: #000000; stroke-width: 0.6"/>
      </g>
     </g>
    </g>
    <g id="xtick_5">
     <g id="line2d_8">
      <g>
       <use xlink:href="#m376eb2ed35" x="67.799837" y="307.584" style="stroke: #000000; stroke-width: 0.6"/>
      </g>
     </g>
    </g>
    <g id="xtick_6">
     <g id="line2d_9">
      <g>
       <use xlink:href="#m376eb2ed35" x="113.521988" y="307.584" style="stroke: #000000; stroke-width: 0.6"/>
      </g>
     </g>
    </g>
    <g id="xtick_7">
     <g id="line2d_10">
      <g>
       <use xlink:href="#m376eb2ed35" x="136.738717" y="307.584" style="stroke: #000000; stroke-width: 0.6"/>
      </g>
     </g>
    </g>
    <g id="xtick_8">
     <g id="line2d_11">
      <g>
       <use xlink:href="#m376eb2ed35" x="153.211249" y="307.584" style="stroke: #000000; stroke-width: 0.6"/>
      </g>
     </g>
    </g>
    <g id="xtick_9">
     <g id="line2d_12">
      <g>
       <use xlink:href="#m376eb2ed35" x="165.988337" y="307.584" style="stroke: #000000; stroke-width: 0.6"/>
      </g>
     </g>
    </g>
    <g id="xtick_10">
     <g id="line2d_13">
      <g>
       <use xlink:href="#m376eb2ed35" x="176.427978" y="307.584" style="stroke: #000000; stroke-width: 0.6"/>
      </g>
     </g>
    </g>
    <g id="xtick_11">
     <g id="line2d_14">
      <g>
       <use xlink:href="#m376eb2ed35" x="185.254569" y="307.584" style="stroke: #000000; stroke-width: 0.6"/>
      </g>
     </g>
    </g>
    <g id="xtick_12">
     <g id="line2d_15">
      <g>
       <use xlink:href="#m376eb2ed35" x="192.90051" y="307.584" style="stroke: #000000; stroke-width: 0.6"/>
      </g>
     </g>
    </g>
    <g id="xtick_13">
     <g id="line2d_16">
      <g>
       <use xlink:href="#m376eb2ed35" x="199.644707" y="307.584" style="stroke: #000000; stroke-width: 0.6"/>
      </g>
     </g>
    </g>
    <g id="xtick_14">
     <g id="line2d_17">
      <g>
       <use xlink:href="#m376eb2ed35" x="245.366859" y="307.584" style="stroke: #000000; stroke-width: 0.6"/>
      </g>
     </g>
    </g>
    <g id="xtick_15">
     <g id="line2d_18">
      <g>
       <use xlink:href="#m376eb2ed35" x="268.583588" y="307.584" style="stroke: #000000; stroke-width: 0.6"/>
      </g>
     </g>
    </g>
    <g id="xtick_16">
     <g id="line2d_19">
      <g>
       <use xlink:href="#m376eb2ed35" x="285.05612" y="307.584" style="stroke: #000000; stroke-width: 0.6"/>
      </g>
     </g>
    </g>
    <g id="xtick_17">
     <g id="line2d_20">
      <g>
       <use xlink:href="#m376eb2ed35" x="297.833208" y="307.584" style="stroke: #000000; stroke-width: 0.6"/>
      </g>
     </g>
    </g>
    <g id="xtick_18">
     <g id="line2d_21">
      <g>
       <use xlink:href="#m376eb2ed35" x="308.272849" y="307.584" style="stroke: #000000; stroke-width: 0.6"/>
      </g>
     </g>
    </g>
    <g id="xtick_19">
     <g id="line2d_22">
      <g>
       <use xlink:href="#m376eb2ed35" x="317.09944" y="307.584" style="stroke: #000000; stroke-width: 0.6"/>
      </g>
     </g>
    </g>
    <g id="xtick_20">
     <g id="line2d_23">
      <g>
       <use xlink:href="#m376eb2ed35" x="324.74538" y="307.584" style="stroke: #000000; stroke-width: 0.6"/>
      </g>
     </g>
    </g>
    <g id="xtick_21">
     <g id="line2d_24">
      <g>
       <use xlink:href="#m376eb2ed35" x="331.489578" y="307.584" style="stroke: #000000; stroke-width: 0.6"/>
      </g>
     </g>
    </g>
    <g id="xtick_22">
     <g id="line2d_25">
      <g>
       <use xlink:href="#m376eb2ed35" x="377.211729" y="307.584" style="stroke: #000000; stroke-width: 0.6"/>
      </g>
     </g>
    </g>
    <g id="xtick_23">
     <g id="line2d_26">
      <g>
       <use xlink:href="#m376eb2ed35" x="400.428459" y="307.584" style="stroke: #000000; stroke-width: 0.6"/>
      </g>
     </g>
    </g>
    <g id="text_4">
     <!-- Number of idiom instances -->
     <g transform="translate(168.819375 335.860562)scale(0.1 -0.1)">
      <defs>
       <path id="DejaVuSans-4e" d="M 628 4666 
L 1478 4666 
L 3547 763 
L 3547 4666 
L 4159 4666 
L 4159 0 
L 3309 0 
L 1241 3903 
L 1241 0 
L 628 0 
L 628 4666 
z
" transform="scale(0.015625)"/>
       <path id="DejaVuSans-75" d="M 544 1381 
L 544 3500 
L 1119 3500 
L 1119 1403 
Q 1119 906 1312 657 
Q 1506 409 1894 409 
Q 2359 409 2629 706 
Q 2900 1003 2900 1516 
L 2900 3500 
L 3475 3500 
L 3475 0 
L 2900 0 
L 2900 538 
Q 2691 219 2414 64 
Q 2138 -91 1772 -91 
Q 1169 -91 856 284 
Q 544 659 544 1381 
z
M 1991 3584 
L 1991 3584 
z
" transform="scale(0.015625)"/>
       <path id="DejaVuSans-6d" d="M 3328 2828 
Q 3544 3216 3844 3400 
Q 4144 3584 4550 3584 
Q 5097 3584 5394 3201 
Q 5691 2819 5691 2113 
L 5691 0 
L 5113 0 
L 5113 2094 
Q 5113 2597 4934 2840 
Q 4756 3084 4391 3084 
Q 3944 3084 3684 2787 
Q 3425 2491 3425 1978 
L 3425 0 
L 2847 0 
L 2847 2094 
Q 2847 2600 2669 2842 
Q 2491 3084 2119 3084 
Q 1678 3084 1418 2786 
Q 1159 2488 1159 1978 
L 1159 0 
L 581 0 
L 581 3500 
L 1159 3500 
L 1159 2956 
Q 1356 3278 1631 3431 
Q 1906 3584 2284 3584 
Q 2666 3584 2933 3390 
Q 3200 3197 3328 2828 
z
" transform="scale(0.015625)"/>
       <path id="DejaVuSans-62" d="M 3116 1747 
Q 3116 2381 2855 2742 
Q 2594 3103 2138 3103 
Q 1681 3103 1420 2742 
Q 1159 2381 1159 1747 
Q 1159 1113 1420 752 
Q 1681 391 2138 391 
Q 2594 391 2855 752 
Q 3116 1113 3116 1747 
z
M 1159 2969 
Q 1341 3281 1617 3432 
Q 1894 3584 2278 3584 
Q 2916 3584 3314 3078 
Q 3713 2572 3713 1747 
Q 3713 922 3314 415 
Q 2916 -91 2278 -91 
Q 1894 -91 1617 61 
Q 1341 213 1159 525 
L 1159 0 
L 581 0 
L 581 4863 
L 1159 4863 
L 1159 2969 
z
" transform="scale(0.015625)"/>
       <path id="DejaVuSans-65" d="M 3597 1894 
L 3597 1613 
L 953 1613 
Q 991 1019 1311 708 
Q 1631 397 2203 397 
Q 2534 397 2845 478 
Q 3156 559 3463 722 
L 3463 178 
Q 3153 47 2828 -22 
Q 2503 -91 2169 -91 
Q 1331 -91 842 396 
Q 353 884 353 1716 
Q 353 2575 817 3079 
Q 1281 3584 2069 3584 
Q 2775 3584 3186 3129 
Q 3597 2675 3597 1894 
z
M 3022 2063 
Q 3016 2534 2758 2815 
Q 2500 3097 2075 3097 
Q 1594 3097 1305 2825 
Q 1016 2553 972 2059 
L 3022 2063 
z
" transform="scale(0.015625)"/>
       <path id="DejaVuSans-72" d="M 2631 2963 
Q 2534 3019 2420 3045 
Q 2306 3072 2169 3072 
Q 1681 3072 1420 2755 
Q 1159 2438 1159 1844 
L 1159 0 
L 581 0 
L 581 3500 
L 1159 3500 
L 1159 2956 
Q 1341 3275 1631 3429 
Q 1922 3584 2338 3584 
Q 2397 3584 2469 3576 
Q 2541 3569 2628 3553 
L 2631 2963 
z
" transform="scale(0.015625)"/>
       <path id="DejaVuSans-20" transform="scale(0.015625)"/>
       <path id="DejaVuSans-6f" d="M 1959 3097 
Q 1497 3097 1228 2736 
Q 959 2375 959 1747 
Q 959 1119 1226 758 
Q 1494 397 1959 397 
Q 2419 397 2687 759 
Q 2956 1122 2956 1747 
Q 2956 2369 2687 2733 
Q 2419 3097 1959 3097 
z
M 1959 3584 
Q 2709 3584 3137 3096 
Q 3566 2609 3566 1747 
Q 3566 888 3137 398 
Q 2709 -91 1959 -91 
Q 1206 -91 779 398 
Q 353 888 353 1747 
Q 353 2609 779 3096 
Q 1206 3584 1959 3584 
z
" transform="scale(0.015625)"/>
       <path id="DejaVuSans-66" d="M 2375 4863 
L 2375 4384 
L 1825 4384 
Q 1516 4384 1395 4259 
Q 1275 4134 1275 3809 
L 1275 3500 
L 2222 3500 
L 2222 3053 
L 1275 3053 
L 1275 0 
L 697 0 
L 697 3053 
L 147 3053 
L 147 3500 
L 697 3500 
L 697 3744 
Q 697 4328 969 4595 
Q 1241 4863 1831 4863 
L 2375 4863 
z
" transform="scale(0.015625)"/>
       <path id="DejaVuSans-69" d="M 603 3500 
L 1178 3500 
L 1178 0 
L 603 0 
L 603 3500 
z
M 603 4863 
L 1178 4863 
L 1178 4134 
L 603 4134 
L 603 4863 
z
" transform="scale(0.015625)"/>
       <path id="DejaVuSans-64" d="M 2906 2969 
L 2906 4863 
L 3481 4863 
L 3481 0 
L 2906 0 
L 2906 525 
Q 2725 213 2448 61 
Q 2172 -91 1784 -91 
Q 1150 -91 751 415 
Q 353 922 353 1747 
Q 353 2572 751 3078 
Q 1150 3584 1784 3584 
Q 2172 3584 2448 3432 
Q 2725 3281 2906 2969 
z
M 947 1747 
Q 947 1113 1208 752 
Q 1469 391 1925 391 
Q 2381 391 2643 752 
Q 2906 1113 2906 1747 
Q 2906 2381 2643 2742 
Q 2381 3103 1925 3103 
Q 1469 3103 1208 2742 
Q 947 2381 947 1747 
z
" transform="scale(0.015625)"/>
       <path id="DejaVuSans-6e" d="M 3513 2113 
L 3513 0 
L 2938 0 
L 2938 2094 
Q 2938 2591 2744 2837 
Q 2550 3084 2163 3084 
Q 1697 3084 1428 2787 
Q 1159 2491 1159 1978 
L 1159 0 
L 581 0 
L 581 3500 
L 1159 3500 
L 1159 2956 
Q 1366 3272 1645 3428 
Q 1925 3584 2291 3584 
Q 2894 3584 3203 3211 
Q 3513 2838 3513 2113 
z
" transform="scale(0.015625)"/>
       <path id="DejaVuSans-73" d="M 2834 3397 
L 2834 2853 
Q 2591 2978 2328 3040 
Q 2066 3103 1784 3103 
Q 1356 3103 1142 2972 
Q 928 2841 928 2578 
Q 928 2378 1081 2264 
Q 1234 2150 1697 2047 
L 1894 2003 
Q 2506 1872 2764 1633 
Q 3022 1394 3022 966 
Q 3022 478 2636 193 
Q 2250 -91 1575 -91 
Q 1294 -91 989 -36 
Q 684 19 347 128 
L 347 722 
Q 666 556 975 473 
Q 1284 391 1588 391 
Q 1994 391 2212 530 
Q 2431 669 2431 922 
Q 2431 1156 2273 1281 
Q 2116 1406 1581 1522 
L 1381 1569 
Q 847 1681 609 1914 
Q 372 2147 372 2553 
Q 372 3047 722 3315 
Q 1072 3584 1716 3584 
Q 2034 3584 2315 3537 
Q 2597 3491 2834 3397 
z
" transform="scale(0.015625)"/>
       <path id="DejaVuSans-74" d="M 1172 4494 
L 1172 3500 
L 2356 3500 
L 2356 3053 
L 1172 3053 
L 1172 1153 
Q 1172 725 1289 603 
Q 1406 481 1766 481 
L 2356 481 
L 2356 0 
L 1766 0 
Q 1100 0 847 248 
Q 594 497 594 1153 
L 594 3053 
L 172 3053 
L 172 3500 
L 594 3500 
L 594 4494 
L 1172 4494 
z
" transform="scale(0.015625)"/>
       <path id="DejaVuSans-61" d="M 2194 1759 
Q 1497 1759 1228 1600 
Q 959 1441 959 1056 
Q 959 750 1161 570 
Q 1363 391 1709 391 
Q 2188 391 2477 730 
Q 2766 1069 2766 1631 
L 2766 1759 
L 2194 1759 
z
M 3341 1997 
L 3341 0 
L 2766 0 
L 2766 531 
Q 2569 213 2275 61 
Q 1981 -91 1556 -91 
Q 1019 -91 701 211 
Q 384 513 384 1019 
Q 384 1609 779 1909 
Q 1175 2209 1959 2209 
L 2766 2209 
L 2766 2266 
Q 2766 2663 2505 2880 
Q 2244 3097 1772 3097 
Q 1472 3097 1187 3025 
Q 903 2953 641 2809 
L 641 3341 
Q 956 3463 1253 3523 
Q 1550 3584 1831 3584 
Q 2591 3584 2966 3190 
Q 3341 2797 3341 1997 
z
" transform="scale(0.015625)"/>
       <path id="DejaVuSans-63" d="M 3122 3366 
L 3122 2828 
Q 2878 2963 2633 3030 
Q 2388 3097 2138 3097 
Q 1578 3097 1268 2742 
Q 959 2388 959 1747 
Q 959 1106 1268 751 
Q 1578 397 2138 397 
Q 2388 397 2633 464 
Q 2878 531 3122 666 
L 3122 134 
Q 2881 22 2623 -34 
Q 2366 -91 2075 -91 
Q 1284 -91 818 406 
Q 353 903 353 1747 
Q 353 2603 823 3093 
Q 1294 3584 2113 3584 
Q 2378 3584 2631 3529 
Q 2884 3475 3122 3366 
z
" transform="scale(0.015625)"/>
      </defs>
      <use xlink:href="#DejaVuSans-4e"/>
      <use xlink:href="#DejaVuSans-75" x="74.804688"/>
      <use xlink:href="#DejaVuSans-6d" x="138.183594"/>
      <use xlink:href="#DejaVuSans-62" x="235.595703"/>
      <use xlink:href="#DejaVuSans-65" x="299.072266"/>
      <use xlink:href="#DejaVuSans-72" x="360.595703"/>
      <use xlink:href="#DejaVuSans-20" x="401.708984"/>
      <use xlink:href="#DejaVuSans-6f" x="433.496094"/>
      <use xlink:href="#DejaVuSans-66" x="494.677734"/>
      <use xlink:href="#DejaVuSans-20" x="529.882812"/>
      <use xlink:href="#DejaVuSans-69" x="561.669922"/>
      <use xlink:href="#DejaVuSans-64" x="589.453125"/>
      <use xlink:href="#DejaVuSans-69" x="652.929688"/>
      <use xlink:href="#DejaVuSans-6f" x="680.712891"/>
      <use xlink:href="#DejaVuSans-6d" x="741.894531"/>
      <use xlink:href="#DejaVuSans-20" x="839.306641"/>
      <use xlink:href="#DejaVuSans-69" x="871.09375"/>
      <use xlink:href="#DejaVuSans-6e" x="898.876953"/>
      <use xlink:href="#DejaVuSans-73" x="962.255859"/>
      <use xlink:href="#DejaVuSans-74" x="1014.355469"/>
      <use xlink:href="#DejaVuSans-61" x="1053.564453"/>
      <use xlink:href="#DejaVuSans-6e" x="1114.84375"/>
      <use xlink:href="#DejaVuSans-63" x="1178.222656"/>
      <use xlink:href="#DejaVuSans-65" x="1233.203125"/>
      <use xlink:href="#DejaVuSans-73" x="1294.726562"/>
     </g>
    </g>
   </g>
   <g id="matplotlib.axis_2">
    <g id="ytick_1">
     <g id="line2d_27">
      <path d="M 57.6 263.856694 
L 414.72 263.856694 
" clip-path="url(#pa8c09d8dbb)" style="fill: none; stroke: #b0b0b0; stroke-width: 0.8; stroke-linecap: square"/>
     </g>
     <g id="line2d_28">
      <defs>
       <path id="m07d3d1ae19" d="M 0 0 
L -3.5 0 
" style="stroke: #000000; stroke-width: 0.8"/>
      </defs>
      <g>
       <use xlink:href="#m07d3d1ae19" x="57.6" y="263.856694" style="stroke: #000000; stroke-width: 0.8"/>
      </g>
     </g>
     <g id="text_5">
      <!-- 20 -->
      <g transform="translate(37.875 267.655912)scale(0.1 -0.1)">
       <use xlink:href="#DejaVuSans-32"/>
       <use xlink:href="#DejaVuSans-30" x="63.623047"/>
      </g>
     </g>
    </g>
    <g id="ytick_2">
     <g id="line2d_29">
      <path d="M 57.6 207.012721 
L 414.72 207.012721 
" clip-path="url(#pa8c09d8dbb)" style="fill: none; stroke: #b0b0b0; stroke-width: 0.8; stroke-linecap: square"/>
     </g>
     <g id="line2d_30">
      <g>
       <use xlink:href="#m07d3d1ae19" x="57.6" y="207.012721" style="stroke: #000000; stroke-width: 0.8"/>
      </g>
     </g>
     <g id="text_6">
      <!-- 40 -->
      <g transform="translate(37.875 210.811939)scale(0.1 -0.1)">
       <defs>
        <path id="DejaVuSans-34" d="M 2419 4116 
L 825 1625 
L 2419 1625 
L 2419 4116 
z
M 2253 4666 
L 3047 4666 
L 3047 1625 
L 3713 1625 
L 3713 1100 
L 3047 1100 
L 3047 0 
L 2419 0 
L 2419 1100 
L 313 1100 
L 313 1709 
L 2253 4666 
z
" transform="scale(0.015625)"/>
       </defs>
       <use xlink:href="#DejaVuSans-34"/>
       <use xlink:href="#DejaVuSans-30" x="63.623047"/>
      </g>
     </g>
    </g>
    <g id="ytick_3">
     <g id="line2d_31">
      <path d="M 57.6 150.168747 
L 414.72 150.168747 
" clip-path="url(#pa8c09d8dbb)" style="fill: none; stroke: #b0b0b0; stroke-width: 0.8; stroke-linecap: square"/>
     </g>
     <g id="line2d_32">
      <g>
       <use xlink:href="#m07d3d1ae19" x="57.6" y="150.168747" style="stroke: #000000; stroke-width: 0.8"/>
      </g>
     </g>
     <g id="text_7">
      <!-- 60 -->
      <g transform="translate(37.875 153.967966)scale(0.1 -0.1)">
       <defs>
        <path id="DejaVuSans-36" d="M 2113 2584 
Q 1688 2584 1439 2293 
Q 1191 2003 1191 1497 
Q 1191 994 1439 701 
Q 1688 409 2113 409 
Q 2538 409 2786 701 
Q 3034 994 3034 1497 
Q 3034 2003 2786 2293 
Q 2538 2584 2113 2584 
z
M 3366 4563 
L 3366 3988 
Q 3128 4100 2886 4159 
Q 2644 4219 2406 4219 
Q 1781 4219 1451 3797 
Q 1122 3375 1075 2522 
Q 1259 2794 1537 2939 
Q 1816 3084 2150 3084 
Q 2853 3084 3261 2657 
Q 3669 2231 3669 1497 
Q 3669 778 3244 343 
Q 2819 -91 2113 -91 
Q 1303 -91 875 529 
Q 447 1150 447 2328 
Q 447 3434 972 4092 
Q 1497 4750 2381 4750 
Q 2619 4750 2861 4703 
Q 3103 4656 3366 4563 
z
" transform="scale(0.015625)"/>
       </defs>
       <use xlink:href="#DejaVuSans-36"/>
       <use xlink:href="#DejaVuSans-30" x="63.623047"/>
      </g>
     </g>
    </g>
    <g id="ytick_4">
     <g id="line2d_33">
      <path d="M 57.6 93.324774 
L 414.72 93.324774 
" clip-path="url(#pa8c09d8dbb)" style="fill: none; stroke: #b0b0b0; stroke-width: 0.8; stroke-linecap: square"/>
     </g>
     <g id="line2d_34">
      <g>
       <use xlink:href="#m07d3d1ae19" x="57.6" y="93.324774" style="stroke: #000000; stroke-width: 0.8"/>
      </g>
     </g>
     <g id="text_8">
      <!-- 80 -->
      <g transform="translate(37.875 97.123993)scale(0.1 -0.1)">
       <defs>
        <path id="DejaVuSans-38" d="M 2034 2216 
Q 1584 2216 1326 1975 
Q 1069 1734 1069 1313 
Q 1069 891 1326 650 
Q 1584 409 2034 409 
Q 2484 409 2743 651 
Q 3003 894 3003 1313 
Q 3003 1734 2745 1975 
Q 2488 2216 2034 2216 
z
M 1403 2484 
Q 997 2584 770 2862 
Q 544 3141 544 3541 
Q 544 4100 942 4425 
Q 1341 4750 2034 4750 
Q 2731 4750 3128 4425 
Q 3525 4100 3525 3541 
Q 3525 3141 3298 2862 
Q 3072 2584 2669 2484 
Q 3125 2378 3379 2068 
Q 3634 1759 3634 1313 
Q 3634 634 3220 271 
Q 2806 -91 2034 -91 
Q 1263 -91 848 271 
Q 434 634 434 1313 
Q 434 1759 690 2068 
Q 947 2378 1403 2484 
z
M 1172 3481 
Q 1172 3119 1398 2916 
Q 1625 2713 2034 2713 
Q 2441 2713 2670 2916 
Q 2900 3119 2900 3481 
Q 2900 3844 2670 4047 
Q 2441 4250 2034 4250 
Q 1625 4250 1398 4047 
Q 1172 3844 1172 3481 
z
" transform="scale(0.015625)"/>
       </defs>
       <use xlink:href="#DejaVuSans-38"/>
       <use xlink:href="#DejaVuSans-30" x="63.623047"/>
      </g>
     </g>
    </g>
    <g id="text_9">
     <!-- Captured memory operations (%) -->
     <g transform="translate(31.795312 258.503)rotate(-90)scale(0.1 -0.1)">
      <defs>
       <path id="DejaVuSans-43" d="M 4122 4306 
L 4122 3641 
Q 3803 3938 3442 4084 
Q 3081 4231 2675 4231 
Q 1875 4231 1450 3742 
Q 1025 3253 1025 2328 
Q 1025 1406 1450 917 
Q 1875 428 2675 428 
Q 3081 428 3442 575 
Q 3803 722 4122 1019 
L 4122 359 
Q 3791 134 3420 21 
Q 3050 -91 2638 -91 
Q 1578 -91 968 557 
Q 359 1206 359 2328 
Q 359 3453 968 4101 
Q 1578 4750 2638 4750 
Q 3056 4750 3426 4639 
Q 3797 4528 4122 4306 
z
" transform="scale(0.015625)"/>
       <path id="DejaVuSans-70" d="M 1159 525 
L 1159 -1331 
L 581 -1331 
L 581 3500 
L 1159 3500 
L 1159 2969 
Q 1341 3281 1617 3432 
Q 1894 3584 2278 3584 
Q 2916 3584 3314 3078 
Q 3713 2572 3713 1747 
Q 3713 922 3314 415 
Q 2916 -91 2278 -91 
Q 1894 -91 1617 61 
Q 1341 213 1159 525 
z
M 3116 1747 
Q 3116 2381 2855 2742 
Q 2594 3103 2138 3103 
Q 1681 3103 1420 2742 
Q 1159 2381 1159 1747 
Q 1159 1113 1420 752 
Q 1681 391 2138 391 
Q 2594 391 2855 752 
Q 3116 1113 3116 1747 
z
" transform="scale(0.015625)"/>
       <path id="DejaVuSans-79" d="M 2059 -325 
Q 1816 -950 1584 -1140 
Q 1353 -1331 966 -1331 
L 506 -1331 
L 506 -850 
L 844 -850 
Q 1081 -850 1212 -737 
Q 1344 -625 1503 -206 
L 1606 56 
L 191 3500 
L 800 3500 
L 1894 763 
L 2988 3500 
L 3597 3500 
L 2059 -325 
z
" transform="scale(0.015625)"/>
       <path id="DejaVuSans-28" d="M 1984 4856 
Q 1566 4138 1362 3434 
Q 1159 2731 1159 2009 
Q 1159 1288 1364 580 
Q 1569 -128 1984 -844 
L 1484 -844 
Q 1016 -109 783 600 
Q 550 1309 550 2009 
Q 550 2706 781 3412 
Q 1013 4119 1484 4856 
L 1984 4856 
z
" transform="scale(0.015625)"/>
       <path id="DejaVuSans-25" d="M 4653 2053 
Q 4381 2053 4226 1822 
Q 4072 1591 4072 1178 
Q 4072 772 4226 539 
Q 4381 306 4653 306 
Q 4919 306 5073 539 
Q 5228 772 5228 1178 
Q 5228 1588 5073 1820 
Q 4919 2053 4653 2053 
z
M 4653 2450 
Q 5147 2450 5437 2106 
Q 5728 1763 5728 1178 
Q 5728 594 5436 251 
Q 5144 -91 4653 -91 
Q 4153 -91 3862 251 
Q 3572 594 3572 1178 
Q 3572 1766 3864 2108 
Q 4156 2450 4653 2450 
z
M 1428 4353 
Q 1159 4353 1004 4120 
Q 850 3888 850 3481 
Q 850 3069 1003 2837 
Q 1156 2606 1428 2606 
Q 1700 2606 1854 2837 
Q 2009 3069 2009 3481 
Q 2009 3884 1853 4118 
Q 1697 4353 1428 4353 
z
M 4250 4750 
L 4750 4750 
L 1831 -91 
L 1331 -91 
L 4250 4750 
z
M 1428 4750 
Q 1922 4750 2215 4408 
Q 2509 4066 2509 3481 
Q 2509 2891 2217 2550 
Q 1925 2209 1428 2209 
Q 931 2209 642 2551 
Q 353 2894 353 3481 
Q 353 4063 643 4406 
Q 934 4750 1428 4750 
z
" transform="scale(0.015625)"/>
       <path id="DejaVuSans-29" d="M 513 4856 
L 1013 4856 
Q 1481 4119 1714 3412 
Q 1947 2706 1947 2009 
Q 1947 1309 1714 600 
Q 1481 -109 1013 -844 
L 513 -844 
Q 928 -128 1133 580 
Q 1338 1288 1338 2009 
Q 1338 2731 1133 3434 
Q 928 4138 513 4856 
z
" transform="scale(0.015625)"/>
      </defs>
      <use xlink:href="#DejaVuSans-43"/>
      <use xlink:href="#DejaVuSans-61" x="69.824219"/>
      <use xlink:href="#DejaVuSans-70" x="131.103516"/>
      <use xlink:href="#DejaVuSans-74" x="194.580078"/>
      <use xlink:href="#DejaVuSans-75" x="233.789062"/>
      <use xlink:href="#DejaVuSans-72" x="297.167969"/>
      <use xlink:href="#DejaVuSans-65" x="336.03125"/>
      <use xlink:href="#DejaVuSans-64" x="397.554688"/>
      <use xlink:href="#DejaVuSans-20" x="461.03125"/>
      <use xlink:href="#DejaVuSans-6d" x="492.818359"/>
      <use xlink:href="#DejaVuSans-65" x="590.230469"/>
      <use xlink:href="#DejaVuSans-6d" x="651.753906"/>
      <use xlink:href="#DejaVuSans-6f" x="749.166016"/>
      <use xlink:href="#DejaVuSans-72" x="810.347656"/>
      <use xlink:href="#DejaVuSans-79" x="851.460938"/>
      <use xlink:href="#DejaVuSans-20" x="910.640625"/>
      <use xlink:href="#DejaVuSans-6f" x="942.427734"/>
      <use xlink:href="#DejaVuSans-70" x="1003.609375"/>
      <use xlink:href="#DejaVuSans-65" x="1067.085938"/>
      <use xlink:href="#DejaVuSans-72" x="1128.609375"/>
      <use xlink:href="#DejaVuSans-61" x="1169.722656"/>
      <use xlink:href="#DejaVuSans-74" x="1231.001953"/>
      <use xlink:href="#DejaVuSans-69" x="1270.210938"/>
      <use xlink:href="#DejaVuSans-6f" x="1297.994141"/>
      <use xlink:href="#DejaVuSans-6e" x="1359.175781"/>
      <use xlink:href="#DejaVuSans-73" x="1422.554688"/>
      <use xlink:href="#DejaVuSans-20" x="1474.654297"/>
      <use xlink:href="#DejaVuSans-28" x="1506.441406"/>
      <use xlink:href="#DejaVuSans-25" x="1545.455078"/>
      <use xlink:href="#DejaVuSans-29" x="1640.474609"/>
     </g>
    </g>
   </g>
   <g id="line2d_35">
    <path d="M -1 142.011158 
L 73.832727 141.98388 
L 113.521988 99.998834 
L 136.738717 88.721611 
L 153.211249 81.314873 
L 165.988337 75.932117 
L 176.427978 71.254632 
L 185.254569 68.683989 
L 192.90051 67.158608 
L 199.644707 66.360685 
L 205.677598 65.569053 
L 211.135011 64.785434 
L 216.117239 64.012537 
L 220.700444 63.239661 
L 224.94383 62.472278 
L 228.894327 61.956164 
L 232.589771 61.480292 
L 236.061106 61.030195 
L 239.333968 60.643724 
L 242.42983 60.257298 
L 245.366859 59.871538 
L 248.160559 59.485866 
L 250.824272 59.102091 
L 253.369558 58.908834 
L 255.8065 58.71562 
L 258.143947 58.584804 
L 260.389705 58.47735 
L 262.550698 58.383763 
L 264.633091 58.304303 
L 266.642402 58.287758 
L 268.583588 58.281782 
L 270.461117 58.281247 
L 272.279031 58.281062 
L 274.041001 58.280986 
L 275.750367 58.280918 
L 277.410179 58.280873 
L 279.023229 58.280857 
L 280.592081 58.28085 
L 282.119091 58.280847 
L 283.606435 58.280845 
L 285.05612 58.280843 
L 286.470006 58.280841 
L 287.84982 58.28084 
L 289.197164 58.28084 
L 290.513533 58.280839 
L 291.800317 58.280839 
L 293.058818 58.280838 
L 294.290253 58.280838 
L 295.495761 58.280838 
L 296.676411 58.280838 
" clip-path="url(#pa8c09d8dbb)" style="fill: none; stroke: #1f77b4; stroke-width: 1.5; stroke-linecap: square"/>
   </g>
   <g id="line2d_36">
    <path d="M -1 226.785956 
L 73.832727 226.761408 
L 113.521988 193.151525 
L 136.738717 170.865764 
L 153.211249 148.580064 
L 165.988337 127.266375 
L 176.427978 106.125732 
L 185.254569 95.347717 
L 192.90051 88.654545 
L 199.644707 83.361317 
L 205.677598 79.436404 
L 211.135011 75.537437 
L 216.117239 71.660206 
L 220.700444 69.977986 
L 224.94383 68.612673 
L 228.894327 67.777933 
L 232.589771 67.001725 
L 236.061106 66.364921 
L 239.333968 65.744582 
L 242.42983 65.18542 
L 245.366859 65.169365 
L 248.160559 65.166963 
L 250.824272 65.165514 
L 253.369558 65.164229 
L 255.8065 65.163636 
L 258.143947 65.163414 
L 260.389705 65.163374 
L 262.550698 65.163358 
L 264.633091 65.163349 
L 266.642402 65.163339 
L 268.583588 65.163332 
L 270.461117 65.163326 
L 272.279031 65.16332 
L 274.041001 65.163315 
L 275.750367 65.163312 
L 277.410179 65.16331 
L 279.023229 65.163308 
" clip-path="url(#pa8c09d8dbb)" style="fill: none; stroke: #ff7f0e; stroke-width: 1.5; stroke-linecap: square"/>
   </g>
   <g id="line2d_37">
    <path d="M -1 255.020141 
L 73.832727 255.003519 
L 113.521988 225.720725 
L 136.738717 206.198862 
L 153.211249 189.088635 
L 165.988337 174.441482 
L 176.427978 160.537287 
L 185.254569 150.776216 
L 192.90051 142.612223 
L 199.644707 134.871144 
L 205.677598 128.130643 
L 211.135011 123.711793 
L 216.117239 120.15855 
L 220.700444 116.668199 
L 224.94383 114.583024 
L 228.894327 113.780878 
L 232.589771 113.172269 
L 236.061106 112.581275 
L 239.333968 112.113726 
L 242.42983 112.101709 
L 245.366859 112.09024 
L 248.160559 112.080708 
L 250.824272 112.071176 
L 253.369558 112.063608 
L 255.8065 112.056664 
L 258.143947 112.052009 
L 260.389705 112.047392 
L 262.550698 112.042775 
L 264.633091 112.039033 
L 266.642402 112.035542 
L 268.583588 112.032061 
L 270.461117 112.028588 
L 272.279031 112.026392 
L 274.041001 112.024781 
L 275.750367 112.023171 
L 277.410179 112.021579 
L 279.023229 112.020462 
L 280.592081 112.019345 
L 282.119091 112.018246 
L 283.606435 112.018228 
L 285.05612 112.01821 
L 286.470006 112.018199 
L 287.84982 112.018191 
L 289.197164 112.018184 
L 290.513533 112.01818 
L 291.800317 112.018175 
L 293.058818 112.018173 
L 294.290253 112.01817 
L 295.495761 112.018169 
L 296.676411 112.018169 
" clip-path="url(#pa8c09d8dbb)" style="fill: none; stroke: #2ca02c; stroke-width: 1.5; stroke-linecap: square"/>
   </g>
   <g id="line2d_38">
    <path d="M -1 115.518703 
L 73.832727 115.465082 
L 113.521988 109.009102 
L 136.738717 105.781136 
L 153.211249 104.709334 
L 165.988337 104.122691 
L 176.427978 103.589907 
L 185.254569 103.506109 
L 192.90051 103.440961 
L 199.644707 103.400809 
L 205.677598 103.363789 
L 211.135011 103.363697 
L 216.117239 103.363696 
L 220.700444 103.363695 
L 224.94383 103.363694 
L 228.894327 103.363694 
L 232.589771 103.363694 
L 236.061106 103.363693 
L 239.333968 103.363693 
L 242.42983 103.363693 
L 245.366859 103.363693 
L 248.160559 103.363693 
L 250.824272 103.363693 
" clip-path="url(#pa8c09d8dbb)" style="fill: none; stroke: #d62728; stroke-width: 1.5; stroke-linecap: square"/>
   </g>
   <g id="line2d_39">
    <path d="M -1 73.30334 
L 73.832727 73.300378 
L 113.521988 68.081666 
L 136.738717 64.434828 
L 153.211249 60.841849 
L 165.988337 57.293746 
L 176.427978 53.913162 
L 185.254569 53.708255 
L 192.90051 53.675629 
L 199.644707 53.643265 
L 205.677598 53.620445 
L 211.135011 53.599212 
L 216.117239 53.583413 
L 220.700444 53.568771 
L 224.94383 53.568158 
L 228.894327 53.568009 
L 232.589771 53.568001 
L 236.061106 53.568001 
L 239.333968 53.568001 
L 242.42983 53.568001 
L 245.366859 53.568 
L 248.160559 53.568 
L 250.824272 53.568 
L 253.369558 53.568 
L 255.8065 53.568 
L 258.143947 53.568 
L 260.389705 53.568 
L 262.550698 53.568 
" clip-path="url(#pa8c09d8dbb)" style="fill: none; stroke: #9467bd; stroke-width: 1.5; stroke-linecap: square"/>
   </g>
   <g id="line2d_40">
    <path d="M -1 71.455705 
L 73.832727 71.451814 
L 113.521988 65.746308 
L 136.738717 60.041323 
L 153.211249 56.46599 
L 165.988337 56.430462 
L 176.427978 56.395081 
L 185.254569 56.370919 
L 192.90051 56.351737 
L 199.644707 56.334465 
L 205.677598 56.320651 
L 211.135011 56.319988 
L 216.117239 56.319824 
L 220.700444 56.31967 
L 224.94383 56.319588 
L 228.894327 56.319588 
L 232.589771 56.319587 
L 236.061106 56.319587 
L 239.333968 56.319587 
L 242.42983 56.319587 
L 245.366859 56.319587 
L 248.160559 56.319587 
L 250.824272 56.319587 
L 253.369558 56.319587 
L 255.8065 56.319587 
L 258.143947 56.319587 
" clip-path="url(#pa8c09d8dbb)" style="fill: none; stroke: #8c564b; stroke-width: 1.5; stroke-linecap: square"/>
   </g>
   <g id="line2d_41">
    <path d="M -1 134.312838 
L 73.832727 134.3097 
L 113.521988 129.725913 
L 136.738717 127.201776 
L 153.211249 125.067757 
L 165.988337 123.090269 
L 176.427978 121.680431 
L 185.254569 120.473047 
L 192.90051 120.209326 
L 199.644707 119.946712 
L 205.677598 119.767514 
L 211.135011 119.609643 
L 216.117239 119.4667 
L 220.700444 119.336962 
L 224.94383 119.228849 
L 228.894327 119.149284 
L 232.589771 119.070591 
L 236.061106 118.992059 
L 239.333968 118.969867 
L 242.42983 118.948278 
L 245.366859 118.931064 
L 248.160559 118.918133 
L 250.824272 118.905222 
L 253.369558 118.892321 
L 255.8065 118.879491 
L 258.143947 118.867395 
L 260.389705 118.855671 
L 262.550698 118.844862 
L 264.633091 118.836041 
L 266.642402 118.827334 
L 268.583588 118.827254 
L 270.461117 118.827174 
L 272.279031 118.827142 
L 274.041001 118.827138 
L 275.750367 118.827137 
L 277.410179 118.827136 
L 279.023229 118.827135 
L 280.592081 118.827134 
L 282.119091 118.827133 
L 283.606435 118.827133 
L 285.05612 118.827133 
L 286.470006 118.827132 
" clip-path="url(#pa8c09d8dbb)" style="fill: none; stroke: #e377c2; stroke-width: 1.5; stroke-linecap: square"/>
   </g>
   <g id="line2d_42">
    <path d="M -1 278.386266 
L 73.832727 278.376553 
L 113.521988 266.480789 
L 153.211249 257.560921 
L 165.988337 253.953207 
L 176.427978 250.842776 
L 185.254569 249.620891 
L 220.700444 245.648641 
L 250.824272 242.893407 
L 279.023229 239.738619 
L 296.676411 238.091121 
L 304.322352 237.695751 
L 320.281342 237.217407 
L 345.525167 237.103803 
L 398.487273 237.090026 
L 398.487273 237.090026 
" clip-path="url(#pa8c09d8dbb)" style="fill: none; stroke: #7f7f7f; stroke-width: 1.5; stroke-linecap: square"/>
   </g>
   <g id="patch_3">
    <path d="M 57.6 307.584 
L 57.6 41.472 
" style="fill: none; stroke: #000000; stroke-width: 0.8; stroke-linejoin: miter; stroke-linecap: square"/>
   </g>
   <g id="patch_4">
    <path d="M 414.72 307.584 
L 414.72 41.472 
" style="fill: none; stroke: #000000; stroke-width: 0.8; stroke-linejoin: miter; stroke-linecap: square"/>
   </g>
   <g id="patch_5">
    <path d="M 57.6 307.584 
L 414.72 307.584 
" style="fill: none; stroke: #000000; stroke-width: 0.8; stroke-linejoin: miter; stroke-linecap: square"/>
   </g>
   <g id="patch_6">
    <path d="M 57.6 41.472 
L 414.72 41.472 
" style="fill: none; stroke: #000000; stroke-width: 0.8; stroke-linejoin: miter; stroke-linecap: square"/>
   </g>
   <g id="text_10">
    <!-- CDF of captured memory operations -->
    <g transform="translate(126.7125 35.472)scale(0.12 -0.12)">
     <defs>
      <path id="DejaVuSans-44" d="M 1259 4147 
L 1259 519 
L 2022 519 
Q 2988 519 3436 956 
Q 3884 1394 3884 2338 
Q 3884 3275 3436 3711 
Q 2988 4147 2022 4147 
L 1259 4147 
z
M 628 4666 
L 1925 4666 
Q 3281 4666 3915 4102 
Q 4550 3538 4550 2338 
Q 4550 1131 3912 565 
Q 3275 0 1925 0 
L 628 0 
L 628 4666 
z
" transform="scale(0.015625)"/>
      <path id="DejaVuSans-46" d="M 628 4666 
L 3309 4666 
L 3309 4134 
L 1259 4134 
L 1259 2759 
L 3109 2759 
L 3109 2228 
L 1259 2228 
L 1259 0 
L 628 0 
L 628 4666 
z
" transform="scale(0.015625)"/>
     </defs>
     <use xlink:href="#DejaVuSans-43"/>
     <use xlink:href="#DejaVuSans-44" x="69.824219"/>
     <use xlink:href="#DejaVuSans-46" x="146.826172"/>
     <use xlink:href="#DejaVuSans-20" x="204.345703"/>
     <use xlink:href="#DejaVuSans-6f" x="236.132812"/>
     <use xlink:href="#DejaVuSans-66" x="297.314453"/>
     <use xlink:href="#DejaVuSans-20" x="332.519531"/>
     <use xlink:href="#DejaVuSans-63" x="364.306641"/>
     <use xlink:href="#DejaVuSans-61" x="419.287109"/>
     <use xlink:href="#DejaVuSans-70" x="480.566406"/>
     <use xlink:href="#DejaVuSans-74" x="544.042969"/>
     <use xlink:href="#DejaVuSans-75" x="583.251953"/>
     <use xlink:href="#DejaVuSans-72" x="646.630859"/>
     <use xlink:href="#DejaVuSans-65" x="685.494141"/>
     <use xlink:href="#DejaVuSans-64" x="747.017578"/>
     <use xlink:href="#DejaVuSans-20" x="810.494141"/>
     <use xlink:href="#DejaVuSans-6d" x="842.28125"/>
     <use xlink:href="#DejaVuSans-65" x="939.693359"/>
     <use xlink:href="#DejaVuSans-6d" x="1001.216797"/>
     <use xlink:href="#DejaVuSans-6f" x="1098.628906"/>
     <use xlink:href="#DejaVuSans-72" x="1159.810547"/>
     <use xlink:href="#DejaVuSans-79" x="1200.923828"/>
     <use xlink:href="#DejaVuSans-20" x="1260.103516"/>
     <use xlink:href="#DejaVuSans-6f" x="1291.890625"/>
     <use xlink:href="#DejaVuSans-70" x="1353.072266"/>
     <use xlink:href="#DejaVuSans-65" x="1416.548828"/>
     <use xlink:href="#DejaVuSans-72" x="1478.072266"/>
     <use xlink:href="#DejaVuSans-61" x="1519.185547"/>
     <use xlink:href="#DejaVuSans-74" x="1580.464844"/>
     <use xlink:href="#DejaVuSans-69" x="1619.673828"/>
     <use xlink:href="#DejaVuSans-6f" x="1647.457031"/>
     <use xlink:href="#DejaVuSans-6e" x="1708.638672"/>
     <use xlink:href="#DejaVuSans-73" x="1772.017578"/>
    </g>
   </g>
   <g id="legend_1">
    <g id="patch_7">
     <path d="M 333.043438 167.45325 
L 407.72 167.45325 
Q 409.72 167.45325 409.72 165.45325 
L 409.72 48.472 
Q 409.72 46.472 407.72 46.472 
L 333.043438 46.472 
Q 331.043438 46.472 331.043438 48.472 
L 331.043438 165.45325 
Q 331.043438 167.45325 333.043438 167.45325 
z
" style="fill: #ffffff; opacity: 0.8; stroke: #cccccc; stroke-linejoin: miter"/>
    </g>
    <g id="line2d_43">
     <path d="M 335.043438 54.570438 
L 345.043438 54.570438 
L 355.043438 54.570438 
" style="fill: none; stroke: #1f77b4; stroke-width: 1.5; stroke-linecap: square"/>
    </g>
    <g id="text_11">
     <!-- bc -->
     <g transform="translate(363.043438 58.070438)scale(0.1 -0.1)">
      <use xlink:href="#DejaVuSans-62"/>
      <use xlink:href="#DejaVuSans-63" x="63.476562"/>
     </g>
    </g>
    <g id="line2d_44">
     <path d="M 335.043438 69.248563 
L 345.043438 69.248563 
L 355.043438 69.248563 
" style="fill: none; stroke: #ff7f0e; stroke-width: 1.5; stroke-linecap: square"/>
    </g>
    <g id="text_12">
     <!-- bfs -->
     <g transform="translate(363.043438 72.748563)scale(0.1 -0.1)">
      <use xlink:href="#DejaVuSans-62"/>
      <use xlink:href="#DejaVuSans-66" x="63.476562"/>
      <use xlink:href="#DejaVuSans-73" x="98.681641"/>
     </g>
    </g>
    <g id="line2d_45">
     <path d="M 335.043438 83.926688 
L 345.043438 83.926688 
L 355.043438 83.926688 
" style="fill: none; stroke: #2ca02c; stroke-width: 1.5; stroke-linecap: square"/>
    </g>
    <g id="text_13">
     <!-- cc -->
     <g transform="translate(363.043438 87.426688)scale(0.1 -0.1)">
      <use xlink:href="#DejaVuSans-63"/>
      <use xlink:href="#DejaVuSans-63" x="54.980469"/>
     </g>
    </g>
    <g id="line2d_46">
     <path d="M 335.043438 98.604813 
L 345.043438 98.604813 
L 355.043438 98.604813 
" style="fill: none; stroke: #d62728; stroke-width: 1.5; stroke-linecap: square"/>
    </g>
    <g id="text_14">
     <!-- cc_sv -->
     <g transform="translate(363.043438 102.104813)scale(0.1 -0.1)">
      <defs>
       <path id="DejaVuSans-5f" d="M 3263 -1063 
L 3263 -1509 
L -63 -1509 
L -63 -1063 
L 3263 -1063 
z
" transform="scale(0.015625)"/>
       <path id="DejaVuSans-76" d="M 191 3500 
L 800 3500 
L 1894 563 
L 2988 3500 
L 3597 3500 
L 2284 0 
L 1503 0 
L 191 3500 
z
" transform="scale(0.015625)"/>
      </defs>
      <use xlink:href="#DejaVuSans-63"/>
      <use xlink:href="#DejaVuSans-63" x="54.980469"/>
      <use xlink:href="#DejaVuSans-5f" x="109.960938"/>
      <use xlink:href="#DejaVuSans-73" x="159.960938"/>
      <use xlink:href="#DejaVuSans-76" x="212.060547"/>
     </g>
    </g>
    <g id="line2d_47">
     <path d="M 335.043438 113.561063 
L 345.043438 113.561063 
L 355.043438 113.561063 
" style="fill: none; stroke: #9467bd; stroke-width: 1.5; stroke-linecap: square"/>
    </g>
    <g id="text_15">
     <!-- pr -->
     <g transform="translate(363.043438 117.061063)scale(0.1 -0.1)">
      <use xlink:href="#DejaVuSans-70"/>
      <use xlink:href="#DejaVuSans-72" x="63.476562"/>
     </g>
    </g>
    <g id="line2d_48">
     <path d="M 335.043438 128.239188 
L 345.043438 128.239188 
L 355.043438 128.239188 
" style="fill: none; stroke: #8c564b; stroke-width: 1.5; stroke-linecap: square"/>
    </g>
    <g id="text_16">
     <!-- pr_spmv -->
     <g transform="translate(363.043438 131.739188)scale(0.1 -0.1)">
      <use xlink:href="#DejaVuSans-70"/>
      <use xlink:href="#DejaVuSans-72" x="63.476562"/>
      <use xlink:href="#DejaVuSans-5f" x="104.589844"/>
      <use xlink:href="#DejaVuSans-73" x="154.589844"/>
      <use xlink:href="#DejaVuSans-70" x="206.689453"/>
      <use xlink:href="#DejaVuSans-6d" x="270.166016"/>
      <use xlink:href="#DejaVuSans-76" x="367.578125"/>
     </g>
    </g>
    <g id="line2d_49">
     <path d="M 335.043438 143.195438 
L 345.043438 143.195438 
L 355.043438 143.195438 
" style="fill: none; stroke: #e377c2; stroke-width: 1.5; stroke-linecap: square"/>
    </g>
    <g id="text_17">
     <!-- sssp -->
     <g transform="translate(363.043438 146.695438)scale(0.1 -0.1)">
      <use xlink:href="#DejaVuSans-73"/>
      <use xlink:href="#DejaVuSans-73" x="52.099609"/>
      <use xlink:href="#DejaVuSans-73" x="104.199219"/>
      <use xlink:href="#DejaVuSans-70" x="156.298828"/>
     </g>
    </g>
    <g id="line2d_50">
     <path d="M 335.043438 157.873563 
L 345.043438 157.873563 
L 355.043438 157.873563 
" style="fill: none; stroke: #7f7f7f; stroke-width: 1.5; stroke-linecap: square"/>
    </g>
    <g id="text_18">
     <!-- tc -->
     <g transform="translate(363.043438 161.373563)scale(0.1 -0.1)">
      <use xlink:href="#DejaVuSans-74"/>
      <use xlink:href="#DejaVuSans-63" x="39.208984"/>
     </g>
    </g>
   </g>
  </g>
 </g>
 <defs>
  <clipPath id="pa8c09d8dbb">
   <rect x="57.6" y="41.472" width="357.12" height="266.112"/>
  </clipPath>
 </defs>
</svg>
