<?xml version="1.0" encoding="utf-8" standalone="no"?>
<!DOCTYPE svg PUBLIC "-//W3C//DTD SVG 1.1//EN"
  "http://www.w3.org/Graphics/SVG/1.1/DTD/svg11.dtd">
<svg xmlns:xlink="http://www.w3.org/1999/xlink" width="460.8pt" height="345.6pt" viewBox="0 0 460.8 345.6" xmlns="http://www.w3.org/2000/svg" version="1.1">
 <metadata>
  <rdf:RDF xmlns:dc="http://purl.org/dc/elements/1.1/" xmlns:cc="http://creativecommons.org/ns#" xmlns:rdf="http://www.w3.org/1999/02/22-rdf-syntax-ns#">
   <cc:Work>
    <dc:type rdf:resource="http://purl.org/dc/dcmitype/StillImage"/>
    <dc:date>2024-03-18T14:53:38.061308</dc:date>
    <dc:format>image/svg+xml</dc:format>
    <dc:creator>
     <cc:Agent>
      <dc:title>Matplotlib v3.5.1, https://matplotlib.org/</dc:title>
     </cc:Agent>
    </dc:creator>
   </cc:Work>
  </rdf:RDF>
 </metadata>
 <defs>
  <style type="text/css">*{stroke-linejoin: round; stroke-linecap: butt}</style>
 </defs>
 <g id="figure_1">
  <g id="patch_1">
   <path d="M 0 345.6 
L 460.8 345.6 
L 460.8 0 
L 0 0 
z
" style="fill: #ffffff"/>
  </g>
  <g id="axes_1">
   <g id="patch_2">
    <path d="M 57.6 307.584 
L 414.72 307.584 
L 414.72 41.472 
L 57.6 41.472 
z
" style="fill: #ffffff"/>
   </g>
   <g id="matplotlib.axis_1">
    <g id="xtick_1">
     <g id="line2d_1">
      <path d="M 73.832727 307.584 
L 73.832727 41.472 
" clip-path="url(#pe85be4f754)" style="fill: none; stroke: #b0b0b0; stroke-width: 0.8; stroke-linecap: square"/>
     </g>
     <g id="line2d_2">
      <defs>
       <path id="m23713e351a" d="M 0 0 
L 0 3.5 
" style="stroke: #000000; stroke-width: 0.8"/>
      </defs>
      <g>
       <use xlink:href="#m23713e351a" x="73.832727" y="307.584" style="stroke: #000000; stroke-width: 0.8"/>
      </g>
     </g>
     <g id="text_1">
      <!-- $\mathdefault{10^{0}}$ -->
      <g transform="translate(65.032727 322.182437)scale(0.1 -0.1)">
       <defs>
        <path id="DejaVuSans-31" d="M 794 531 
L 1825 531 
L 1825 4091 
L 703 3866 
L 703 4441 
L 1819 4666 
L 2450 4666 
L 2450 531 
L 3481 531 
L 3481 0 
L 794 0 
L 794 531 
z
" transform="scale(0.015625)"/>
        <path id="DejaVuSans-30" d="M 2034 4250 
Q 1547 4250 1301 3770 
Q 1056 3291 1056 2328 
Q 1056 1369 1301 889 
Q 1547 409 2034 409 
Q 2525 409 2770 889 
Q 3016 1369 3016 2328 
Q 3016 3291 2770 3770 
Q 2525 4250 2034 4250 
z
M 2034 4750 
Q 2819 4750 3233 4129 
Q 3647 3509 3647 2328 
Q 3647 1150 3233 529 
Q 2819 -91 2034 -91 
Q 1250 -91 836 529 
Q 422 1150 422 2328 
Q 422 3509 836 4129 
Q 1250 4750 2034 4750 
z
" transform="scale(0.015625)"/>
       </defs>
       <use xlink:href="#DejaVuSans-31" transform="translate(0 0.765625)"/>
       <use xlink:href="#DejaVuSans-30" transform="translate(63.623047 0.765625)"/>
       <use xlink:href="#DejaVuSans-30" transform="translate(128.203125 39.046875)scale(0.7)"/>
      </g>
     </g>
    </g>
    <g id="xtick_2">
     <g id="line2d_3">
      <path d="M 198.916533 307.584 
L 198.916533 41.472 
" clip-path="url(#pe85be4f754)" style="fill: none; stroke: #b0b0b0; stroke-width: 0.8; stroke-linecap: square"/>
     </g>
     <g id="line2d_4">
      <g>
       <use xlink:href="#m23713e351a" x="198.916533" y="307.584" style="stroke: #000000; stroke-width: 0.8"/>
      </g>
     </g>
     <g id="text_2">
      <!-- $\mathdefault{10^{1}}$ -->
      <g transform="translate(190.116533 322.182437)scale(0.1 -0.1)">
       <use xlink:href="#DejaVuSans-31" transform="translate(0 0.684375)"/>
       <use xlink:href="#DejaVuSans-30" transform="translate(63.623047 0.684375)"/>
       <use xlink:href="#DejaVuSans-31" transform="translate(128.203125 38.965625)scale(0.7)"/>
      </g>
     </g>
    </g>
    <g id="xtick_3">
     <g id="line2d_5">
      <path d="M 324.000339 307.584 
L 324.000339 41.472 
" clip-path="url(#pe85be4f754)" style="fill: none; stroke: #b0b0b0; stroke-width: 0.8; stroke-linecap: square"/>
     </g>
     <g id="line2d_6">
      <g>
       <use xlink:href="#m23713e351a" x="324.000339" y="307.584" style="stroke: #000000; stroke-width: 0.8"/>
      </g>
     </g>
     <g id="text_3">
      <!-- $\mathdefault{10^{2}}$ -->
      <g transform="translate(315.200339 322.182437)scale(0.1 -0.1)">
       <defs>
        <path id="DejaVuSans-32" d="M 1228 531 
L 3431 531 
L 3431 0 
L 469 0 
L 469 531 
Q 828 903 1448 1529 
Q 2069 2156 2228 2338 
Q 2531 2678 2651 2914 
Q 2772 3150 2772 3378 
Q 2772 3750 2511 3984 
Q 2250 4219 1831 4219 
Q 1534 4219 1204 4116 
Q 875 4013 500 3803 
L 500 4441 
Q 881 4594 1212 4672 
Q 1544 4750 1819 4750 
Q 2544 4750 2975 4387 
Q 3406 4025 3406 3419 
Q 3406 3131 3298 2873 
Q 3191 2616 2906 2266 
Q 2828 2175 2409 1742 
Q 1991 1309 1228 531 
z
" transform="scale(0.015625)"/>
       </defs>
       <use xlink:href="#DejaVuSans-31" transform="translate(0 0.765625)"/>
       <use xlink:href="#DejaVuSans-30" transform="translate(63.623047 0.765625)"/>
       <use xlink:href="#DejaVuSans-32" transform="translate(128.203125 39.046875)scale(0.7)"/>
      </g>
     </g>
    </g>
    <g id="xtick_4">
     <g id="line2d_7">
      <defs>
       <path id="m5a8f1d66c0" d="M 0 0 
L 0 2 
" style="stroke: #000000; stroke-width: 0.6"/>
      </defs>
      <g>
       <use xlink:href="#m5a8f1d66c0" x="61.710854" y="307.584" style="stroke: #000000; stroke-width: 0.6"/>
      </g>
     </g>
    </g>
    <g id="xtick_5">
     <g id="line2d_8">
      <g>
       <use xlink:href="#m5a8f1d66c0" x="68.109206" y="307.584" style="stroke: #000000; stroke-width: 0.6"/>
      </g>
     </g>
    </g>
    <g id="xtick_6">
     <g id="line2d_9">
      <g>
       <use xlink:href="#m5a8f1d66c0" x="111.486705" y="307.584" style="stroke: #000000; stroke-width: 0.6"/>
      </g>
     </g>
    </g>
    <g id="xtick_7">
     <g id="line2d_10">
      <g>
       <use xlink:href="#m5a8f1d66c0" x="133.51287" y="307.584" style="stroke: #000000; stroke-width: 0.6"/>
      </g>
     </g>
    </g>
    <g id="xtick_8">
     <g id="line2d_11">
      <g>
       <use xlink:href="#m5a8f1d66c0" x="149.140682" y="307.584" style="stroke: #000000; stroke-width: 0.6"/>
      </g>
     </g>
    </g>
    <g id="xtick_9">
     <g id="line2d_12">
      <g>
       <use xlink:href="#m5a8f1d66c0" x="161.262556" y="307.584" style="stroke: #000000; stroke-width: 0.6"/>
      </g>
     </g>
    </g>
    <g id="xtick_10">
     <g id="line2d_13">
      <g>
       <use xlink:href="#m5a8f1d66c0" x="171.166847" y="307.584" style="stroke: #000000; stroke-width: 0.6"/>
      </g>
     </g>
    </g>
    <g id="xtick_11">
     <g id="line2d_14">
      <g>
       <use xlink:href="#m5a8f1d66c0" x="179.540806" y="307.584" style="stroke: #000000; stroke-width: 0.6"/>
      </g>
     </g>
    </g>
    <g id="xtick_12">
     <g id="line2d_15">
      <g>
       <use xlink:href="#m5a8f1d66c0" x="186.79466" y="307.584" style="stroke: #000000; stroke-width: 0.6"/>
      </g>
     </g>
    </g>
    <g id="xtick_13">
     <g id="line2d_16">
      <g>
       <use xlink:href="#m5a8f1d66c0" x="193.193012" y="307.584" style="stroke: #000000; stroke-width: 0.6"/>
      </g>
     </g>
    </g>
    <g id="xtick_14">
     <g id="line2d_17">
      <g>
       <use xlink:href="#m5a8f1d66c0" x="236.570511" y="307.584" style="stroke: #000000; stroke-width: 0.6"/>
      </g>
     </g>
    </g>
    <g id="xtick_15">
     <g id="line2d_18">
      <g>
       <use xlink:href="#m5a8f1d66c0" x="258.596675" y="307.584" style="stroke: #000000; stroke-width: 0.6"/>
      </g>
     </g>
    </g>
    <g id="xtick_16">
     <g id="line2d_19">
      <g>
       <use xlink:href="#m5a8f1d66c0" x="274.224488" y="307.584" style="stroke: #000000; stroke-width: 0.6"/>
      </g>
     </g>
    </g>
    <g id="xtick_17">
     <g id="line2d_20">
      <g>
       <use xlink:href="#m5a8f1d66c0" x="286.346361" y="307.584" style="stroke: #000000; stroke-width: 0.6"/>
      </g>
     </g>
    </g>
    <g id="xtick_18">
     <g id="line2d_21">
      <g>
       <use xlink:href="#m5a8f1d66c0" x="296.250653" y="307.584" style="stroke: #000000; stroke-width: 0.6"/>
      </g>
     </g>
    </g>
    <g id="xtick_19">
     <g id="line2d_22">
      <g>
       <use xlink:href="#m5a8f1d66c0" x="304.624612" y="307.584" style="stroke: #000000; stroke-width: 0.6"/>
      </g>
     </g>
    </g>
    <g id="xtick_20">
     <g id="line2d_23">
      <g>
       <use xlink:href="#m5a8f1d66c0" x="311.878466" y="307.584" style="stroke: #000000; stroke-width: 0.6"/>
      </g>
     </g>
    </g>
    <g id="xtick_21">
     <g id="line2d_24">
      <g>
       <use xlink:href="#m5a8f1d66c0" x="318.276818" y="307.584" style="stroke: #000000; stroke-width: 0.6"/>
      </g>
     </g>
    </g>
    <g id="xtick_22">
     <g id="line2d_25">
      <g>
       <use xlink:href="#m5a8f1d66c0" x="361.654316" y="307.584" style="stroke: #000000; stroke-width: 0.6"/>
      </g>
     </g>
    </g>
    <g id="xtick_23">
     <g id="line2d_26">
      <g>
       <use xlink:href="#m5a8f1d66c0" x="383.680481" y="307.584" style="stroke: #000000; stroke-width: 0.6"/>
      </g>
     </g>
    </g>
    <g id="xtick_24">
     <g id="line2d_27">
      <g>
       <use xlink:href="#m5a8f1d66c0" x="399.308294" y="307.584" style="stroke: #000000; stroke-width: 0.6"/>
      </g>
     </g>
    </g>
    <g id="xtick_25">
     <g id="line2d_28">
      <g>
       <use xlink:href="#m5a8f1d66c0" x="411.430167" y="307.584" style="stroke: #000000; stroke-width: 0.6"/>
      </g>
     </g>
    </g>
    <g id="text_4">
     <!-- Number of idiom instances -->
     <g transform="translate(168.819375 335.860562)scale(0.1 -0.1)">
      <defs>
       <path id="DejaVuSans-4e" d="M 628 4666 
L 1478 4666 
L 3547 763 
L 3547 4666 
L 4159 4666 
L 4159 0 
L 3309 0 
L 1241 3903 
L 1241 0 
L 628 0 
L 628 4666 
z
" transform="scale(0.015625)"/>
       <path id="DejaVuSans-75" d="M 544 1381 
L 544 3500 
L 1119 3500 
L 1119 1403 
Q 1119 906 1312 657 
Q 1506 409 1894 409 
Q 2359 409 2629 706 
Q 2900 1003 2900 1516 
L 2900 3500 
L 3475 3500 
L 3475 0 
L 2900 0 
L 2900 538 
Q 2691 219 2414 64 
Q 2138 -91 1772 -91 
Q 1169 -91 856 284 
Q 544 659 544 1381 
z
M 1991 3584 
L 1991 3584 
z
" transform="scale(0.015625)"/>
       <path id="DejaVuSans-6d" d="M 3328 2828 
Q 3544 3216 3844 3400 
Q 4144 3584 4550 3584 
Q 5097 3584 5394 3201 
Q 5691 2819 5691 2113 
L 5691 0 
L 5113 0 
L 5113 2094 
Q 5113 2597 4934 2840 
Q 4756 3084 4391 3084 
Q 3944 3084 3684 2787 
Q 3425 2491 3425 1978 
L 3425 0 
L 2847 0 
L 2847 2094 
Q 2847 2600 2669 2842 
Q 2491 3084 2119 3084 
Q 1678 3084 1418 2786 
Q 1159 2488 1159 1978 
L 1159 0 
L 581 0 
L 581 3500 
L 1159 3500 
L 1159 2956 
Q 1356 3278 1631 3431 
Q 1906 3584 2284 3584 
Q 2666 3584 2933 3390 
Q 3200 3197 3328 2828 
z
" transform="scale(0.015625)"/>
       <path id="DejaVuSans-62" d="M 3116 1747 
Q 3116 2381 2855 2742 
Q 2594 3103 2138 3103 
Q 1681 3103 1420 2742 
Q 1159 2381 1159 1747 
Q 1159 1113 1420 752 
Q 1681 391 2138 391 
Q 2594 391 2855 752 
Q 3116 1113 3116 1747 
z
M 1159 2969 
Q 1341 3281 1617 3432 
Q 1894 3584 2278 3584 
Q 2916 3584 3314 3078 
Q 3713 2572 3713 1747 
Q 3713 922 3314 415 
Q 2916 -91 2278 -91 
Q 1894 -91 1617 61 
Q 1341 213 1159 525 
L 1159 0 
L 581 0 
L 581 4863 
L 1159 4863 
L 1159 2969 
z
" transform="scale(0.015625)"/>
       <path id="DejaVuSans-65" d="M 3597 1894 
L 3597 1613 
L 953 1613 
Q 991 1019 1311 708 
Q 1631 397 2203 397 
Q 2534 397 2845 478 
Q 3156 559 3463 722 
L 3463 178 
Q 3153 47 2828 -22 
Q 2503 -91 2169 -91 
Q 1331 -91 842 396 
Q 353 884 353 1716 
Q 353 2575 817 3079 
Q 1281 3584 2069 3584 
Q 2775 3584 3186 3129 
Q 3597 2675 3597 1894 
z
M 3022 2063 
Q 3016 2534 2758 2815 
Q 2500 3097 2075 3097 
Q 1594 3097 1305 2825 
Q 1016 2553 972 2059 
L 3022 2063 
z
" transform="scale(0.015625)"/>
       <path id="DejaVuSans-72" d="M 2631 2963 
Q 2534 3019 2420 3045 
Q 2306 3072 2169 3072 
Q 1681 3072 1420 2755 
Q 1159 2438 1159 1844 
L 1159 0 
L 581 0 
L 581 3500 
L 1159 3500 
L 1159 2956 
Q 1341 3275 1631 3429 
Q 1922 3584 2338 3584 
Q 2397 3584 2469 3576 
Q 2541 3569 2628 3553 
L 2631 2963 
z
" transform="scale(0.015625)"/>
       <path id="DejaVuSans-20" transform="scale(0.015625)"/>
       <path id="DejaVuSans-6f" d="M 1959 3097 
Q 1497 3097 1228 2736 
Q 959 2375 959 1747 
Q 959 1119 1226 758 
Q 1494 397 1959 397 
Q 2419 397 2687 759 
Q 2956 1122 2956 1747 
Q 2956 2369 2687 2733 
Q 2419 3097 1959 3097 
z
M 1959 3584 
Q 2709 3584 3137 3096 
Q 3566 2609 3566 1747 
Q 3566 888 3137 398 
Q 2709 -91 1959 -91 
Q 1206 -91 779 398 
Q 353 888 353 1747 
Q 353 2609 779 3096 
Q 1206 3584 1959 3584 
z
" transform="scale(0.015625)"/>
       <path id="DejaVuSans-66" d="M 2375 4863 
L 2375 4384 
L 1825 4384 
Q 1516 4384 1395 4259 
Q 1275 4134 1275 3809 
L 1275 3500 
L 2222 3500 
L 2222 3053 
L 1275 3053 
L 1275 0 
L 697 0 
L 697 3053 
L 147 3053 
L 147 3500 
L 697 3500 
L 697 3744 
Q 697 4328 969 4595 
Q 1241 4863 1831 4863 
L 2375 4863 
z
" transform="scale(0.015625)"/>
       <path id="DejaVuSans-69" d="M 603 3500 
L 1178 3500 
L 1178 0 
L 603 0 
L 603 3500 
z
M 603 4863 
L 1178 4863 
L 1178 4134 
L 603 4134 
L 603 4863 
z
" transform="scale(0.015625)"/>
       <path id="DejaVuSans-64" d="M 2906 2969 
L 2906 4863 
L 3481 4863 
L 3481 0 
L 2906 0 
L 2906 525 
Q 2725 213 2448 61 
Q 2172 -91 1784 -91 
Q 1150 -91 751 415 
Q 353 922 353 1747 
Q 353 2572 751 3078 
Q 1150 3584 1784 3584 
Q 2172 3584 2448 3432 
Q 2725 3281 2906 2969 
z
M 947 1747 
Q 947 1113 1208 752 
Q 1469 391 1925 391 
Q 2381 391 2643 752 
Q 2906 1113 2906 1747 
Q 2906 2381 2643 2742 
Q 2381 3103 1925 3103 
Q 1469 3103 1208 2742 
Q 947 2381 947 1747 
z
" transform="scale(0.015625)"/>
       <path id="DejaVuSans-6e" d="M 3513 2113 
L 3513 0 
L 2938 0 
L 2938 2094 
Q 2938 2591 2744 2837 
Q 2550 3084 2163 3084 
Q 1697 3084 1428 2787 
Q 1159 2491 1159 1978 
L 1159 0 
L 581 0 
L 581 3500 
L 1159 3500 
L 1159 2956 
Q 1366 3272 1645 3428 
Q 1925 3584 2291 3584 
Q 2894 3584 3203 3211 
Q 3513 2838 3513 2113 
z
" transform="scale(0.015625)"/>
       <path id="DejaVuSans-73" d="M 2834 3397 
L 2834 2853 
Q 2591 2978 2328 3040 
Q 2066 3103 1784 3103 
Q 1356 3103 1142 2972 
Q 928 2841 928 2578 
Q 928 2378 1081 2264 
Q 1234 2150 1697 2047 
L 1894 2003 
Q 2506 1872 2764 1633 
Q 3022 1394 3022 966 
Q 3022 478 2636 193 
Q 2250 -91 1575 -91 
Q 1294 -91 989 -36 
Q 684 19 347 128 
L 347 722 
Q 666 556 975 473 
Q 1284 391 1588 391 
Q 1994 391 2212 530 
Q 2431 669 2431 922 
Q 2431 1156 2273 1281 
Q 2116 1406 1581 1522 
L 1381 1569 
Q 847 1681 609 1914 
Q 372 2147 372 2553 
Q 372 3047 722 3315 
Q 1072 3584 1716 3584 
Q 2034 3584 2315 3537 
Q 2597 3491 2834 3397 
z
" transform="scale(0.015625)"/>
       <path id="DejaVuSans-74" d="M 1172 4494 
L 1172 3500 
L 2356 3500 
L 2356 3053 
L 1172 3053 
L 1172 1153 
Q 1172 725 1289 603 
Q 1406 481 1766 481 
L 2356 481 
L 2356 0 
L 1766 0 
Q 1100 0 847 248 
Q 594 497 594 1153 
L 594 3053 
L 172 3053 
L 172 3500 
L 594 3500 
L 594 4494 
L 1172 4494 
z
" transform="scale(0.015625)"/>
       <path id="DejaVuSans-61" d="M 2194 1759 
Q 1497 1759 1228 1600 
Q 959 1441 959 1056 
Q 959 750 1161 570 
Q 1363 391 1709 391 
Q 2188 391 2477 730 
Q 2766 1069 2766 1631 
L 2766 1759 
L 2194 1759 
z
M 3341 1997 
L 3341 0 
L 2766 0 
L 2766 531 
Q 2569 213 2275 61 
Q 1981 -91 1556 -91 
Q 1019 -91 701 211 
Q 384 513 384 1019 
Q 384 1609 779 1909 
Q 1175 2209 1959 2209 
L 2766 2209 
L 2766 2266 
Q 2766 2663 2505 2880 
Q 2244 3097 1772 3097 
Q 1472 3097 1187 3025 
Q 903 2953 641 2809 
L 641 3341 
Q 956 3463 1253 3523 
Q 1550 3584 1831 3584 
Q 2591 3584 2966 3190 
Q 3341 2797 3341 1997 
z
" transform="scale(0.015625)"/>
       <path id="DejaVuSans-63" d="M 3122 3366 
L 3122 2828 
Q 2878 2963 2633 3030 
Q 2388 3097 2138 3097 
Q 1578 3097 1268 2742 
Q 959 2388 959 1747 
Q 959 1106 1268 751 
Q 1578 397 2138 397 
Q 2388 397 2633 464 
Q 2878 531 3122 666 
L 3122 134 
Q 2881 22 2623 -34 
Q 2366 -91 2075 -91 
Q 1284 -91 818 406 
Q 353 903 353 1747 
Q 353 2603 823 3093 
Q 1294 3584 2113 3584 
Q 2378 3584 2631 3529 
Q 2884 3475 3122 3366 
z
" transform="scale(0.015625)"/>
      </defs>
      <use xlink:href="#DejaVuSans-4e"/>
      <use xlink:href="#DejaVuSans-75" x="74.804688"/>
      <use xlink:href="#DejaVuSans-6d" x="138.183594"/>
      <use xlink:href="#DejaVuSans-62" x="235.595703"/>
      <use xlink:href="#DejaVuSans-65" x="299.072266"/>
      <use xlink:href="#DejaVuSans-72" x="360.595703"/>
      <use xlink:href="#DejaVuSans-20" x="401.708984"/>
      <use xlink:href="#DejaVuSans-6f" x="433.496094"/>
      <use xlink:href="#DejaVuSans-66" x="494.677734"/>
      <use xlink:href="#DejaVuSans-20" x="529.882812"/>
      <use xlink:href="#DejaVuSans-69" x="561.669922"/>
      <use xlink:href="#DejaVuSans-64" x="589.453125"/>
      <use xlink:href="#DejaVuSans-69" x="652.929688"/>
      <use xlink:href="#DejaVuSans-6f" x="680.712891"/>
      <use xlink:href="#DejaVuSans-6d" x="741.894531"/>
      <use xlink:href="#DejaVuSans-20" x="839.306641"/>
      <use xlink:href="#DejaVuSans-69" x="871.09375"/>
      <use xlink:href="#DejaVuSans-6e" x="898.876953"/>
      <use xlink:href="#DejaVuSans-73" x="962.255859"/>
      <use xlink:href="#DejaVuSans-74" x="1014.355469"/>
      <use xlink:href="#DejaVuSans-61" x="1053.564453"/>
      <use xlink:href="#DejaVuSans-6e" x="1114.84375"/>
      <use xlink:href="#DejaVuSans-63" x="1178.222656"/>
      <use xlink:href="#DejaVuSans-65" x="1233.203125"/>
      <use xlink:href="#DejaVuSans-73" x="1294.726562"/>
     </g>
    </g>
   </g>
   <g id="matplotlib.axis_2">
    <g id="ytick_1">
     <g id="line2d_29">
      <path d="M 57.6 300.00623 
L 414.72 300.00623 
" clip-path="url(#pe85be4f754)" style="fill: none; stroke: #b0b0b0; stroke-width: 0.8; stroke-linecap: square"/>
     </g>
     <g id="line2d_30">
      <defs>
       <path id="m1a67e1e48c" d="M 0 0 
L -3.5 0 
" style="stroke: #000000; stroke-width: 0.8"/>
      </defs>
      <g>
       <use xlink:href="#m1a67e1e48c" x="57.6" y="300.00623" style="stroke: #000000; stroke-width: 0.8"/>
      </g>
     </g>
     <g id="text_5">
      <!-- 0 -->
      <g transform="translate(44.2375 303.805449)scale(0.1 -0.1)">
       <use xlink:href="#DejaVuSans-30"/>
      </g>
     </g>
    </g>
    <g id="ytick_2">
     <g id="line2d_31">
      <path d="M 57.6 257.083043 
L 414.72 257.083043 
" clip-path="url(#pe85be4f754)" style="fill: none; stroke: #b0b0b0; stroke-width: 0.8; stroke-linecap: square"/>
     </g>
     <g id="line2d_32">
      <g>
       <use xlink:href="#m1a67e1e48c" x="57.6" y="257.083043" style="stroke: #000000; stroke-width: 0.8"/>
      </g>
     </g>
     <g id="text_6">
      <!-- 20 -->
      <g transform="translate(37.875 260.882262)scale(0.1 -0.1)">
       <use xlink:href="#DejaVuSans-32"/>
       <use xlink:href="#DejaVuSans-30" x="63.623047"/>
      </g>
     </g>
    </g>
    <g id="ytick_3">
     <g id="line2d_33">
      <path d="M 57.6 214.159856 
L 414.72 214.159856 
" clip-path="url(#pe85be4f754)" style="fill: none; stroke: #b0b0b0; stroke-width: 0.8; stroke-linecap: square"/>
     </g>
     <g id="line2d_34">
      <g>
       <use xlink:href="#m1a67e1e48c" x="57.6" y="214.159856" style="stroke: #000000; stroke-width: 0.8"/>
      </g>
     </g>
     <g id="text_7">
      <!-- 40 -->
      <g transform="translate(37.875 217.959075)scale(0.1 -0.1)">
       <defs>
        <path id="DejaVuSans-34" d="M 2419 4116 
L 825 1625 
L 2419 1625 
L 2419 4116 
z
M 2253 4666 
L 3047 4666 
L 3047 1625 
L 3713 1625 
L 3713 1100 
L 3047 1100 
L 3047 0 
L 2419 0 
L 2419 1100 
L 313 1100 
L 313 1709 
L 2253 4666 
z
" transform="scale(0.015625)"/>
       </defs>
       <use xlink:href="#DejaVuSans-34"/>
       <use xlink:href="#DejaVuSans-30" x="63.623047"/>
      </g>
     </g>
    </g>
    <g id="ytick_4">
     <g id="line2d_35">
      <path d="M 57.6 171.236669 
L 414.72 171.236669 
" clip-path="url(#pe85be4f754)" style="fill: none; stroke: #b0b0b0; stroke-width: 0.8; stroke-linecap: square"/>
     </g>
     <g id="line2d_36">
      <g>
       <use xlink:href="#m1a67e1e48c" x="57.6" y="171.236669" style="stroke: #000000; stroke-width: 0.8"/>
      </g>
     </g>
     <g id="text_8">
      <!-- 60 -->
      <g transform="translate(37.875 175.035888)scale(0.1 -0.1)">
       <defs>
        <path id="DejaVuSans-36" d="M 2113 2584 
Q 1688 2584 1439 2293 
Q 1191 2003 1191 1497 
Q 1191 994 1439 701 
Q 1688 409 2113 409 
Q 2538 409 2786 701 
Q 3034 994 3034 1497 
Q 3034 2003 2786 2293 
Q 2538 2584 2113 2584 
z
M 3366 4563 
L 3366 3988 
Q 3128 4100 2886 4159 
Q 2644 4219 2406 4219 
Q 1781 4219 1451 3797 
Q 1122 3375 1075 2522 
Q 1259 2794 1537 2939 
Q 1816 3084 2150 3084 
Q 2853 3084 3261 2657 
Q 3669 2231 3669 1497 
Q 3669 778 3244 343 
Q 2819 -91 2113 -91 
Q 1303 -91 875 529 
Q 447 1150 447 2328 
Q 447 3434 972 4092 
Q 1497 4750 2381 4750 
Q 2619 4750 2861 4703 
Q 3103 4656 3366 4563 
z
" transform="scale(0.015625)"/>
       </defs>
       <use xlink:href="#DejaVuSans-36"/>
       <use xlink:href="#DejaVuSans-30" x="63.623047"/>
      </g>
     </g>
    </g>
    <g id="ytick_5">
     <g id="line2d_37">
      <path d="M 57.6 128.313482 
L 414.72 128.313482 
" clip-path="url(#pe85be4f754)" style="fill: none; stroke: #b0b0b0; stroke-width: 0.8; stroke-linecap: square"/>
     </g>
     <g id="line2d_38">
      <g>
       <use xlink:href="#m1a67e1e48c" x="57.6" y="128.313482" style="stroke: #000000; stroke-width: 0.8"/>
      </g>
     </g>
     <g id="text_9">
      <!-- 80 -->
      <g transform="translate(37.875 132.112701)scale(0.1 -0.1)">
       <defs>
        <path id="DejaVuSans-38" d="M 2034 2216 
Q 1584 2216 1326 1975 
Q 1069 1734 1069 1313 
Q 1069 891 1326 650 
Q 1584 409 2034 409 
Q 2484 409 2743 651 
Q 3003 894 3003 1313 
Q 3003 1734 2745 1975 
Q 2488 2216 2034 2216 
z
M 1403 2484 
Q 997 2584 770 2862 
Q 544 3141 544 3541 
Q 544 4100 942 4425 
Q 1341 4750 2034 4750 
Q 2731 4750 3128 4425 
Q 3525 4100 3525 3541 
Q 3525 3141 3298 2862 
Q 3072 2584 2669 2484 
Q 3125 2378 3379 2068 
Q 3634 1759 3634 1313 
Q 3634 634 3220 271 
Q 2806 -91 2034 -91 
Q 1263 -91 848 271 
Q 434 634 434 1313 
Q 434 1759 690 2068 
Q 947 2378 1403 2484 
z
M 1172 3481 
Q 1172 3119 1398 2916 
Q 1625 2713 2034 2713 
Q 2441 2713 2670 2916 
Q 2900 3119 2900 3481 
Q 2900 3844 2670 4047 
Q 2441 4250 2034 4250 
Q 1625 4250 1398 4047 
Q 1172 3844 1172 3481 
z
" transform="scale(0.015625)"/>
       </defs>
       <use xlink:href="#DejaVuSans-38"/>
       <use xlink:href="#DejaVuSans-30" x="63.623047"/>
      </g>
     </g>
    </g>
    <g id="ytick_6">
     <g id="line2d_39">
      <path d="M 57.6 85.390295 
L 414.72 85.390295 
" clip-path="url(#pe85be4f754)" style="fill: none; stroke: #b0b0b0; stroke-width: 0.8; stroke-linecap: square"/>
     </g>
     <g id="line2d_40">
      <g>
       <use xlink:href="#m1a67e1e48c" x="57.6" y="85.390295" style="stroke: #000000; stroke-width: 0.8"/>
      </g>
     </g>
     <g id="text_10">
      <!-- 100 -->
      <g transform="translate(31.5125 89.189514)scale(0.1 -0.1)">
       <use xlink:href="#DejaVuSans-31"/>
       <use xlink:href="#DejaVuSans-30" x="63.623047"/>
       <use xlink:href="#DejaVuSans-30" x="127.246094"/>
      </g>
     </g>
    </g>
    <g id="ytick_7">
     <g id="line2d_41">
      <path d="M 57.6 42.467108 
L 414.72 42.467108 
" clip-path="url(#pe85be4f754)" style="fill: none; stroke: #b0b0b0; stroke-width: 0.8; stroke-linecap: square"/>
     </g>
     <g id="line2d_42">
      <g>
       <use xlink:href="#m1a67e1e48c" x="57.6" y="42.467108" style="stroke: #000000; stroke-width: 0.8"/>
      </g>
     </g>
     <g id="text_11">
      <!-- 120 -->
      <g transform="translate(31.5125 46.266327)scale(0.1 -0.1)">
       <use xlink:href="#DejaVuSans-31"/>
       <use xlink:href="#DejaVuSans-32" x="63.623047"/>
       <use xlink:href="#DejaVuSans-30" x="127.246094"/>
      </g>
     </g>
    </g>
    <g id="text_12">
     <!-- Captured memory operations (%) -->
     <g transform="translate(25.432812 258.503)rotate(-90)scale(0.1 -0.1)">
      <defs>
       <path id="DejaVuSans-43" d="M 4122 4306 
L 4122 3641 
Q 3803 3938 3442 4084 
Q 3081 4231 2675 4231 
Q 1875 4231 1450 3742 
Q 1025 3253 1025 2328 
Q 1025 1406 1450 917 
Q 1875 428 2675 428 
Q 3081 428 3442 575 
Q 3803 722 4122 1019 
L 4122 359 
Q 3791 134 3420 21 
Q 3050 -91 2638 -91 
Q 1578 -91 968 557 
Q 359 1206 359 2328 
Q 359 3453 968 4101 
Q 1578 4750 2638 4750 
Q 3056 4750 3426 4639 
Q 3797 4528 4122 4306 
z
" transform="scale(0.015625)"/>
       <path id="DejaVuSans-70" d="M 1159 525 
L 1159 -1331 
L 581 -1331 
L 581 3500 
L 1159 3500 
L 1159 2969 
Q 1341 3281 1617 3432 
Q 1894 3584 2278 3584 
Q 2916 3584 3314 3078 
Q 3713 2572 3713 1747 
Q 3713 922 3314 415 
Q 2916 -91 2278 -91 
Q 1894 -91 1617 61 
Q 1341 213 1159 525 
z
M 3116 1747 
Q 3116 2381 2855 2742 
Q 2594 3103 2138 3103 
Q 1681 3103 1420 2742 
Q 1159 2381 1159 1747 
Q 1159 1113 1420 752 
Q 1681 391 2138 391 
Q 2594 391 2855 752 
Q 3116 1113 3116 1747 
z
" transform="scale(0.015625)"/>
       <path id="DejaVuSans-79" d="M 2059 -325 
Q 1816 -950 1584 -1140 
Q 1353 -1331 966 -1331 
L 506 -1331 
L 506 -850 
L 844 -850 
Q 1081 -850 1212 -737 
Q 1344 -625 1503 -206 
L 1606 56 
L 191 3500 
L 800 3500 
L 1894 763 
L 2988 3500 
L 3597 3500 
L 2059 -325 
z
" transform="scale(0.015625)"/>
       <path id="DejaVuSans-28" d="M 1984 4856 
Q 1566 4138 1362 3434 
Q 1159 2731 1159 2009 
Q 1159 1288 1364 580 
Q 1569 -128 1984 -844 
L 1484 -844 
Q 1016 -109 783 600 
Q 550 1309 550 2009 
Q 550 2706 781 3412 
Q 1013 4119 1484 4856 
L 1984 4856 
z
" transform="scale(0.015625)"/>
       <path id="DejaVuSans-25" d="M 4653 2053 
Q 4381 2053 4226 1822 
Q 4072 1591 4072 1178 
Q 4072 772 4226 539 
Q 4381 306 4653 306 
Q 4919 306 5073 539 
Q 5228 772 5228 1178 
Q 5228 1588 5073 1820 
Q 4919 2053 4653 2053 
z
M 4653 2450 
Q 5147 2450 5437 2106 
Q 5728 1763 5728 1178 
Q 5728 594 5436 251 
Q 5144 -91 4653 -91 
Q 4153 -91 3862 251 
Q 3572 594 3572 1178 
Q 3572 1766 3864 2108 
Q 4156 2450 4653 2450 
z
M 1428 4353 
Q 1159 4353 1004 4120 
Q 850 3888 850 3481 
Q 850 3069 1003 2837 
Q 1156 2606 1428 2606 
Q 1700 2606 1854 2837 
Q 2009 3069 2009 3481 
Q 2009 3884 1853 4118 
Q 1697 4353 1428 4353 
z
M 4250 4750 
L 4750 4750 
L 1831 -91 
L 1331 -91 
L 4250 4750 
z
M 1428 4750 
Q 1922 4750 2215 4408 
Q 2509 4066 2509 3481 
Q 2509 2891 2217 2550 
Q 1925 2209 1428 2209 
Q 931 2209 642 2551 
Q 353 2894 353 3481 
Q 353 4063 643 4406 
Q 934 4750 1428 4750 
z
" transform="scale(0.015625)"/>
       <path id="DejaVuSans-29" d="M 513 4856 
L 1013 4856 
Q 1481 4119 1714 3412 
Q 1947 2706 1947 2009 
Q 1947 1309 1714 600 
Q 1481 -109 1013 -844 
L 513 -844 
Q 928 -128 1133 580 
Q 1338 1288 1338 2009 
Q 1338 2731 1133 3434 
Q 928 4138 513 4856 
z
" transform="scale(0.015625)"/>
      </defs>
      <use xlink:href="#DejaVuSans-43"/>
      <use xlink:href="#DejaVuSans-61" x="69.824219"/>
      <use xlink:href="#DejaVuSans-70" x="131.103516"/>
      <use xlink:href="#DejaVuSans-74" x="194.580078"/>
      <use xlink:href="#DejaVuSans-75" x="233.789062"/>
      <use xlink:href="#DejaVuSans-72" x="297.167969"/>
      <use xlink:href="#DejaVuSans-65" x="336.03125"/>
      <use xlink:href="#DejaVuSans-64" x="397.554688"/>
      <use xlink:href="#DejaVuSans-20" x="461.03125"/>
      <use xlink:href="#DejaVuSans-6d" x="492.818359"/>
      <use xlink:href="#DejaVuSans-65" x="590.230469"/>
      <use xlink:href="#DejaVuSans-6d" x="651.753906"/>
      <use xlink:href="#DejaVuSans-6f" x="749.166016"/>
      <use xlink:href="#DejaVuSans-72" x="810.347656"/>
      <use xlink:href="#DejaVuSans-79" x="851.460938"/>
      <use xlink:href="#DejaVuSans-20" x="910.640625"/>
      <use xlink:href="#DejaVuSans-6f" x="942.427734"/>
      <use xlink:href="#DejaVuSans-70" x="1003.609375"/>
      <use xlink:href="#DejaVuSans-65" x="1067.085938"/>
      <use xlink:href="#DejaVuSans-72" x="1128.609375"/>
      <use xlink:href="#DejaVuSans-61" x="1169.722656"/>
      <use xlink:href="#DejaVuSans-74" x="1231.001953"/>
      <use xlink:href="#DejaVuSans-69" x="1270.210938"/>
      <use xlink:href="#DejaVuSans-6f" x="1297.994141"/>
      <use xlink:href="#DejaVuSans-6e" x="1359.175781"/>
      <use xlink:href="#DejaVuSans-73" x="1422.554688"/>
      <use xlink:href="#DejaVuSans-20" x="1474.654297"/>
      <use xlink:href="#DejaVuSans-28" x="1506.441406"/>
      <use xlink:href="#DejaVuSans-25" x="1545.455078"/>
      <use xlink:href="#DejaVuSans-29" x="1640.474609"/>
     </g>
    </g>
   </g>
   <g id="line2d_43">
    <path d="M -1 162.351267 
L 73.832727 162.325699 
L 111.486705 132.063115 
L 133.51287 105.140358 
L 149.140682 93.41252 
L 161.262556 86.662391 
L 171.166847 80.446811 
L 179.540806 75.401249 
L 186.79466 71.03364 
L 193.193012 69.053559 
L 198.916533 67.111239 
L 204.094088 65.199953 
L 208.820825 63.809063 
L 213.169001 62.542529 
L 217.194784 61.407027 
L 220.942698 60.479031 
L 224.448637 59.626804 
L 227.741961 58.923793 
L 230.84699 58.221224 
L 233.784094 57.553682 
L 236.570511 56.927498 
L 239.220949 56.358471 
L 241.748065 55.832943 
L 244.162828 55.549521 
L 246.474802 55.266099 
L 248.692384 54.991572 
L 250.822979 54.717603 
L 252.873154 54.456513 
L 254.848761 54.28453 
L 256.755034 54.142245 
L 258.596675 53.999959 
L 260.377924 53.88489 
L 262.102615 53.815075 
L 263.77423 53.745901 
L 265.395939 53.698394 
L 266.970635 53.655657 
L 268.500967 53.625748 
L 269.989367 53.595926 
L 271.438072 53.584878 
L 272.849144 53.576288 
L 274.224488 53.568766 
L 275.56587 53.568535 
L 276.874926 53.56831 
L 278.153178 53.568142 
L 279.402043 53.568108 
L 280.62284 53.568076 
L 281.816805 53.568056 
L 282.985091 53.568042 
L 284.12878 53.568029 
L 285.248886 53.568022 
L 286.346361 53.568015 
L 287.422104 53.56801 
L 288.476956 53.568007 
L 289.511715 53.568004 
L 290.527132 53.568003 
L 291.523916 53.568003 
L 292.502739 53.568002 
L 293.464237 53.568002 
L 294.409012 53.568001 
L 295.337636 53.568001 
L 296.250653 53.568001 
L 297.148578 53.568 
L 298.031901 53.568 
L 298.901091 53.568 
L 299.756592 53.568 
" clip-path="url(#pe85be4f754)" style="fill: none; stroke: #1f77b4; stroke-width: 1.5; stroke-linecap: square"/>
   </g>
   <g id="line2d_44">
    <path d="M -1 236.888243 
L 73.832727 236.871748 
L 111.486705 214.378066 
L 133.51287 194.259142 
L 149.140682 179.195457 
L 161.262556 164.965158 
L 171.166847 150.846034 
L 179.540806 137.298428 
L 186.79466 124.733972 
L 193.193012 113.441355 
L 198.916533 105.220893 
L 204.094088 97.698357 
L 208.820825 93.826868 
L 213.169001 91.957221 
L 217.194784 90.600729 
L 220.942698 89.457208 
L 224.448637 88.59562 
L 227.741961 87.89034 
L 230.84699 87.393012 
L 233.784094 87.011999 
L 236.570511 86.716344 
L 239.220949 86.498087 
L 241.748065 86.359657 
L 244.162828 86.293964 
L 246.474802 86.25232 
L 248.692384 86.210693 
L 250.822979 86.188917 
L 252.873154 86.167143 
L 254.848761 86.152835 
L 256.755034 86.151109 
L 258.596675 86.149667 
L 260.377924 86.148649 
L 262.102615 86.147848 
L 263.77423 86.147226 
L 265.395939 86.146805 
L 266.970635 86.146385 
L 268.500967 86.145967 
L 269.989367 86.145581 
L 271.438072 86.14553 
L 272.849144 86.145482 
L 274.224488 86.145455 
L 275.56587 86.145429 
L 276.874926 86.145404 
L 278.153178 86.145379 
L 279.402043 86.145368 
L 280.62284 86.145362 
L 281.816805 86.145357 
L 282.985091 86.145352 
L 284.12878 86.145348 
L 285.248886 86.145344 
L 286.346361 86.14534 
L 287.422104 86.145337 
L 288.476956 86.145335 
L 289.511715 86.145334 
" clip-path="url(#pe85be4f754)" style="fill: none; stroke: #ff7f0e; stroke-width: 1.5; stroke-linecap: square"/>
   </g>
   <g id="line2d_45">
    <path d="M -1 226.349698 
L 73.832727 226.332562 
L 111.486705 200.639839 
L 133.51287 178.123522 
L 149.140682 163.554364 
L 161.262556 149.599694 
L 171.166847 136.6216 
L 179.540806 125.771199 
L 186.79466 117.288525 
L 193.193012 109.705904 
L 198.916533 102.200765 
L 204.094088 95.613905 
L 208.820825 89.400555 
L 213.169001 83.859571 
L 217.194784 80.257688 
L 220.942698 77.281082 
L 224.448637 76.432649 
L 227.741961 75.730481 
L 230.84699 75.276074 
L 233.784094 74.864341 
L 236.570511 74.477541 
L 239.220949 74.462882 
L 241.748065 74.448224 
L 244.162828 74.434339 
L 246.474802 74.422701 
L 248.692384 74.413461 
L 250.822979 74.404586 
L 252.873154 74.395768 
L 254.848761 74.387759 
L 256.755034 74.380601 
L 258.596675 74.373501 
L 260.377924 74.366401 
L 262.102615 74.361062 
L 263.77423 74.356653 
L 265.395939 74.353074 
L 266.970635 74.350197 
L 268.500967 74.347513 
L 269.989367 74.344836 
L 271.438072 74.342166 
L 272.849144 74.339573 
L 274.224488 74.33701 
L 275.56587 74.334477 
L 276.874926 74.332015 
L 278.153178 74.329567 
L 279.402043 74.327819 
L 280.62284 74.32607 
L 281.816805 74.324353 
L 282.985091 74.322649 
L 284.12878 74.32096 
L 285.248886 74.319722 
L 286.346361 74.318709 
L 287.422104 74.317818 
L 288.476956 74.316966 
L 289.511715 74.31648 
L 290.527132 74.316133 
L 291.523916 74.315788 
L 292.502739 74.315567 
L 293.464237 74.315481 
L 294.409012 74.315397 
L 295.337636 74.315341 
L 296.250653 74.315286 
L 297.148578 74.315257 
L 298.031901 74.315228 
L 298.901091 74.315202 
L 299.756592 74.315175 
L 300.59883 74.315156 
L 301.428208 74.315141 
L 302.245113 74.315127 
L 303.049916 74.315113 
L 303.84297 74.3151 
L 304.624612 74.315087 
L 305.395167 74.315078 
L 306.154945 74.31507 
L 306.904242 74.315065 
L 307.643345 74.315062 
L 308.372526 74.315059 
L 309.092049 74.315057 
L 309.802167 74.315054 
L 310.503121 74.315053 
L 311.195146 74.315052 
L 311.878466 74.315051 
" clip-path="url(#pe85be4f754)" style="fill: none; stroke: #2ca02c; stroke-width: 1.5; stroke-linecap: square"/>
   </g>
   <g id="line2d_46">
    <path d="M -1 155.581757 
L 73.832727 155.539614 
L 111.486705 150.452034 
L 133.51287 147.35668 
L 149.140682 144.798766 
L 161.262556 142.25339 
L 171.166847 141.433377 
L 179.540806 140.652837 
L 186.79466 140.222545 
L 193.193012 139.803709 
L 198.916533 139.715919 
L 204.094088 139.65373 
L 208.820825 139.605143 
L 213.169001 139.566913 
L 217.194784 139.529018 
L 220.942698 139.528943 
L 224.448637 139.528867 
L 227.741961 139.528799 
L 230.84699 139.528753 
L 233.784094 139.52871 
L 236.570511 139.528686 
L 239.220949 139.528672 
L 241.748065 139.528669 
L 244.162828 139.528666 
L 246.474802 139.528665 
L 248.692384 139.528663 
L 250.822979 139.528662 
L 252.873154 139.528661 
L 254.848761 139.528661 
L 256.755034 139.528661 
L 258.596675 139.52866 
L 260.377924 139.52866 
L 262.102615 139.52866 
L 263.77423 139.52866 
L 265.395939 139.528659 
L 266.970635 139.528659 
L 268.500967 139.528659 
L 269.989367 139.528659 
" clip-path="url(#pe85be4f754)" style="fill: none; stroke: #d62728; stroke-width: 1.5; stroke-linecap: square"/>
   </g>
   <g id="line2d_47">
    <path d="M -1 108.081549 
L 73.832727 108.076933 
L 111.486705 103.76644 
L 133.51287 99.739466 
L 149.140682 95.712493 
L 161.262556 92.900283 
L 171.166847 90.161254 
L 179.540806 87.500653 
L 186.79466 87.016248 
L 193.193012 86.667984 
L 198.916533 86.425766 
L 204.094088 86.3652 
L 208.820825 86.304633 
L 213.169001 86.249597 
L 217.194784 86.202513 
L 220.942698 86.173183 
L 224.448637 86.14806 
L 227.741961 86.147108 
L 230.84699 86.146636 
L 233.784094 86.146164 
L 236.570511 86.145691 
L 239.220949 86.145222 
L 241.748065 86.144753 
L 244.162828 86.144285 
L 246.474802 86.144044 
L 248.692384 86.143929 
L 250.822979 86.143895 
L 252.873154 86.143881 
L 254.848761 86.143879 
L 256.755034 86.143878 
L 258.596675 86.143877 
L 260.377924 86.143876 
L 262.102615 86.143875 
L 263.77423 86.143875 
L 265.395939 86.143874 
L 266.970635 86.143874 
L 268.500967 86.143874 
L 269.989367 86.143874 
L 271.438072 86.143874 
L 272.849144 86.143874 
L 274.224488 86.143873 
L 275.56587 86.143873 
L 276.874926 86.143873 
L 278.153178 86.143873 
" clip-path="url(#pe85be4f754)" style="fill: none; stroke: #9467bd; stroke-width: 1.5; stroke-linecap: square"/>
   </g>
   <g id="line2d_48">
    <path d="M -1 111.657918 
L 73.832727 111.654791 
L 111.486705 107.024358 
L 133.51287 102.789912 
L 149.140682 98.575723 
L 161.262556 94.361536 
L 171.166847 91.650108 
L 179.540806 89.543071 
L 186.79466 87.436035 
L 193.193012 87.370177 
L 198.916533 87.304576 
L 204.094088 87.249173 
L 208.820825 87.206775 
L 213.169001 87.174882 
L 217.194784 87.151533 
L 220.942698 87.15104 
L 224.448637 87.150546 
L 227.741961 87.150053 
L 230.84699 87.149562 
L 233.784094 87.149268 
L 236.570511 87.149009 
L 239.220949 87.148889 
L 241.748065 87.148773 
L 244.162828 87.148771 
L 246.474802 87.148769 
L 248.692384 87.148768 
L 250.822979 87.148767 
L 252.873154 87.148766 
L 254.848761 87.148766 
L 256.755034 87.148766 
L 258.596675 87.148765 
L 260.377924 87.148765 
L 262.102615 87.148765 
L 263.77423 87.148765 
L 265.395939 87.148765 
L 266.970635 87.148765 
L 268.500967 87.148765 
L 269.989367 87.148765 
L 271.438072 87.148764 
" clip-path="url(#pe85be4f754)" style="fill: none; stroke: #8c564b; stroke-width: 1.5; stroke-linecap: square"/>
   </g>
   <g id="line2d_49">
    <path d="M -1 293.531272 
L 73.832727 293.5301 
L 111.486705 292.325239 
L 133.51287 291.120377 
L 149.140682 289.915516 
L 161.262556 289.162478 
L 171.166847 288.409439 
L 179.540806 287.656401 
L 186.79466 287.05397 
L 193.193012 286.45154 
L 198.916533 285.849109 
L 204.094088 285.698501 
" clip-path="url(#pe85be4f754)" style="fill: none; stroke: #e377c2; stroke-width: 1.5; stroke-linecap: square"/>
   </g>
   <g id="line2d_50">
    <path d="M -1 270.912989 
L 73.832727 270.906444 
L 111.486705 263.603373 
L 133.51287 256.992374 
L 149.140682 251.373312 
L 161.262556 246.207597 
L 171.166847 241.684621 
L 179.540806 237.33135 
L 186.79466 236.56377 
L 198.916533 235.490888 
L 208.820825 234.622751 
L 220.942698 233.548977 
L 263.77423 229.379548 
L 285.248886 227.746733 
L 302.245113 226.880419 
L 308.372526 226.69046 
L 332.529286 226.580281 
L 398.487273 226.55815 
L 398.487273 226.55815 
" clip-path="url(#pe85be4f754)" style="fill: none; stroke: #7f7f7f; stroke-width: 1.5; stroke-linecap: square"/>
   </g>
   <g id="patch_3">
    <path d="M 57.6 307.584 
L 57.6 41.472 
" style="fill: none; stroke: #000000; stroke-width: 0.8; stroke-linejoin: miter; stroke-linecap: square"/>
   </g>
   <g id="patch_4">
    <path d="M 414.72 307.584 
L 414.72 41.472 
" style="fill: none; stroke: #000000; stroke-width: 0.8; stroke-linejoin: miter; stroke-linecap: square"/>
   </g>
   <g id="patch_5">
    <path d="M 57.6 307.584 
L 414.72 307.584 
" style="fill: none; stroke: #000000; stroke-width: 0.8; stroke-linejoin: miter; stroke-linecap: square"/>
   </g>
   <g id="patch_6">
    <path d="M 57.6 41.472 
L 414.72 41.472 
" style="fill: none; stroke: #000000; stroke-width: 0.8; stroke-linejoin: miter; stroke-linecap: square"/>
   </g>
   <g id="text_13">
    <!-- CDF of captured memory operations -->
    <g transform="translate(126.7125 35.472)scale(0.12 -0.12)">
     <defs>
      <path id="DejaVuSans-44" d="M 1259 4147 
L 1259 519 
L 2022 519 
Q 2988 519 3436 956 
Q 3884 1394 3884 2338 
Q 3884 3275 3436 3711 
Q 2988 4147 2022 4147 
L 1259 4147 
z
M 628 4666 
L 1925 4666 
Q 3281 4666 3915 4102 
Q 4550 3538 4550 2338 
Q 4550 1131 3912 565 
Q 3275 0 1925 0 
L 628 0 
L 628 4666 
z
" transform="scale(0.015625)"/>
      <path id="DejaVuSans-46" d="M 628 4666 
L 3309 4666 
L 3309 4134 
L 1259 4134 
L 1259 2759 
L 3109 2759 
L 3109 2228 
L 1259 2228 
L 1259 0 
L 628 0 
L 628 4666 
z
" transform="scale(0.015625)"/>
     </defs>
     <use xlink:href="#DejaVuSans-43"/>
     <use xlink:href="#DejaVuSans-44" x="69.824219"/>
     <use xlink:href="#DejaVuSans-46" x="146.826172"/>
     <use xlink:href="#DejaVuSans-20" x="204.345703"/>
     <use xlink:href="#DejaVuSans-6f" x="236.132812"/>
     <use xlink:href="#DejaVuSans-66" x="297.314453"/>
     <use xlink:href="#DejaVuSans-20" x="332.519531"/>
     <use xlink:href="#DejaVuSans-63" x="364.306641"/>
     <use xlink:href="#DejaVuSans-61" x="419.287109"/>
     <use xlink:href="#DejaVuSans-70" x="480.566406"/>
     <use xlink:href="#DejaVuSans-74" x="544.042969"/>
     <use xlink:href="#DejaVuSans-75" x="583.251953"/>
     <use xlink:href="#DejaVuSans-72" x="646.630859"/>
     <use xlink:href="#DejaVuSans-65" x="685.494141"/>
     <use xlink:href="#DejaVuSans-64" x="747.017578"/>
     <use xlink:href="#DejaVuSans-20" x="810.494141"/>
     <use xlink:href="#DejaVuSans-6d" x="842.28125"/>
     <use xlink:href="#DejaVuSans-65" x="939.693359"/>
     <use xlink:href="#DejaVuSans-6d" x="1001.216797"/>
     <use xlink:href="#DejaVuSans-6f" x="1098.628906"/>
     <use xlink:href="#DejaVuSans-72" x="1159.810547"/>
     <use xlink:href="#DejaVuSans-79" x="1200.923828"/>
     <use xlink:href="#DejaVuSans-20" x="1260.103516"/>
     <use xlink:href="#DejaVuSans-6f" x="1291.890625"/>
     <use xlink:href="#DejaVuSans-70" x="1353.072266"/>
     <use xlink:href="#DejaVuSans-65" x="1416.548828"/>
     <use xlink:href="#DejaVuSans-72" x="1478.072266"/>
     <use xlink:href="#DejaVuSans-61" x="1519.185547"/>
     <use xlink:href="#DejaVuSans-74" x="1580.464844"/>
     <use xlink:href="#DejaVuSans-69" x="1619.673828"/>
     <use xlink:href="#DejaVuSans-6f" x="1647.457031"/>
     <use xlink:href="#DejaVuSans-6e" x="1708.638672"/>
     <use xlink:href="#DejaVuSans-73" x="1772.017578"/>
    </g>
   </g>
   <g id="legend_1">
    <g id="patch_7">
     <path d="M 333.043438 167.45325 
L 407.72 167.45325 
Q 409.72 167.45325 409.72 165.45325 
L 409.72 48.472 
Q 409.72 46.472 407.72 46.472 
L 333.043438 46.472 
Q 331.043438 46.472 331.043438 48.472 
L 331.043438 165.45325 
Q 331.043438 167.45325 333.043438 167.45325 
z
" style="fill: #ffffff; opacity: 0.8; stroke: #cccccc; stroke-linejoin: miter"/>
    </g>
    <g id="line2d_51">
     <path d="M 335.043438 54.570438 
L 345.043438 54.570438 
L 355.043438 54.570438 
" style="fill: none; stroke: #1f77b4; stroke-width: 1.5; stroke-linecap: square"/>
    </g>
    <g id="text_14">
     <!-- bc -->
     <g transform="translate(363.043438 58.070438)scale(0.1 -0.1)">
      <use xlink:href="#DejaVuSans-62"/>
      <use xlink:href="#DejaVuSans-63" x="63.476562"/>
     </g>
    </g>
    <g id="line2d_52">
     <path d="M 335.043438 69.248563 
L 345.043438 69.248563 
L 355.043438 69.248563 
" style="fill: none; stroke: #ff7f0e; stroke-width: 1.5; stroke-linecap: square"/>
    </g>
    <g id="text_15">
     <!-- bfs -->
     <g transform="translate(363.043438 72.748563)scale(0.1 -0.1)">
      <use xlink:href="#DejaVuSans-62"/>
      <use xlink:href="#DejaVuSans-66" x="63.476562"/>
      <use xlink:href="#DejaVuSans-73" x="98.681641"/>
     </g>
    </g>
    <g id="line2d_53">
     <path d="M 335.043438 83.926688 
L 345.043438 83.926688 
L 355.043438 83.926688 
" style="fill: none; stroke: #2ca02c; stroke-width: 1.5; stroke-linecap: square"/>
    </g>
    <g id="text_16">
     <!-- cc -->
     <g transform="translate(363.043438 87.426688)scale(0.1 -0.1)">
      <use xlink:href="#DejaVuSans-63"/>
      <use xlink:href="#DejaVuSans-63" x="54.980469"/>
     </g>
    </g>
    <g id="line2d_54">
     <path d="M 335.043438 98.604813 
L 345.043438 98.604813 
L 355.043438 98.604813 
" style="fill: none; stroke: #d62728; stroke-width: 1.5; stroke-linecap: square"/>
    </g>
    <g id="text_17">
     <!-- cc_sv -->
     <g transform="translate(363.043438 102.104813)scale(0.1 -0.1)">
      <defs>
       <path id="DejaVuSans-5f" d="M 3263 -1063 
L 3263 -1509 
L -63 -1509 
L -63 -1063 
L 3263 -1063 
z
" transform="scale(0.015625)"/>
       <path id="DejaVuSans-76" d="M 191 3500 
L 800 3500 
L 1894 563 
L 2988 3500 
L 3597 3500 
L 2284 0 
L 1503 0 
L 191 3500 
z
" transform="scale(0.015625)"/>
      </defs>
      <use xlink:href="#DejaVuSans-63"/>
      <use xlink:href="#DejaVuSans-63" x="54.980469"/>
      <use xlink:href="#DejaVuSans-5f" x="109.960938"/>
      <use xlink:href="#DejaVuSans-73" x="159.960938"/>
      <use xlink:href="#DejaVuSans-76" x="212.060547"/>
     </g>
    </g>
    <g id="line2d_55">
     <path d="M 335.043438 113.561063 
L 345.043438 113.561063 
L 355.043438 113.561063 
" style="fill: none; stroke: #9467bd; stroke-width: 1.5; stroke-linecap: square"/>
    </g>
    <g id="text_18">
     <!-- pr -->
     <g transform="translate(363.043438 117.061063)scale(0.1 -0.1)">
      <use xlink:href="#DejaVuSans-70"/>
      <use xlink:href="#DejaVuSans-72" x="63.476562"/>
     </g>
    </g>
    <g id="line2d_56">
     <path d="M 335.043438 128.239188 
L 345.043438 128.239188 
L 355.043438 128.239188 
" style="fill: none; stroke: #8c564b; stroke-width: 1.5; stroke-linecap: square"/>
    </g>
    <g id="text_19">
     <!-- pr_spmv -->
     <g transform="translate(363.043438 131.739188)scale(0.1 -0.1)">
      <use xlink:href="#DejaVuSans-70"/>
      <use xlink:href="#DejaVuSans-72" x="63.476562"/>
      <use xlink:href="#DejaVuSans-5f" x="104.589844"/>
      <use xlink:href="#DejaVuSans-73" x="154.589844"/>
      <use xlink:href="#DejaVuSans-70" x="206.689453"/>
      <use xlink:href="#DejaVuSans-6d" x="270.166016"/>
      <use xlink:href="#DejaVuSans-76" x="367.578125"/>
     </g>
    </g>
    <g id="line2d_57">
     <path d="M 335.043438 143.195438 
L 345.043438 143.195438 
L 355.043438 143.195438 
" style="fill: none; stroke: #e377c2; stroke-width: 1.5; stroke-linecap: square"/>
    </g>
    <g id="text_20">
     <!-- sssp -->
     <g transform="translate(363.043438 146.695438)scale(0.1 -0.1)">
      <use xlink:href="#DejaVuSans-73"/>
      <use xlink:href="#DejaVuSans-73" x="52.099609"/>
      <use xlink:href="#DejaVuSans-73" x="104.199219"/>
      <use xlink:href="#DejaVuSans-70" x="156.298828"/>
     </g>
    </g>
    <g id="line2d_58">
     <path d="M 335.043438 157.873563 
L 345.043438 157.873563 
L 355.043438 157.873563 
" style="fill: none; stroke: #7f7f7f; stroke-width: 1.5; stroke-linecap: square"/>
    </g>
    <g id="text_21">
     <!-- tc -->
     <g transform="translate(363.043438 161.373563)scale(0.1 -0.1)">
      <use xlink:href="#DejaVuSans-74"/>
      <use xlink:href="#DejaVuSans-63" x="39.208984"/>
     </g>
    </g>
   </g>
  </g>
 </g>
 <defs>
  <clipPath id="pe85be4f754">
   <rect x="57.6" y="41.472" width="357.12" height="266.112"/>
  </clipPath>
 </defs>
</svg>
