<?xml version="1.0" encoding="UTF-8" standalone="no"?>
<!DOCTYPE svg PUBLIC "-//W3C//DTD SVG 1.1//EN"
 "http://www.w3.org/Graphics/SVG/1.1/DTD/svg11.dtd">
<!-- Generated by graphviz version 10.0.1 (20240210.2158)
 -->
<!-- Pages: 1 -->
<svg width="421pt" height="332pt"
 viewBox="0.00 0.00 421.05 332.00" xmlns="http://www.w3.org/2000/svg" xmlns:xlink="http://www.w3.org/1999/xlink">
<g id="graph0" class="graph" transform="scale(1 1) rotate(0) translate(4 328)">
<polygon fill="white" stroke="none" points="-4,4 -4,-328 417.05,-328 417.05,4 -4,4"/>
<!-- 40 -->
<g id="node1" class="node">
<title>40</title>
<ellipse fill="none" stroke="black" cx="263.42" cy="-18" rx="38.58" ry="18"/>
<text text-anchor="middle" x="263.42" y="-13.32" font-family="Times,serif" font-size="14.00">Store</text>
</g>
<!-- 39 -->
<g id="node2" class="node">
<title>39</title>
<ellipse fill="none" stroke="black" cx="263.42" cy="-90" rx="78.57" ry="18"/>
<text text-anchor="middle" x="263.42" y="-85.33" font-family="Times,serif" font-size="14.00">%storemerge</text>
</g>
<!-- 40&#45;&gt;39 -->
<g id="edge1" class="edge">
<title>40&#45;&gt;39</title>
<path fill="none" stroke="black" d="M263.42,-36.3C263.42,-43.59 263.42,-52.27 263.42,-60.46"/>
<polygon fill="black" stroke="black" points="259.92,-60.38 263.42,-70.38 266.92,-60.38 259.92,-60.38"/>
</g>
<!-- 37 -->
<g id="node5" class="node">
<title>37</title>
<ellipse fill="none" stroke="black" cx="212.42" cy="-162" rx="45.42" ry="18"/>
<text text-anchor="middle" x="212.42" y="-157.32" font-family="Times,serif" font-size="14.00">%add5</text>
</g>
<!-- 39&#45;&gt;37 -->
<g id="edge5" class="edge">
<title>39&#45;&gt;37</title>
<path fill="none" stroke="black" d="M251.08,-107.95C245.12,-116.11 237.86,-126.09 231.24,-135.18"/>
<polygon fill="black" stroke="black" points="228.6,-132.84 225.54,-142.99 234.26,-136.97 228.6,-132.84"/>
</g>
<!-- 32 -->
<g id="node8" class="node">
<title>32</title>
<ellipse fill="none" stroke="black" cx="344.42" cy="-162" rx="39.11" ry="18"/>
<text text-anchor="middle" x="344.42" y="-157.32" font-family="Times,serif" font-size="14.00">%add</text>
</g>
<!-- 39&#45;&gt;32 -->
<g id="edge7" class="edge">
<title>39&#45;&gt;32</title>
<path fill="none" stroke="black" d="M282.62,-107.59C293.28,-116.8 306.69,-128.4 318.3,-138.43"/>
<polygon fill="black" stroke="black" points="315.75,-140.85 325.6,-144.74 320.32,-135.55 315.75,-140.85"/>
</g>
<!-- 36 -->
<g id="node3" class="node">
<title>36</title>
<ellipse fill="none" stroke="black" cx="45.42" cy="-234" rx="45.42" ry="18"/>
<text text-anchor="middle" x="45.42" y="-229.32" font-family="Times,serif" font-size="14.00">%add4</text>
</g>
<!-- 35 -->
<g id="node4" class="node">
<title>35</title>
<ellipse fill="none" stroke="black" cx="45.42" cy="-306" rx="35.42" ry="18"/>
<text text-anchor="middle" x="45.42" y="-301.32" font-family="Times,serif" font-size="14.00">Load</text>
</g>
<!-- 36&#45;&gt;35 -->
<g id="edge2" class="edge">
<title>36&#45;&gt;35</title>
<path fill="none" stroke="black" d="M45.42,-252.3C45.42,-259.59 45.42,-268.27 45.42,-276.46"/>
<polygon fill="black" stroke="black" points="41.92,-276.38 45.42,-286.38 48.92,-276.38 41.92,-276.38"/>
</g>
<!-- 37&#45;&gt;36 -->
<g id="edge6" class="edge">
<title>37&#45;&gt;36</title>
<path fill="none" stroke="black" d="M182.18,-175.68C155.31,-186.94 115.8,-203.5 86.16,-215.93"/>
<polygon fill="black" stroke="black" points="84.99,-212.62 77.12,-219.71 87.69,-219.08 84.99,-212.62"/>
</g>
<!-- 25 -->
<g id="node6" class="node">
<title>25</title>
<ellipse fill="none" stroke="black" cx="212.42" cy="-234" rx="103.82" ry="18"/>
<text text-anchor="middle" x="212.42" y="-229.32" font-family="Times,serif" font-size="14.00">%storemerge1112</text>
</g>
<!-- 37&#45;&gt;25 -->
<g id="edge3" class="edge">
<title>37&#45;&gt;25</title>
<path fill="none" stroke="black" d="M212.42,-180.3C212.42,-187.59 212.42,-196.27 212.42,-204.46"/>
<polygon fill="black" stroke="black" points="208.92,-204.38 212.42,-214.38 215.92,-204.38 208.92,-204.38"/>
</g>
<!-- 21 -->
<g id="node7" class="node">
<title>21</title>
<ellipse fill="none" stroke="black" cx="212.42" cy="-306" rx="35.42" ry="18"/>
<text text-anchor="middle" x="212.42" y="-301.32" font-family="Times,serif" font-size="14.00">Load</text>
</g>
<!-- 25&#45;&gt;21 -->
<g id="edge4" class="edge">
<title>25&#45;&gt;21</title>
<path fill="none" stroke="black" d="M212.42,-252.3C212.42,-259.59 212.42,-268.27 212.42,-276.46"/>
<polygon fill="black" stroke="black" points="208.92,-276.38 212.42,-286.38 215.92,-276.38 208.92,-276.38"/>
</g>
<!-- 31 -->
<g id="node9" class="node">
<title>31</title>
<ellipse fill="none" stroke="black" cx="373.42" cy="-234" rx="39.63" ry="18"/>
<text text-anchor="middle" x="373.42" y="-229.32" font-family="Times,serif" font-size="14.00">%mul</text>
</g>
<!-- 32&#45;&gt;31 -->
<g id="edge8" class="edge">
<title>32&#45;&gt;31</title>
<path fill="none" stroke="black" d="M351.44,-179.95C354.65,-187.68 358.52,-197.04 362.12,-205.73"/>
<polygon fill="black" stroke="black" points="358.83,-206.91 365.89,-214.81 365.29,-204.23 358.83,-206.91"/>
</g>
<!-- 30 -->
<g id="node10" class="node">
<title>30</title>
<ellipse fill="none" stroke="black" cx="373.42" cy="-306" rx="35.42" ry="18"/>
<text text-anchor="middle" x="373.42" y="-301.32" font-family="Times,serif" font-size="14.00">Load</text>
</g>
<!-- 31&#45;&gt;30 -->
<g id="edge9" class="edge">
<title>31&#45;&gt;30</title>
<path fill="none" stroke="black" d="M373.42,-252.3C373.42,-259.59 373.42,-268.27 373.42,-276.46"/>
<polygon fill="black" stroke="black" points="369.92,-276.38 373.42,-286.38 376.92,-276.38 369.92,-276.38"/>
</g>
</g>
</svg>
