<?xml version="1.0" encoding="UTF-8" standalone="no"?>
<!DOCTYPE svg PUBLIC "-//W3C//DTD SVG 1.1//EN"
 "http://www.w3.org/Graphics/SVG/1.1/DTD/svg11.dtd">
<!-- Generated by graphviz version 2.43.0 (0)
 -->
<!-- Title: %3 Pages: 1 -->
<svg width="158pt" height="188pt"
 viewBox="0.00 0.00 158.29 188.00" xmlns="http://www.w3.org/2000/svg" xmlns:xlink="http://www.w3.org/1999/xlink">
<g id="graph0" class="graph" transform="scale(1 1) rotate(0) translate(4 184)">
<title>%3</title>
<polygon fill="white" stroke="transparent" points="-4,4 -4,-184 154.29,-184 154.29,4 -4,4"/>
<!-- 0 -->
<g id="node1" class="node">
<title>0</title>
<ellipse fill="none" stroke="black" cx="33.15" cy="-162" rx="33.29" ry="18"/>
<text text-anchor="middle" x="33.15" y="-158.3" font-family="Times,serif" font-size="14.00">Load</text>
</g>
<!-- 1 -->
<g id="node2" class="node">
<title>1</title>
<ellipse fill="none" stroke="black" cx="117.15" cy="-162" rx="33.29" ry="18"/>
<text text-anchor="middle" x="117.15" y="-158.3" font-family="Times,serif" font-size="14.00">Load</text>
</g>
<!-- Add -->
<g id="node3" class="node">
<title>Add</title>
<ellipse fill="none" stroke="black" cx="75.15" cy="-90" rx="28.7" ry="18"/>
<text text-anchor="middle" x="75.15" y="-86.3" font-family="Times,serif" font-size="14.00">Add</text>
</g>
<!-- Add&#45;&gt;0 -->
<g id="edge1" class="edge">
<title>Add&#45;&gt;0</title>
<path fill="none" stroke="black" d="M65.41,-107.24C60.34,-115.68 54.03,-126.2 48.33,-135.69"/>
<polygon fill="black" stroke="black" points="45.27,-133.99 43.13,-144.37 51.27,-137.59 45.27,-133.99"/>
</g>
<!-- Add&#45;&gt;1 -->
<g id="edge2" class="edge">
<title>Add&#45;&gt;1</title>
<path fill="none" stroke="black" d="M84.89,-107.24C89.96,-115.68 96.27,-126.2 101.96,-135.69"/>
<polygon fill="black" stroke="black" points="99.02,-137.59 107.17,-144.37 105.02,-133.99 99.02,-137.59"/>
</g>
<!-- Store -->
<g id="node4" class="node">
<title>Store</title>
<ellipse fill="none" stroke="black" cx="75.15" cy="-18" rx="36.29" ry="18"/>
<text text-anchor="middle" x="75.15" y="-14.3" font-family="Times,serif" font-size="14.00">Store</text>
</g>
<!-- Store&#45;&gt;Add -->
<g id="edge3" class="edge">
<title>Store&#45;&gt;Add</title>
<path fill="none" stroke="black" d="M75.15,-36.3C75.15,-44.02 75.15,-53.29 75.15,-61.89"/>
<polygon fill="black" stroke="black" points="71.65,-61.9 75.15,-71.9 78.65,-61.9 71.65,-61.9"/>
</g>
</g>
</svg>
