<?xml version="1.0" encoding="UTF-8" standalone="no"?>
<!DOCTYPE svg PUBLIC "-//W3C//DTD SVG 1.1//EN"
 "http://www.w3.org/Graphics/SVG/1.1/DTD/svg11.dtd">
<!-- Generated by graphviz version 10.0.1 (20240210.2158)
 -->
<!-- Pages: 1 -->
<svg width="500pt" height="332pt"
 viewBox="0.00 0.00 499.85 332.00" xmlns="http://www.w3.org/2000/svg" xmlns:xlink="http://www.w3.org/1999/xlink">
<g id="page0,1_graph0" class="graph" transform="scale(1 1) rotate(0) translate(4 328)">
<polygon fill="white" stroke="none" points="-4,4 -4,-328 495.85,-328 495.85,4 -4,4"/>
<!-- Branch 1 -->
<g id="node1" class="node">
<title>Branch 1</title>
<ellipse fill="none" stroke="black" cx="79.42" cy="-234" rx="56.47" ry="18"/>
<text text-anchor="middle" x="79.42" y="-229.32" font-family="Times,serif" font-size="14.00">Branch 1</text>
</g>
<!-- Load 1 -->
<g id="node2" class="node">
<title>Load 1</title>
<ellipse fill="none" stroke="black" stroke-width="2" cx="35.42" cy="-306" rx="35.42" ry="18"/>
<text text-anchor="middle" x="35.42" y="-301.32" font-family="Times,serif" font-size="14.00">Load</text>
</g>
<!-- Branch 1&#45;&gt;Load 1 -->
<g id="edge1" class="edge">
<title>Branch 1&#45;&gt;Load 1</title>
<path fill="none" stroke="black" d="M68.77,-251.95C63.67,-260.06 57.45,-269.96 51.77,-278.99"/>
<polygon fill="black" stroke="black" points="48.84,-277.08 46.48,-287.41 54.77,-280.81 48.84,-277.08"/>
</g>
<!-- Load 3 -->
<g id="node3" class="node">
<title>Load 3</title>
<ellipse fill="none" stroke="black" cx="124.42" cy="-306" rx="35.42" ry="18"/>
<text text-anchor="middle" x="124.42" y="-301.32" font-family="Times,serif" font-size="14.00">Load</text>
</g>
<!-- Branch 1&#45;&gt;Load 3 -->
<g id="edge2" class="edge">
<title>Branch 1&#45;&gt;Load 3</title>
<path fill="none" stroke="black" d="M90.32,-251.95C95.59,-260.15 102.03,-270.17 107.89,-279.29"/>
<polygon fill="black" stroke="black" points="104.77,-280.9 113.12,-287.42 110.66,-277.12 104.77,-280.9"/>
</g>
<!-- Branch 2 -->
<g id="node4" class="node">
<title>Branch 2</title>
<ellipse fill="none" stroke="black" cx="213.42" cy="-162" rx="56.47" ry="18"/>
<text text-anchor="middle" x="213.42" y="-157.32" font-family="Times,serif" font-size="14.00">Branch 2</text>
</g>
<!-- Branch 2&#45;&gt;Branch 1 -->
<g id="edge3" class="edge">
<title>Branch 2&#45;&gt;Branch 1</title>
<path fill="none" stroke="black" d="M185.01,-177.85C165.46,-188.05 139.28,-201.73 117.87,-212.91"/>
<polygon fill="black" stroke="black" points="116.39,-209.74 109.14,-217.48 119.63,-215.95 116.39,-209.74"/>
</g>
<!-- Load 2 -->
<g id="node5" class="node">
<title>Load 2</title>
<ellipse fill="none" stroke="black" stroke-width="2" cx="189.42" cy="-234" rx="35.42" ry="18"/>
<text text-anchor="middle" x="189.42" y="-229.32" font-family="Times,serif" font-size="14.00">Load</text>
</g>
<!-- Branch 2&#45;&gt;Load 2 -->
<g id="edge4" class="edge">
<title>Branch 2&#45;&gt;Load 2</title>
<path fill="none" stroke="black" d="M207.49,-180.3C204.93,-187.76 201.88,-196.68 199.01,-205.03"/>
<polygon fill="black" stroke="black" points="195.71,-203.87 195.78,-214.46 202.33,-206.14 195.71,-203.87"/>
</g>
<!-- Load 6 -->
<g id="node6" class="node">
<title>Load 6</title>
<ellipse fill="none" stroke="black" cx="278.42" cy="-234" rx="35.42" ry="18"/>
<text text-anchor="middle" x="278.42" y="-229.32" font-family="Times,serif" font-size="14.00">Load</text>
</g>
<!-- Branch 2&#45;&gt;Load 6 -->
<g id="edge5" class="edge">
<title>Branch 2&#45;&gt;Load 6</title>
<path fill="none" stroke="black" d="M228.83,-179.59C237.08,-188.47 247.37,-199.56 256.45,-209.33"/>
<polygon fill="black" stroke="black" points="253.62,-211.43 262.99,-216.38 258.75,-206.67 253.62,-211.43"/>
</g>
<!-- Store -->
<g id="node7" class="node">
<title>Store</title>
<ellipse fill="none" stroke="black" cx="278.42" cy="-18" rx="38.58" ry="18"/>
<text text-anchor="middle" x="278.42" y="-13.32" font-family="Times,serif" font-size="14.00">Store</text>
</g>
<!-- Add -->
<g id="node8" class="node">
<title>Add</title>
<ellipse fill="none" stroke="black" cx="278.42" cy="-90" rx="30.69" ry="18"/>
<text text-anchor="middle" x="278.42" y="-85.33" font-family="Times,serif" font-size="14.00">Add</text>
</g>
<!-- Store&#45;&gt;Add -->
<g id="edge6" class="edge">
<title>Store&#45;&gt;Add</title>
<path fill="none" stroke="black" d="M278.42,-36.3C278.42,-43.59 278.42,-52.27 278.42,-60.46"/>
<polygon fill="black" stroke="black" points="274.92,-60.38 278.42,-70.38 281.92,-60.38 274.92,-60.38"/>
</g>
<!-- Add&#45;&gt;Branch 2 -->
<g id="edge7" class="edge">
<title>Add&#45;&gt;Branch 2</title>
<path fill="none" stroke="black" d="M264.32,-106.19C256.23,-114.9 245.88,-126.04 236.63,-136.01"/>
<polygon fill="black" stroke="black" points="234.13,-133.55 229.89,-143.26 239.26,-138.32 234.13,-133.55"/>
</g>
<!-- Branch 3 -->
<g id="node9" class="node">
<title>Branch 3</title>
<ellipse fill="none" stroke="black" cx="367.42" cy="-162" rx="56.47" ry="18"/>
<text text-anchor="middle" x="367.42" y="-157.32" font-family="Times,serif" font-size="14.00">Branch 3</text>
</g>
<!-- Add&#45;&gt;Branch 3 -->
<g id="edge8" class="edge">
<title>Add&#45;&gt;Branch 3</title>
<path fill="none" stroke="black" d="M296.01,-104.83C308.06,-114.31 324.33,-127.1 338.3,-138.09"/>
<polygon fill="black" stroke="black" points="335.86,-140.63 345.88,-144.06 340.19,-135.13 335.86,-140.63"/>
</g>
<!-- Load 4 -->
<g id="node10" class="node">
<title>Load 4</title>
<ellipse fill="none" stroke="black" cx="367.42" cy="-234" rx="35.42" ry="18"/>
<text text-anchor="middle" x="367.42" y="-229.32" font-family="Times,serif" font-size="14.00">Load</text>
</g>
<!-- Branch 3&#45;&gt;Load 4 -->
<g id="edge9" class="edge">
<title>Branch 3&#45;&gt;Load 4</title>
<path fill="none" stroke="black" d="M367.42,-180.3C367.42,-187.59 367.42,-196.27 367.42,-204.46"/>
<polygon fill="black" stroke="black" points="363.92,-204.38 367.42,-214.38 370.92,-204.38 363.92,-204.38"/>
</g>
<!-- Load 5 -->
<g id="node11" class="node">
<title>Load 5</title>
<ellipse fill="none" stroke="black" stroke-width="2" cx="456.42" cy="-234" rx="35.42" ry="18"/>
<text text-anchor="middle" x="456.42" y="-229.32" font-family="Times,serif" font-size="14.00">Load</text>
</g>
<!-- Branch 3&#45;&gt;Load 5 -->
<g id="edge10" class="edge">
<title>Branch 3&#45;&gt;Load 5</title>
<path fill="none" stroke="black" d="M388.07,-179.24C400.25,-188.82 415.82,-201.06 429.02,-211.45"/>
<polygon fill="black" stroke="black" points="426.5,-213.92 436.52,-217.35 430.83,-208.41 426.5,-213.92"/>
</g>
</g>
</svg>
