<?xml version="1.0" encoding="UTF-8" standalone="no"?>
<!DOCTYPE svg PUBLIC "-//W3C//DTD SVG 1.1//EN"
 "http://www.w3.org/Graphics/SVG/1.1/DTD/svg11.dtd">
<!-- Generated by graphviz version 10.0.1 (20240210.2158)
 -->
<!-- Pages: 1 -->
<svg width="404pt" height="404pt"
 viewBox="0.00 0.00 403.50 404.00" xmlns="http://www.w3.org/2000/svg" xmlns:xlink="http://www.w3.org/1999/xlink">
<g id="page0,1_graph0" class="graph" transform="scale(1 1) rotate(0) translate(4 400)">
<polygon fill="white" stroke="none" points="-4,4 -4,-400 399.5,-400 399.5,4 -4,4"/>
<!-- Compile program to LLVM IR -->
<g id="node1" class="node">
<title>Compile program to LLVM IR</title>
<polygon fill="none" stroke="black" points="285.25,-396 60.75,-396 60.75,-360 285.25,-360 285.25,-396"/>
<text text-anchor="middle" x="173" y="-373.32" font-family="Times,serif" font-size="14.00">Compile program to LLVM IR</text>
</g>
<!-- Identify idioms -->
<g id="node2" class="node">
<title>Identify idioms</title>
<polygon fill="none" stroke="black" points="234.62,-324 111.38,-324 111.38,-288 234.62,-288 234.62,-324"/>
<text text-anchor="middle" x="173" y="-301.32" font-family="Times,serif" font-size="14.00">Identify idioms</text>
</g>
<!-- Compile program to LLVM IR&#45;&gt;Identify idioms -->
<g id="edge1" class="edge">
<title>Compile program to LLVM IR&#45;&gt;Identify idioms</title>
<path fill="none" stroke="black" d="M173,-359.7C173,-352.41 173,-343.73 173,-335.54"/>
<polygon fill="black" stroke="black" points="176.5,-335.62 173,-325.62 169.5,-335.62 176.5,-335.62"/>
</g>
<!-- Generate idiom IR -->
<g id="node3" class="node">
<title>Generate idiom IR</title>
<polygon fill="none" stroke="black" points="150.25,-252 3.75,-252 3.75,-216 150.25,-216 150.25,-252"/>
<text text-anchor="middle" x="77" y="-229.32" font-family="Times,serif" font-size="14.00">Generate idiom IR</text>
</g>
<!-- Identify idioms&#45;&gt;Generate idiom IR -->
<g id="edge2" class="edge">
<title>Identify idioms&#45;&gt;Generate idiom IR</title>
<path fill="none" stroke="black" d="M149.27,-287.7C137.38,-279.03 122.81,-268.4 109.86,-258.96"/>
<polygon fill="black" stroke="black" points="112.16,-256.3 102.01,-253.24 108.03,-261.96 112.16,-256.3"/>
</g>
<!-- Generate instrumentation -->
<g id="node5" class="node">
<title>Generate instrumentation</title>
<polygon fill="none" stroke="black" points="371,-252 169,-252 169,-216 371,-216 371,-252"/>
<text text-anchor="middle" x="270" y="-229.32" font-family="Times,serif" font-size="14.00">Generate instrumentation</text>
</g>
<!-- Identify idioms&#45;&gt;Generate instrumentation -->
<g id="edge4" class="edge">
<title>Identify idioms&#45;&gt;Generate instrumentation</title>
<path fill="none" stroke="black" d="M196.98,-287.7C208.99,-279.03 223.72,-268.4 236.79,-258.96"/>
<polygon fill="black" stroke="black" points="238.67,-261.92 244.73,-253.23 234.58,-256.25 238.67,-261.92"/>
</g>
<!-- Compile to RISC&#45;V -->
<g id="node4" class="node">
<title>Compile to RISC&#45;V</title>
<polygon fill="none" stroke="black" points="148,-180 0,-180 0,-144 148,-144 148,-180"/>
<text text-anchor="middle" x="74" y="-157.32" font-family="Times,serif" font-size="14.00">Compile to RISC&#45;V</text>
</g>
<!-- Generate idiom IR&#45;&gt;Compile to RISC&#45;V -->
<g id="edge3" class="edge">
<title>Generate idiom IR&#45;&gt;Compile to RISC&#45;V</title>
<path fill="none" stroke="black" d="M76.26,-215.7C75.95,-208.41 75.57,-199.73 75.22,-191.54"/>
<polygon fill="black" stroke="black" points="78.72,-191.46 74.8,-181.62 71.73,-191.76 78.72,-191.46"/>
</g>
<!-- Run instrumented program -->
<g id="node6" class="node">
<title>Run instrumented program</title>
<polygon fill="none" stroke="black" points="377.88,-180 166.12,-180 166.12,-144 377.88,-144 377.88,-180"/>
<text text-anchor="middle" x="272" y="-157.32" font-family="Times,serif" font-size="14.00">Run instrumented program</text>
</g>
<!-- Generate instrumentation&#45;&gt;Run instrumented program -->
<g id="edge5" class="edge">
<title>Generate instrumentation&#45;&gt;Run instrumented program</title>
<path fill="none" stroke="black" d="M270.49,-215.7C270.7,-208.41 270.95,-199.73 271.18,-191.54"/>
<polygon fill="black" stroke="black" points="274.68,-191.71 271.47,-181.62 267.68,-191.51 274.68,-191.71"/>
</g>
<!-- Analyze dynamic memory traffic -->
<g id="node7" class="node">
<title>Analyze dynamic memory traffic</title>
<polygon fill="none" stroke="black" points="395.5,-108 148.5,-108 148.5,-72 395.5,-72 395.5,-108"/>
<text text-anchor="middle" x="272" y="-85.33" font-family="Times,serif" font-size="14.00">Analyze dynamic memory traffic</text>
</g>
<!-- Run instrumented program&#45;&gt;Analyze dynamic memory traffic -->
<g id="edge6" class="edge">
<title>Run instrumented program&#45;&gt;Analyze dynamic memory traffic</title>
<path fill="none" stroke="black" d="M272,-143.7C272,-136.41 272,-127.73 272,-119.54"/>
<polygon fill="black" stroke="black" points="275.5,-119.62 272,-109.62 268.5,-119.62 275.5,-119.62"/>
</g>
<!-- Generate reports -->
<g id="node8" class="node">
<title>Generate reports</title>
<polygon fill="none" stroke="black" points="341.5,-36 202.5,-36 202.5,0 341.5,0 341.5,-36"/>
<text text-anchor="middle" x="272" y="-13.32" font-family="Times,serif" font-size="14.00">Generate reports</text>
</g>
<!-- Analyze dynamic memory traffic&#45;&gt;Generate reports -->
<g id="edge7" class="edge">
<title>Analyze dynamic memory traffic&#45;&gt;Generate reports</title>
<path fill="none" stroke="black" d="M272,-71.7C272,-64.41 272,-55.73 272,-47.54"/>
<polygon fill="black" stroke="black" points="275.5,-47.62 272,-37.62 268.5,-47.62 275.5,-47.62"/>
</g>
</g>
</svg>
